<svg xmlns="http://www.w3.org/2000/svg" xmlns:xlink="http://www.w3.org/1999/xlink" width="64" height="64" viewBox="0 0 64 64"><defs><clipPath id="a"><rect width="64" height="64" fill="none"/></clipPath></defs><g clip-path="url(#a)"><path d="M-129.587,21.626c-1.023,6.989-.583,9.805,2.909,11.965,2.742,1.7,6.738,2.252,9.837-.059" transform="translate(168)" fill="none" stroke="#ff7d2f" stroke-linecap="round" stroke-linejoin="round" stroke-width="6"/><path d="M-128,15.055a5.983,5.983,0,0,0-4.872-1.546c-11.267,1.5-16.888,13.089-18.433,19.7a5.989,5.989,0,0,0,4.455,7.188,6.042,6.042,0,0,0,1.39.164,6.02,6.02,0,0,0,5.835-4.6c.616-2.535,3.47-9.916,8.335-10.564a6,6,0,0,0,5.021-4.467,8.022,8.022,0,0,1-1.776-5.038A8.107,8.107,0,0,1-128,15.055Z" transform="translate(168)" fill="#ff7d2f"/><circle cx="6.07" cy="6.07" r="6.07" transform="translate(41.959 9.828)" fill="#ff7d2f"/><path d="M-144.223,35.564c11,4.023,13.924,21.646,13.924,21.646" transform="translate(168)" fill="none" stroke="#ff7d2f" stroke-linecap="round" stroke-linejoin="round" stroke-width="8"/><path d="M-146.1,37.186c1.88,16.8-11.3,15.473-11.3,15.473" transform="translate(168)" fill="none" stroke="#ff7d2f" stroke-linecap="round" stroke-linejoin="round" stroke-width="8"/><g transform="translate(168)"><rect width="12.193" height="3.914" transform="translate(-120.715 30.624) rotate(-37.6)" fill="#ff7d2f" opacity="0.5"/><rect width="12.193" height="3.914" transform="translate(-120.715 30.624) rotate(-37.6)" stroke-width="2" stroke="#ff7d2f" stroke-linecap="round" stroke-linejoin="round" fill="none"/></g><rect width="64" height="64" fill="none"/></g></svg>