<svg xmlns="http://www.w3.org/2000/svg" xmlns:xlink="http://www.w3.org/1999/xlink" width="64" height="64" viewBox="0 0 64 64"><defs><clipPath id="a"><rect width="64" height="64" fill="none"/></clipPath></defs><g clip-path="url(#a)"><path d="M-281.4,22.317s-3.625,1.567-3.867,4.7c0,0-1.117-4.216-4.076-4.7a7.862,7.862,0,0,0,4.076-4.7S-283.563,21.794-281.4,22.317Z" transform="translate(335)" fill="#fff" stroke="#ff7d2f" stroke-linecap="round" stroke-linejoin="round" stroke-width="2"/><path d="M-283.069,38.9s-3.243,1.4-3.459,4.207c0,0-1-3.771-3.646-4.207a7.032,7.032,0,0,0,3.646-4.207S-285,38.437-283.069,38.9Z" transform="translate(335)" fill="#fff" stroke="#ff7d2f" stroke-linecap="round" stroke-linejoin="round" stroke-width="2"/><circle cx="1" cy="1" r="1" transform="translate(55.699 33.478)" fill="#ff7d2f" stroke="#ff7d2f" stroke-linecap="round" stroke-linejoin="round" stroke-width="2"/><g transform="translate(335)"><rect width="5.56" height="40.652" transform="translate(-303.207 20.433) rotate(42.739)" fill="#ff7d2f" opacity="0.5"/><rect width="5.56" height="40.652" transform="translate(-303.207 20.433) rotate(42.739)" stroke-width="2" stroke="#ff7d2f" stroke-linecap="round" stroke-linejoin="round" fill="none"/><rect width="20.376" height="10.98" transform="translate(-308.648 15.406) rotate(42.739)" stroke-width="2" stroke="#ff7d2f" stroke-linecap="round" stroke-linejoin="round" fill="#fff"/><rect width="3.57" height="14.151" rx="1.785" transform="matrix(0.734, 0.679, -0.679, 0.734, -292.607, 28.07)" fill="none" stroke="#ff7d2f" stroke-miterlimit="10" stroke-width="2"/><rect width="3.57" height="14.151" rx="1.785" transform="matrix(0.734, 0.679, -0.679, 0.734, -310.194, 11.818)" fill="none" stroke="#ff7d2f" stroke-miterlimit="10" stroke-width="2"/><rect width="3.57" height="14.151" rx="1.785" transform="matrix(0.734, 0.679, -0.679, 0.734, -292.606, 28.069)" fill="#ff7d2f" opacity="0.5"/><rect width="3.57" height="14.151" rx="1.785" transform="matrix(0.734, 0.679, -0.679, 0.734, -310.194, 11.818)" fill="#ff7d2f" opacity="0.5"/></g><rect width="23.062" height="3.541" transform="translate(34.866 50.763)" stroke-width="2" stroke="#ff7d2f" stroke-linecap="round" stroke-linejoin="round" fill="#fff"/><rect width="18.605" height="3.541" transform="translate(37.094 47.222)" stroke-width="2" stroke="#ff7d2f" stroke-linecap="round" stroke-linejoin="round" fill="none"/><rect width="64" height="64" fill="none"/><rect width="18.605" height="3.541" transform="translate(37.094 47.222)" fill="#ff7d2f" opacity="0.5"/></g></svg>