<svg xmlns="http://www.w3.org/2000/svg" xmlns:xlink="http://www.w3.org/1999/xlink" width="63.955" height="63.955" viewBox="0 0 63.955 63.955"><defs><clipPath id="a"><rect width="63.955" height="63.955" fill="none"/></clipPath></defs><g clip-path="url(#a)"><path d="M-59.489,58.914h12.341s-6.843-17.685-8.393-22.69c-1.515-4.891-5.438-1.667-10.144-1.667C-66.755,41.767-59.489,58.914-59.489,58.914Z" transform="translate(83.955)" fill="#ff7d2f" stroke="#ff7d2f" stroke-linecap="round" stroke-linejoin="round" stroke-width="3"/><circle cx="6" cy="6" r="6" transform="translate(14.366 18.334)" fill="#ff7d2f"/><rect width="5.012" height="8.355" transform="translate(56.617 42.712) rotate(-142.132)" stroke-width="2" stroke="#ff7d2f" stroke-linecap="round" stroke-linejoin="round" fill="none"/><path d="M-65.685,35.539s-7.231,2.095-11.781-3.1c-3.931-4.487,3.033-9.488,3.033-9.488" transform="translate(83.955)" fill="none" stroke="#ff7d2f" stroke-linecap="round" stroke-linejoin="round" stroke-width="5"/><line x2="18.109" y2="2.463" transform="translate(27.038 34.999)" stroke-width="5" stroke="#ff7d2f" stroke-linecap="round" stroke-linejoin="round" fill="none"/><line x1="1.112" y2="1.952" transform="translate(45.146 35.51)" stroke-width="5" stroke="#ff7d2f" stroke-linecap="round" stroke-linejoin="round" fill="none"/><path d="M-57.273,12.438s-.26-3.346,1.169-5.376a2.093,2.093,0,0,1,3.767,1.609C-52.856,10.619-57.273,12.438-57.273,12.438Z" transform="translate(83.955)" fill="#fff" stroke="#ff7d2f" stroke-linecap="round" stroke-linejoin="round" stroke-width="2"/><path d="M-51.8,17.624s1.64-2.928,3.955-3.823a2.093,2.093,0,0,1,2.242,3.428C-47.121,18.562-51.8,17.624-51.8,17.624Z" transform="translate(83.955)" fill="#fff" stroke="#ff7d2f" stroke-linecap="round" stroke-linejoin="round" stroke-width="2"/><line y2="3.978" transform="translate(58.571 24.334)" stroke-width="2" stroke="#ff7d2f" stroke-linecap="round" stroke-linejoin="round" fill="#ff7d2f"/><line x2="2.595" y2="3.113" transform="translate(51.002 26.945)" stroke-width="2" stroke="#ff7d2f" stroke-linecap="round" stroke-linejoin="round" fill="#ff7d2f"/><rect width="63.955" height="63.955" fill="none"/><rect width="5.012" height="8.355" transform="translate(56.616 42.712) rotate(-142.132)" fill="#ff7d2f" opacity="0.5"/></g></svg>