<svg xmlns="http://www.w3.org/2000/svg" width="146.364" height="40" viewBox="0 0 146.364 40"><g transform="translate(-686.395 -9970.478)"><path d="M105.52,582.144a2.225,2.225,0,1,0,2.058,2.219A2.131,2.131,0,0,0,105.52,582.144Zm-7.363,0a2.225,2.225,0,1,0,2.058,2.219A2.131,2.131,0,0,0,98.157,582.144Z" transform="translate(602.236 9405.116)" fill="#7289da"/><path d="M68.065,498.944H41.035a4.141,4.141,0,0,0-4.135,4.135v27.03a4.141,4.141,0,0,0,4.135,4.135H63.91l-1.069-3.692,2.582,2.38,2.441,2.239,4.357,3.772V503.079A4.171,4.171,0,0,0,68.065,498.944Zm-7.786,26.122s-.726-.867-1.331-1.614a6.4,6.4,0,0,0,3.651-2.38,11.524,11.524,0,0,1-2.32,1.19,14.46,14.46,0,0,1-2.925.867,14.124,14.124,0,0,1-5.224-.02,15.344,15.344,0,0,1-2.965-.867,11.8,11.8,0,0,1-1.473-.686c-.061-.04-.121-.06-.182-.1-.04-.02-.061-.041-.081-.041-.363-.2-.565-.343-.565-.343a6.3,6.3,0,0,0,3.53,2.36c-.605.767-1.351,1.654-1.351,1.654-4.458-.141-6.152-3.046-6.152-3.046a26.634,26.634,0,0,1,2.9-11.659,10,10,0,0,1,5.648-2.1l.2.242a13.236,13.236,0,0,0-5.285,2.622s.444-.242,1.19-.565a15.8,15.8,0,0,1,4.579-1.271,1.984,1.984,0,0,1,.343-.04,17.056,17.056,0,0,1,4.075-.04,16.769,16.769,0,0,1,6.072,1.916,13.249,13.249,0,0,0-5.023-2.541l.282-.323a9.955,9.955,0,0,1,5.648,2.1,26.634,26.634,0,0,1,2.9,11.659,7.392,7.392,0,0,1-6.152,3.026Zm30.459-17.489h-6.7V515.1l4.458,4.014v-7.3h2.38c1.513,0,2.259.726,2.259,1.9V519.3c0,1.17-.706,1.957-2.259,1.957H84.021v4.256h6.7c3.591.02,6.959-1.775,6.959-5.89v-6.011C97.7,509.413,94.328,507.578,90.738,507.578Zm35.1,12.042v-6.173c0-2.219,3.994-2.723,5.2-.5l3.691-1.493a6.641,6.641,0,0,0-6.294-4.115c-3.591,0-7.141,2.078-7.141,6.112v6.173c0,4.074,3.55,6.112,7.06,6.112a7.2,7.2,0,0,0,6.455-4.014l-3.954-1.815c-.968,2.481-5.023,1.876-5.023-.282Zm-12.2-5.326c-1.392-.3-2.32-.807-2.38-1.674.081-2.078,3.288-2.159,5.164-.162l2.965-2.279a7.356,7.356,0,0,0-6.112-2.864c-3.288,0-6.475,1.855-6.475,5.365,0,3.409,2.622,5.245,5.507,5.689,1.473.2,3.106.786,3.066,1.8-.121,1.917-4.075,1.816-5.87-.363l-2.864,2.683a7.853,7.853,0,0,0,6.092,3.248c3.288,0,6.939-1.9,7.08-5.366.2-4.377-2.985-5.487-6.172-6.072Zm-13.515,11.2h4.518V507.578h-4.518Zm76.188-17.912h-6.7V515.1l4.458,4.014v-7.3h2.38c1.513,0,2.259.726,2.259,1.9V519.3c0,1.17-.706,1.957-2.259,1.957h-6.858v4.256h6.717c3.591.02,6.959-1.775,6.959-5.89v-6.011C183.265,509.413,179.9,507.578,176.305,507.578Zm-32.859-.242c-3.712,0-7.4,2.017-7.4,6.152V519.6c0,4.095,3.712,6.152,7.443,6.152,3.712,0,7.4-2.058,7.4-6.152v-6.112C150.889,509.373,147.158,507.336,143.446,507.336Zm2.9,12.264c0,1.291-1.452,1.957-2.885,1.957-1.452,0-2.9-.625-2.9-1.957v-6.112c0-1.311,1.412-2.017,2.824-2.017,1.473,0,2.965.625,2.965,2.017Zm20.756-6.112c-.1-4.2-2.965-5.89-6.657-5.89H153.29V525.51h4.579v-5.688h.807l4.155,5.688h5.648l-4.882-6.152C165.756,518.672,167.107,516.8,167.107,513.488Zm-6.576,2.421h-2.663v-4.095h2.663A2.049,2.049,0,1,1,160.531,515.908Z" transform="translate(649.494 9471.533)" fill="#7289da"/></g></svg>