<svg xmlns="http://www.w3.org/2000/svg" xmlns:xlink="http://www.w3.org/1999/xlink" width="100" height="100" viewBox="0 0 100 100"><defs><clipPath id="a"><rect width="100" height="100" fill="none"/></clipPath></defs><g clip-path="url(#a)"><path d="M50,35.586l-6.986-3.626-23.9,10.675,1.444,23.41,6.986,3.626-.01-22.86Z" fill="#ff7d2f"/><path d="M50,35.586l6.986-3.626,23.9,10.675-1.444,23.41-6.986,3.626.01-22.86Z" fill="#ff7d2f"/><path d="M72.459,46.811,50,35.586,27.541,46.811,50,58.036Z" fill="#ff7d2f" opacity="0.5"/><path d="M50,35.586" fill="none" stroke="#ff7d2f" stroke-linecap="round" stroke-linejoin="round" stroke-width="2"/><path d="M72.459,45.83,50,34.605,27.541,45.83" fill="none" stroke="#ff7d2f" stroke-linecap="round" stroke-linejoin="round" stroke-width="2"/><rect width="32.29" height="48.226" transform="translate(33.855 15.99)" stroke-width="2" stroke="#ff7d2f" stroke-linecap="round" stroke-linejoin="round" fill="#fff"/><rect width="32.29" height="48.226" transform="translate(33.855 15.99)" fill="#ff7d2f" opacity="0.5"/><text transform="translate(49.989 44.395)" fill="#fff" font-size="11.025" font-family="BasicGothicPro, Basic Gothic Pro"><tspan x="-10" y="0">SDK</tspan></text><circle cx="2.582" cy="2.582" r="2.582" transform="translate(48.386 22.152)" fill="none" stroke="#fff" stroke-miterlimit="10" stroke-width="2"/><line x1="3.113" y2="3.113" transform="translate(46.105 26.622)" fill="none" stroke="#fff" stroke-linecap="round" stroke-miterlimit="10" stroke-width="2"/><rect width="100" height="100" fill="none"/><path d="M72.449,69.672,49.989,84.447,27.541,69.672l-1-21.8L49.99,57.416l23.454-9.547Z" fill="#fff"/><path d="M50,80.9" fill="none" stroke="#ff7d2f" stroke-linecap="round" stroke-linejoin="round" stroke-width="4"/><path d="M27.541,46.811,50,58.036,72.459,46.811" fill="none" stroke="#ff7d2f" stroke-linecap="round" stroke-linejoin="round" stroke-width="4"/><line y2="22.86" transform="translate(50 58.036)" stroke-width="4" stroke="#ff7d2f" stroke-linecap="round" stroke-linejoin="round" fill="none"/><path d="M72.449,69.672,50,80.894,27.541,69.672v7.107L49.99,90.947,72.449,76.778Z" fill="#ff7d2f"/></g></svg>