<svg xmlns="http://www.w3.org/2000/svg" xmlns:xlink="http://www.w3.org/1999/xlink" width="64" height="64" viewBox="0 0 64 64"><defs><clipPath id="a"><rect width="64" height="64" fill="none"/></clipPath></defs><g clip-path="url(#a)"><path d="M49.769,29.2a1.983,1.983,0,0,0-2.333-1.578c-3.915.754-4.772-.079-6.064-1.344a9.437,9.437,0,0,0-5.307-2.96,5.264,5.264,0,0,1-8.788.123,9.5,9.5,0,0,0-4.732,2.837c-1.289,1.264-2.143,2.1-6.065,1.344a1.992,1.992,0,1,0-.755,3.911A17.3,17.3,0,0,0,19,31.886a8.1,8.1,0,0,0,6.335-2.762A6.354,6.354,0,0,1,27.611,27.5a2.431,2.431,0,0,0-.191.725L24.954,55.374a2.5,2.5,0,0,0,2.264,2.717c.077.007.153.01.229.01a2.5,2.5,0,0,0,2.488-2.273l1.094-12.051a3.228,3.228,0,0,0,1.289,0L33.375,55.82A2.5,2.5,0,0,0,35.862,58.1c.074,0,.148,0,.222-.01a2.5,2.5,0,0,0,2.271-2.709L35.973,28.234a2.5,2.5,0,0,0-.267-.917,5.824,5.824,0,0,1,2.878,1.808c1.988,1.949,4.082,3.48,9.607,2.41A1.991,1.991,0,0,0,49.769,29.2Z" fill="#ff7d2f"/><path d="M26.782,18.853c0,3.251,2.172,5.895,4.842,5.895s4.842-2.644,4.842-5.895-2.172-5.9-4.842-5.9S26.782,15.6,26.782,18.853Z" fill="#ff7d2f"/><rect width="2.717" height="8.463" transform="translate(15.948 27.217) rotate(-8.838)" fill="#fff"/><rect width="2.717" height="8.463" transform="translate(15.948 27.217) rotate(-8.838)" fill="#ff7d2f" opacity="0.5"/><rect width="3.777" height="8.463" transform="translate(20.457 35.081) rotate(171.162)" stroke-width="1" stroke="#ff7d2f" stroke-linecap="round" stroke-linejoin="round" fill="none"/><path d="M14.377,8.271,16.8,10.808,19.271,26.7l-3.961.616L12.839,11.424Z" fill="#fff" stroke="#ff7d2f" stroke-linecap="round" stroke-linejoin="round" stroke-width="1"/><rect width="9.321" height="3.846" transform="translate(22.183 28.141) rotate(171.162)" stroke-width="1" stroke="#ff7d2f" stroke-linecap="round" stroke-linejoin="round" fill="#fff"/><path d="M56.622,15.784c-.785,1.955-3.253,2.981-5.735,2.31a4.941,4.941,0,0,1-3.813-4.051,6.211,6.211,0,0,0-3.723,4.044,6.215,6.215,0,0,0,1.178,5.369,4.94,4.94,0,0,1,5.335-1.578c2.482.671,4.1,2.8,3.79,4.885a6.532,6.532,0,0,0,5.162-4.5A6.532,6.532,0,0,0,56.622,15.784Z" fill="#fff" stroke="#ff7d2f" stroke-linecap="round" stroke-linejoin="round" stroke-width="1"/><rect width="20.16" height="3.907" transform="translate(44.834 33.231) rotate(-74.871)" fill="#fff"/><rect width="20.16" height="3.907" transform="translate(44.834 33.231) rotate(-74.871)" fill="#ff7d2f" opacity="0.5"/><rect width="20.16" height="3.907" transform="translate(44.834 33.231) rotate(-74.871)" stroke-width="1" stroke="#ff7d2f" stroke-linecap="round" stroke-linejoin="round" fill="none"/><rect width="64" height="64" fill="none"/></g></svg>