<svg xmlns="http://www.w3.org/2000/svg" xmlns:xlink="http://www.w3.org/1999/xlink" width="375" height="667" viewBox="0 0 375 667"><defs><style>.a,.c,.e{fill:#ff7d2f;}.b{clip-path:url(#a);}.c{opacity:0.04;}.d{opacity:0.24;}.e{opacity:0.05;}</style><clipPath id="a"><rect class="a" width="375" height="667"/></clipPath></defs><g class="b"><g transform="translate(556.624 535.127)"><path class="c" d="M416.51,0a4,4,0,0,1,3.467,2.006l137.307,238.72a4,4,0,0,1,0,3.989L419.978,483.434a4,4,0,0,1-3.467,2.006H141.922a4,4,0,0,1-3.467-2.006L1.147,244.714a4,4,0,0,1,0-3.989L138.454,2.006A4,4,0,0,1,141.922,0Z" transform="translate(-732.347 -374.689) rotate(-30)"/><path class="c" d="M276.076,0a4,4,0,0,1,3.467,2.006l90.5,157.334a4,4,0,0,1,0,3.989l-90.5,157.334a4,4,0,0,1-3.467,2.006H95.11a4,4,0,0,1-3.467-2.006L1.147,163.329a4,4,0,0,1,0-3.989L91.643,2.006A4,4,0,0,1,95.11,0Z" transform="translate(-610.693 -351.351) rotate(-30)"/><g transform="translate(14)"><path class="c" d="M276.076,0a4,4,0,0,1,3.467,2.006l90.5,157.334a4,4,0,0,1,0,3.989l-90.5,157.334a4,4,0,0,1-3.467,2.006H95.11a4,4,0,0,1-3.467-2.006L1.147,163.329a4,4,0,0,1,0-3.989L91.643,2.006A4,4,0,0,1,95.11,0Z" transform="translate(-797.693 40.649) rotate(-30)"/><path class="c" d="M276.076,0a4,4,0,0,1,3.467,2.006l90.5,157.334a4,4,0,0,1,0,3.989l-90.5,157.334a4,4,0,0,1-3.467,2.006H95.11a4,4,0,0,1-3.467-2.006L1.147,163.329a4,4,0,0,1,0-3.989L91.643,2.006A4,4,0,0,1,95.11,0Z" transform="translate(-450.693 40.649) rotate(-30)"/></g><g class="d" transform="translate(-287.232 -226.451) rotate(180)"><g transform="translate(62.783 0)"><g transform="translate(20.928 36.28)"><g transform="translate(0.809 0)"><path class="a" d="M19.545,8.328l-5,2.888,5,2.885v7.87a.458.458,0,0,1-.687.4L.229,11.612a.458.458,0,0,1,0-.793L18.859.062a.458.458,0,0,1,.687.4Z"/></g><g transform="translate(20.947 0)"><path class="a" d="M19.317,11.61.687,22.367a.458.458,0,0,1-.687-.4V14.1l5-2.887L0,8.328V.458a.458.458,0,0,1,.687-.4l18.63,10.755A.458.458,0,0,1,19.317,11.61Z"/></g><g transform="translate(0.754 24.135)"><path class="a" d="M7.044,6.884l5,2.888V4L18.859.062a.458.458,0,0,1,.687.4V21.972a.458.458,0,0,1-.687.4L.229,11.611a.457.457,0,0,1,0-.793Z"/></g><g transform="translate(0 12.073)"><path class="a" d="M.687.062l18.63,10.757a.457.457,0,0,1,0,.793L12.5,15.547l-5-2.888v5.775L.687,22.369a.458.458,0,0,1-.687-.4V.459A.458.458,0,0,1,.687.062Z"/></g><g transform="translate(21.682 12.114)"><path class="a" d="M12.044,18.434V12.659l-5,2.888L.229,11.612a.458.458,0,0,1,0-.793L18.858.062a.457.457,0,0,1,.687.4V21.972a.458.458,0,0,1-.687.4Z"/></g><g transform="translate(20.929 24.177)"><path class="a" d="M0,21.973V.459a.458.458,0,0,1,.687-.4L7.5,4V9.772l5-2.888,6.815,3.935a.459.459,0,0,1,0,.794L.687,22.369A.458.458,0,0,1,0,21.973Z"/></g></g><g transform="translate(0.809 0)"><path class="a" d="M19.546,8.328l-5,2.888,5,2.886v7.87a.458.458,0,0,1-.687.4L.229,11.612a.458.458,0,0,1,0-.793L18.859.062a.458.458,0,0,1,.687.4Z"/></g><g transform="translate(20.947 0)"><path class="a" d="M19.317,11.611.687,22.368a.458.458,0,0,1-.687-.4V14.1l5-2.888L0,8.328V.459a.458.458,0,0,1,.687-.4l18.63,10.756A.458.458,0,0,1,19.317,11.611Z"/></g><g transform="translate(0.755 24.135)"><path class="a" d="M7.043,6.884l5,2.888V4L18.858.062a.458.458,0,0,1,.687.4V21.971a.458.458,0,0,1-.687.4L.229,11.611a.458.458,0,0,1,0-.793Z"/></g><g transform="translate(0 12.073)"><path class="a" d="M.687.062,19.317,10.819a.458.458,0,0,1,0,.793L12.5,15.546l-5-2.888v5.775L.688,22.368a.458.458,0,0,1-.687-.4V.459A.458.458,0,0,1,.687.062Z"/></g><g transform="translate(21.682 12.115)"><path class="a" d="M12.044,18.434V12.659l-5,2.888L.229,11.612a.458.458,0,0,1,0-.793L18.858.062a.458.458,0,0,1,.687.4V21.973a.458.458,0,0,1-.687.4Z"/></g><g transform="translate(20.929 24.178)"><path class="a" d="M0,21.972V.458a.458.458,0,0,1,.687-.4L7.5,4V9.772l5-2.888,6.815,3.935a.457.457,0,0,1,0,.793L.687,22.369A.458.458,0,0,1,0,21.972Z"/></g><g transform="translate(41.856 0)"><g transform="translate(0.809 0)"><path class="a" d="M19.546,8.328l-5,2.888,5,2.886v7.87a.458.458,0,0,1-.687.4L.229,11.612a.458.458,0,0,1,0-.793L18.859.062a.458.458,0,0,1,.687.4Z"/></g><g transform="translate(20.947 0)"><path class="a" d="M19.317,11.611.687,22.368a.458.458,0,0,1-.687-.4V14.1l5-2.888L0,8.328V.459a.458.458,0,0,1,.687-.4l18.63,10.756A.458.458,0,0,1,19.317,11.611Z"/></g><g transform="translate(0.755 24.135)"><path class="a" d="M7.043,6.884l5,2.888V4L18.858.062a.458.458,0,0,1,.687.4V21.971a.458.458,0,0,1-.687.4L.229,11.611a.458.458,0,0,1,0-.793Z"/></g><g transform="translate(0 12.073)"><path class="a" d="M.687.062,19.317,10.819a.458.458,0,0,1,0,.793L12.5,15.546l-5-2.888v5.775L.688,22.368a.458.458,0,0,1-.687-.4V.459A.458.458,0,0,1,.687.062Z"/></g><g transform="translate(21.682 12.115)"><path class="a" d="M12.043,18.434V12.659l-5,2.888L.229,11.612a.458.458,0,0,1,0-.793L18.858.062a.458.458,0,0,1,.687.4V21.973a.458.458,0,0,1-.687.4Z"/></g><g transform="translate(20.929 24.178)"><path class="a" d="M0,21.972V.458a.458.458,0,0,1,.687-.4L7.5,4V9.772l5-2.888,6.815,3.935a.457.457,0,0,1,0,.793L.687,22.369A.458.458,0,0,1,0,21.972Z"/></g></g></g><g transform="translate(0 36.28)"><g transform="translate(20.928 36.28)"><g transform="translate(0.81 0)"><path class="a" d="M19.546,8.328l-5,2.888,5,2.886v7.869a.458.458,0,0,1-.687.4L.229,11.612a.458.458,0,0,1,0-.794L18.859.062a.458.458,0,0,1,.687.4Z"/></g><g transform="translate(20.947 0)"><path class="a" d="M19.316,11.611.687,22.368a.458.458,0,0,1-.687-.4V14.1l5-2.888L0,8.328V.459a.458.458,0,0,1,.687-.4l18.63,10.756A.458.458,0,0,1,19.316,11.611Z"/></g><g transform="translate(0.755 24.135)"><path class="a" d="M7.044,6.884l5,2.888V4L18.858.062a.458.458,0,0,1,.687.4V21.972a.458.458,0,0,1-.687.4L.229,11.612a.458.458,0,0,1,0-.793Z"/></g><g transform="translate(0 12.073)"><path class="a" d="M.687.062l18.63,10.757a.458.458,0,0,1,0,.793L12.5,15.546l-5-2.888v5.775L.688,22.368a.458.458,0,0,1-.687-.4V.458A.458.458,0,0,1,.687.062Z"/></g><g transform="translate(21.683 12.115)"><path class="a" d="M12.044,18.434V12.659l-5,2.888L.229,11.612a.458.458,0,0,1,0-.793L18.858.062a.458.458,0,0,1,.687.4V21.973a.458.458,0,0,1-.687.4Z"/></g><g transform="translate(20.929 24.178)"><path class="a" d="M0,21.972V.458a.458.458,0,0,1,.687-.4L7.5,4V9.772l5-2.888,6.815,3.935a.458.458,0,0,1,0,.793L.687,22.369A.458.458,0,0,1,0,21.972Z"/></g></g><g transform="translate(0.809 0)"><path class="a" d="M19.546,8.328l-5,2.888,5,2.885v7.87a.458.458,0,0,1-.687.4L.229,11.612a.458.458,0,0,1,0-.793L18.859.062a.458.458,0,0,1,.687.4Z"/></g><g transform="translate(20.947 0)"><path class="a" d="M19.317,11.61.687,22.367a.458.458,0,0,1-.687-.4V14.1l5-2.887L0,8.328V.458a.458.458,0,0,1,.687-.4L19.317,10.817A.458.458,0,0,1,19.317,11.61Z"/></g><g transform="translate(0.755 24.135)"><path class="a" d="M7.043,6.884l5,2.888V4L18.858.062a.458.458,0,0,1,.687.4V21.972a.458.458,0,0,1-.687.4L.229,11.611a.458.458,0,0,1,0-.793Z"/></g><g transform="translate(0 12.073)"><path class="a" d="M.687.062,19.317,10.819a.458.458,0,0,1,0,.793L12.5,15.547l-5-2.888v5.775L.688,22.369a.458.458,0,0,1-.687-.4V.459A.458.458,0,0,1,.687.062Z"/></g><g transform="translate(21.682 12.114)"><path class="a" d="M12.044,18.434V12.659l-5,2.888L.229,11.612a.458.458,0,0,1,0-.793L18.858.062a.457.457,0,0,1,.687.4V21.972a.458.458,0,0,1-.687.4Z"/></g><g transform="translate(20.929 24.177)"><path class="a" d="M0,21.973V.459a.458.458,0,0,1,.687-.4L7.5,4V9.772l5-2.888,6.815,3.935a.459.459,0,0,1,0,.794L.687,22.369A.458.458,0,0,1,0,21.973Z"/></g><g transform="translate(41.856 0)"><g transform="translate(0.809 0)"><path class="a" d="M19.546,8.328l-5,2.888,5,2.885v7.87a.458.458,0,0,1-.687.4L.229,11.612a.458.458,0,0,1,0-.793L18.859.062a.458.458,0,0,1,.687.4Z"/></g><g transform="translate(20.947 0)"><path class="a" d="M19.317,11.61.687,22.367a.458.458,0,0,1-.687-.4V14.1l5-2.887L0,8.328V.458a.458.458,0,0,1,.687-.4L19.317,10.817A.458.458,0,0,1,19.317,11.61Z"/></g><g transform="translate(0.755 24.135)"><path class="a" d="M7.043,6.884l5,2.888V4L18.858.062a.458.458,0,0,1,.687.4V21.972a.458.458,0,0,1-.687.4L.229,11.611a.458.458,0,0,1,0-.793Z"/></g><g transform="translate(0 12.073)"><path class="a" d="M.687.062,19.317,10.819a.458.458,0,0,1,0,.793L12.5,15.547l-5-2.888v5.775L.688,22.369a.458.458,0,0,1-.687-.4V.459A.458.458,0,0,1,.687.062Z"/></g><g transform="translate(21.682 12.114)"><path class="a" d="M12.044,18.434V12.659l-5,2.888L.229,11.612a.458.458,0,0,1,0-.793L18.858.062a.458.458,0,0,1,.687.4V21.972a.458.458,0,0,1-.687.4Z"/></g><g transform="translate(20.929 24.177)"><path class="a" d="M0,21.973V.459a.458.458,0,0,1,.687-.4L7.5,4V9.772l5-2.888,6.815,3.935a.458.458,0,0,1,0,.794L.687,22.369A.458.458,0,0,1,0,21.973Z"/></g></g></g><g transform="translate(62.783 72.56)"><g transform="translate(20.928 36.28)"><g transform="translate(0.809 0)"><path class="a" d="M19.545,8.328l-5,2.887,5,2.886v7.87a.458.458,0,0,1-.687.4L.229,11.612a.458.458,0,0,1,0-.793L18.859.062a.458.458,0,0,1,.687.4Z"/></g><g transform="translate(20.947 0)"><path class="a" d="M19.317,11.611.687,22.368a.458.458,0,0,1-.687-.4V14.1l5-2.888L0,8.328V.458a.457.457,0,0,1,.687-.4l18.63,10.755A.458.458,0,0,1,19.317,11.611Z"/></g><g transform="translate(0.754 24.135)"><path class="a" d="M7.044,6.884l5,2.888V4L18.859.062a.458.458,0,0,1,.687.4V21.972a.458.458,0,0,1-.687.4L.229,11.611a.457.457,0,0,1,0-.793Z"/></g><g transform="translate(0 12.073)"><path class="a" d="M.687.062l18.63,10.757a.457.457,0,0,1,0,.793L12.5,15.546l-5-2.888v5.775L.687,22.369a.458.458,0,0,1-.687-.4V.459A.458.458,0,0,1,.687.062Z"/></g><g transform="translate(21.682 12.114)"><path class="a" d="M12.044,18.434V12.659l-5,2.889L.229,11.612a.458.458,0,0,1,0-.793L18.858.062a.458.458,0,0,1,.687.4V21.973a.458.458,0,0,1-.687.4Z"/></g><g transform="translate(20.929 24.178)"><path class="a" d="M0,21.973V.459a.458.458,0,0,1,.687-.4L7.5,4V9.772l5-2.888,6.815,3.935a.458.458,0,0,1,0,.793L.687,22.369A.458.458,0,0,1,0,21.973Z"/></g></g><g transform="translate(0.809 0)"><path class="a" d="M19.546,8.328l-5,2.888,5,2.886v7.869a.458.458,0,0,1-.687.4L.229,11.612a.459.459,0,0,1,0-.794L18.859.062a.458.458,0,0,1,.687.4Z"/></g><g transform="translate(20.947 0)"><path class="a" d="M19.317,11.611.687,22.368a.458.458,0,0,1-.687-.4V14.1l5-2.888L0,8.328V.459a.458.458,0,0,1,.687-.4l18.63,10.756A.458.458,0,0,1,19.317,11.611Z"/></g><g transform="translate(0.755 24.135)"><path class="a" d="M7.043,6.884l5,2.888V4L18.858.062a.458.458,0,0,1,.687.4V21.972a.458.458,0,0,1-.687.4L.229,11.612a.458.458,0,0,1,0-.793Z"/></g><g transform="translate(0 12.073)"><path class="a" d="M.687.062,19.317,10.819a.458.458,0,0,1,0,.793L12.5,15.546l-5-2.888v5.775L.688,22.368a.458.458,0,0,1-.687-.4V.458A.458.458,0,0,1,.687.062Z"/></g><g transform="translate(21.682 12.115)"><path class="a" d="M12.044,18.434V12.659l-5,2.888L.229,11.612a.458.458,0,0,1,0-.793L18.858.062a.458.458,0,0,1,.687.4V21.973a.458.458,0,0,1-.687.4Z"/></g><g transform="translate(20.929 24.178)"><path class="a" d="M0,21.972V.458a.458.458,0,0,1,.687-.4L7.5,4V9.772l5-2.888,6.815,3.935a.457.457,0,0,1,0,.793L.687,22.369A.458.458,0,0,1,0,21.972Z"/></g><g transform="translate(41.856 0)"><g transform="translate(0.809 0)"><path class="a" d="M19.546,8.328l-5,2.888,5,2.886v7.869a.458.458,0,0,1-.687.4L.229,11.612a.459.459,0,0,1,0-.794L18.859.062a.458.458,0,0,1,.687.4Z"/></g><g transform="translate(20.947 0)"><path class="a" d="M19.317,11.611.687,22.368a.458.458,0,0,1-.687-.4V14.1l5-2.888L0,8.328V.459a.458.458,0,0,1,.687-.4l18.63,10.756A.458.458,0,0,1,19.317,11.611Z"/></g><g transform="translate(0.755 24.135)"><path class="a" d="M7.043,6.884l5,2.888V4L18.858.062a.458.458,0,0,1,.687.4V21.972a.458.458,0,0,1-.687.4L.229,11.612a.458.458,0,0,1,0-.793Z"/></g><g transform="translate(0 12.073)"><path class="a" d="M.687.062,19.317,10.819a.458.458,0,0,1,0,.793L12.5,15.546l-5-2.888v5.775L.688,22.368a.458.458,0,0,1-.687-.4V.458A.458.458,0,0,1,.687.062Z"/></g><g transform="translate(21.682 12.115)"><path class="a" d="M12.043,18.434V12.659l-5,2.888L.229,11.612a.458.458,0,0,1,0-.793L18.858.062a.458.458,0,0,1,.687.4V21.973a.458.458,0,0,1-.687.4Z"/></g><g transform="translate(20.929 24.178)"><path class="a" d="M0,21.972V.458a.458.458,0,0,1,.687-.4L7.5,4V9.772l5-2.888,6.815,3.935a.457.457,0,0,1,0,.793L.687,22.369A.458.458,0,0,1,0,21.972Z"/></g></g></g></g></g></g><rect class="e" width="375" height="667"/></svg>