<svg xmlns="http://www.w3.org/2000/svg" xmlns:xlink="http://www.w3.org/1999/xlink" width="100" height="100" viewBox="0 0 100 100"><defs><clipPath id="a"><rect width="100" height="100" fill="none"/></clipPath></defs><g clip-path="url(#a)"><circle cx="9.609" cy="9.609" r="9.609" transform="translate(53.42 40.937)" fill="none" stroke="#ff7d2f" stroke-linecap="round" stroke-linejoin="round" stroke-width="2"/><circle cx="9.609" cy="9.609" r="9.609" transform="translate(37.303 42.637)" fill="none" stroke="#ff7d2f" stroke-linecap="round" stroke-linejoin="round" stroke-width="2"/><circle cx="9.609" cy="9.609" r="9.609" transform="translate(53.42 40.937)" fill="#ff7d2f" opacity="0.5"/><circle cx="9.609" cy="9.609" r="9.609" transform="translate(37.304 42.637)" fill="#ff7d2f" opacity="0.5"/><g transform="translate(-120)"><path d="M214.139,25.837a9.047,9.047,0,0,1-16.658-6.08,14.565,14.565,0,0,0-9.27,19.184,9.047,9.047,0,0,1,15.115,9.274,14.584,14.584,0,0,0,10.813-22.378Z" fill="#fff" stroke="#ff7d2f" stroke-linecap="round" stroke-linejoin="round" stroke-width="2"/><rect width="52.332" height="7.572" transform="translate(180.777 64.549) rotate(-64.208)" fill="#fff"/><rect width="52.332" height="7.572" transform="translate(180.777 64.549) rotate(-64.208)" fill="#ff7d2f" opacity="0.5"/><rect width="52.332" height="7.572" transform="translate(180.777 64.549) rotate(-64.208)" stroke-width="2" stroke="#ff7d2f" stroke-linecap="round" stroke-linejoin="round" fill="none"/></g><g transform="translate(-120)"><rect width="9.617" height="27.683" transform="translate(169.076 37.924) rotate(-7.063)" stroke-width="2" stroke="#ff7d2f" stroke-linecap="round" stroke-linejoin="round" fill="#fff"/><path d="M176.4,30.541l-1.265-10.213-6.69.829,1.265,10.213-6.155.763.79,6.378,6.155-.763,6.69-.829,6.154-.762-.79-6.378Z" fill="none" stroke="#ff7d2f" stroke-linecap="round" stroke-linejoin="round" stroke-width="2"/><path d="M176.4,30.541l-1.265-10.213-6.69.829,1.265,10.213-6.155.763.79,6.378,6.155-.763,6.69-.829,6.154-.762-.79-6.378Z" fill="#ff7d2f" opacity="0.5"/></g><path d="M167.63,86.627h23.635l5.274-36.182-39.5-.68Z" transform="translate(-120)" fill="#fff" stroke="#ff7d2f" stroke-linecap="round" stroke-linejoin="round" stroke-width="2"/><circle cx="12" cy="12" r="12" transform="translate(10.602 13.59)" fill="#ff7d2f"/><path d="M153.63,49.765s8.754,18.365,39.4,22.907" transform="translate(-120)" fill="none" stroke="#ff7d2f" stroke-linecap="round" stroke-linejoin="round" stroke-width="10"/><path d="M141.482,92.118H169.9S159.515,55.1,155.946,47.273c-3.489-7.648-15.526-5.182-17.992,6.092S141.482,92.118,141.482,92.118Z" transform="translate(-120)" fill="#ff7d2f" stroke="#ff7d2f" stroke-linecap="round" stroke-linejoin="round" stroke-width="4"/><rect width="100" height="100" fill="none"/></g></svg>