<svg xmlns="http://www.w3.org/2000/svg" xmlns:xlink="http://www.w3.org/1999/xlink" width="100" height="100" viewBox="0 0 100 100"><defs><clipPath id="a"><rect width="100" height="100" fill="none"/></clipPath></defs><g clip-path="url(#a)"><path d="M52.217,52.076c-.935-.85-1.594-2.621-2.291-4.5-1.4-3.778-3.267-8.743-9.046-11.287a8.4,8.4,0,0,1-5.511,2.134,8.566,8.566,0,0,1-6.191-2.779c-6.442,1.649-8.242,7.444-9.6,11.866-.831,2.708-1.615,5.266-3.141,6.489a1.992,1.992,0,1,0,2.49,3.109c2.484-1.991,3.488-5.264,4.459-8.43,1.134-3.7,2.167-7.02,5.2-8.58a6.937,6.937,0,0,0-.6,2.828v2.2L24.408,84.492a3.983,3.983,0,0,0,3.607,4.327c.123.012.244.017.365.017a3.984,3.984,0,0,0,3.962-3.623l1.573-17.322a6.979,6.979,0,0,0,1.039.086,6.906,6.906,0,0,0,1.092-.094L37.565,85.2a3.984,3.984,0,0,0,3.963,3.635c.118,0,.235,0,.354-.016A3.982,3.982,0,0,0,45.5,84.5L41.925,43.753v-.824a6.972,6.972,0,0,0-.153-1.447c2.368,1.993,3.41,4.767,4.42,7.485.871,2.342,1.694,4.555,3.345,6.056a1.992,1.992,0,1,0,2.68-2.947Z" fill="#ff7d2f"/><path d="M35.369,36.426c4.051,0,7.346-4.034,7.346-8.993s-3.3-8.992-7.346-8.992-7.347,4.034-7.347,8.992S31.318,36.426,35.369,36.426Z" fill="#ff7d2f"/><circle cx="4.022" cy="4.022" r="4.022" transform="translate(12.209 54.284)" fill="#fff"/><line x1="3.466" y2="7.434" transform="translate(11.806 60.363)" stroke-width="2" stroke="#fff" stroke-linecap="round" stroke-linejoin="round" fill="none"/><line x1="1.977" y1="0.922" transform="translate(12.393 66.537)" stroke-width="2" stroke="#fff" stroke-linecap="round" stroke-linejoin="round" fill="none"/><line x1="1.977" y1="0.922" transform="translate(13.685 63.768)" stroke-width="2" stroke="#fff" stroke-linecap="round" stroke-linejoin="round" fill="none"/><circle cx="1.244" cy="1.244" r="1.244" transform="translate(14.987 57.062)" fill="#fff"/><g opacity="0.5"><line x1="3.466" y2="7.434" transform="translate(11.806 60.363)" stroke-width="2" stroke="#ff7d2f" stroke-linecap="round" stroke-linejoin="round" fill="none"/><line x1="1.977" y1="0.922" transform="translate(12.393 66.537)" stroke-width="2" stroke="#ff7d2f" stroke-linecap="round" stroke-linejoin="round" fill="none"/><line x1="1.977" y1="0.922" transform="translate(13.685 63.768)" stroke-width="2" stroke="#ff7d2f" stroke-linecap="round" stroke-linejoin="round" fill="none"/><path d="M17.931,54.66a4.022,4.022,0,1,0,1.945,5.345A4.023,4.023,0,0,0,17.931,54.66Zm-.572,4.172a1.244,1.244,0,1,1-.6-1.654A1.246,1.246,0,0,1,17.359,58.832Z" fill="#ff7d2f"/></g><rect width="32.884" height="32.884" transform="translate(58.667 51.968)" stroke-width="2" stroke="#ff7d2f" stroke-linecap="round" stroke-linejoin="round" fill="#fff"/><rect width="23.236" height="23.236" transform="translate(63.49 56.792)" stroke-width="1" stroke="#ff7d2f" stroke-linecap="round" stroke-linejoin="round" fill="none"/><rect width="23.236" height="23.236" transform="translate(63.49 56.792)" fill="#ff7d2f" opacity="0.5"/><rect width="2.635" height="2.635" transform="translate(62.173 62.481)" stroke-width="2" stroke="#ff7d2f" stroke-linecap="round" stroke-linejoin="round" fill="#ff7d2f"/><rect width="2.635" height="2.635" transform="translate(62.173 71.704)" stroke-width="2" stroke="#ff7d2f" stroke-linecap="round" stroke-linejoin="round" fill="#ff7d2f"/><circle cx="4.767" cy="4.767" r="4.767" transform="translate(70.341 63.03)" fill="none" stroke="#fff" stroke-linecap="round" stroke-linejoin="round" stroke-width="1"/><circle cx="7.298" cy="7.298" r="7.298" transform="translate(67.811 60.499)" fill="none" stroke="#fff" stroke-linecap="round" stroke-linejoin="round" stroke-width="1"/><rect width="100" height="100" fill="none"/></g></svg>