<svg xmlns="http://www.w3.org/2000/svg" width="560" height="556" viewBox="0 0 560 556"><defs><style>.a{fill:#ffc600;}.b{fill:#ff7d2f;}.c{fill:#f2f2f2;}.d,.f{fill:#3f3d56;}.e{fill:#f1f1f1;}.f,.i{stroke:#3f3d56;}.f,.g,.i{stroke-miterlimit:10;stroke-width:2px;}.g,.i,.n{fill:none;}.g{stroke:#fff;}.h{opacity:0.2;}.j{fill:#2f2e41;}.k{fill:#e5a6a6;}.l{fill:#ffb9b9;}.m{opacity:0.1;}</style></defs><g transform="translate(17.025 58)"><g transform="translate(251.104 -57.736)"><circle class="a" cx="24.198" cy="24.198" r="24.198" transform="translate(227.725 26.482)"/><path class="b" d="M864.3,103.886c3.016,7.4,10.692,11.257,10.692,11.257s2.786-8.128-.23-15.524-10.692-11.257-10.692-11.257S861.28,96.491,864.3,103.886Z" transform="translate(-627.168 -86.761)"/><path class="a" d="M846.007,120.124c6.363,4.826,8.108,13.24,8.108,13.24s-8.572.588-14.936-4.238-8.108-13.24-8.108-13.24S839.643,115.3,846.007,120.124Z" transform="translate(-606.041 -105.019)"/><path class="b" d="M899.833,99.564c-2.955,7.42-.1,15.525-.1,15.525s7.644-3.925,10.6-11.344.1-15.525.1-15.525S902.788,92.145,899.833,99.564Z" transform="translate(-650.804 -86.666)"/><path class="a" d="M890.267,97.006c1.238,7.89-3.339,15.162-3.339,15.162s-6.584-5.521-7.822-13.411,3.34-15.162,3.34-15.162S889.029,89.116,890.267,97.006Z" transform="translate(-637.791 -83.595)"/><circle class="c" cx="12.435" cy="12.435" r="12.435" transform="translate(238.157 35.7)"/><circle class="d" cx="4.033" cy="4.033" r="4.033" transform="translate(241.336 40.635)"/></g><circle class="e" cx="11.057" cy="11.057" r="11.057" transform="translate(86.664 5.91)"/><circle class="e" cx="6.975" cy="6.975" r="6.975" transform="translate(141.702 33.971)"/><circle class="e" cx="4.981" cy="4.981" r="4.981" transform="translate(190.903 56.946)"/><circle class="e" cx="11.057" cy="11.057" r="11.057" transform="translate(419.158 5.91)"/><circle class="e" cx="6.975" cy="6.975" r="6.975" transform="translate(372.285 33.971)"/><circle class="e" cx="4.981" cy="4.981" r="4.981" transform="translate(327.071 56.946)"/><ellipse class="e" cx="59.198" cy="10.744" rx="59.198" ry="10.744" transform="translate(209.859 377.411)"/><path class="e" d="M531.606,403.926l-400.095-2.7,4.038-274.184,400.1,5.892Z" transform="translate(-51.958 -49.215)"/><path class="f" d="M735.86,2.447,539.446,81.768v270.7l196.414,83.1Z" transform="translate(-211.236 -0.565)"/><line class="g" x2="141.015" y2="32.736" transform="translate(344.578 293.985)"/><line class="g" x2="141.015" y2="21.404" transform="translate(344.578 272.581)"/><line class="g" x2="141.015" y2="15.108" transform="translate(344.578 249.918)"/><path class="b" d="M696.139,283.285V316.02l-113.316-7.554V283.285Z" transform="translate(-228.172 -110.218)"/><path class="h" d="M696.139,283.285V316.02l-113.316-7.554v-1.259l110.8,6.3V283.285Z" transform="translate(-228.172 -110.218)"/><path class="f" d="M1,2.447,197.414,81.768v270.7L1,435.565Z" transform="translate(-1 -0.565)"/><line class="g" x1="141.015" y2="32.736" transform="translate(39.031 293.985)"/><line class="g" x1="141.015" y2="21.404" transform="translate(39.031 272.581)"/><line class="g" x1="141.015" y2="15.108" transform="translate(39.031 249.918)"/><path class="b" d="M93.95,283.285V316.02l113.316-7.554V283.285Z" transform="translate(-37.292 -110.218)"/><path class="h" d="M93.95,283.285V316.02l113.316-7.554v-1.259l-110.8,6.3V283.285Z" transform="translate(-37.292 -110.218)"/><line class="i" x2="98.509" y2="1.212" transform="translate(214.714 103.12)"/><path class="d" d="M356.38,170.408l.843-.883-4.353-4.146,4.453-4.039-.82-.9-5.423,4.92Z" transform="translate(-137.689 -62.252)"/><path class="d" d="M507.606,172.233l-.82-.9,4.453-4.037-4.352-4.147.842-.882,5.3,5.051Z" transform="translate(-198.484 -62.965)"/><circle class="d" cx="8.243" cy="8.243" r="8.243" transform="translate(255.726 95.483)"/><path class="j" d="M178.7,400.109s-4.1-1.211-4.975.107,1.2,10.873,1.2,10.873l9.027.549-3.15-7.955Z" transform="translate(96.767 -191.097)"/><path class="k" d="M104.649,579.347s8.213,18.031,1.888,17.465-8.78-17.465-8.78-17.465Z" transform="translate(139.237 -291.874)"/><path class="k" d="M234.342,572.942s-3.6,19.484,2.4,17.4,4.29-19.071,4.29-19.071Z" transform="translate(63.261 -287.348)"/><path class="l" d="M158.7,386.25s-.094,9.063,3.4,9.535-1.982,5.287-1.982,5.287l-6.231,1.227-8.969-.661-3.965-5.1s6.986-3.3,3.965-13.594Z" transform="translate(115.021 -181.759)"/><path class="m" d="M158.7,386.25s-.094,9.063,3.4,9.535-1.982,5.287-1.982,5.287l-6.231,1.227-8.969-.661-3.965-5.1s6.986-3.3,3.965-13.594Z" transform="translate(115.021 -181.759)"/><path class="j" d="M166.151,564.928s4.437,9.535.944,39.461c0,0,1.038,10.573.189,12.556s-7.836,28.888-7.836,28.888-8.968,1.982-10.2-3.965c0,0,1.227-8.5,1.133-9.818s1.983-15.766,1.983-15.766l-4.248-27.944-3.21,25.206s0,7.269-1.038,8.874,0,33.891,0,33.891,2.927,4.909-1.51,5-8.4-.094-8.78-3.21-.566-6.231-1.51-8.119-2.171-23.507-1.888-31.059-6.231-46.353-4.154-50.413S166.151,564.928,166.151,564.928Z" transform="translate(123.616 -283.781)"/><ellipse class="l" cx="11.329" cy="11.329" rx="11.329" ry="11.329" transform="translate(257.575 185.232)"/><path class="c" d="M137.132,410.221s6.892,5.1,16.9,1.038c0,0,3.3-1.6,3.021-4.059s6.892,19.731,6.892,19.731l7.269,38.612-.378,15.766s-3.21-1.6-13.217,1.982-26.339-4.059-26.339-4.059l.566-40.5.566-23.6,1.51-5.192S134.678,408.521,137.132,410.221Z" transform="translate(120.443 -195.251)"/><path class="j" d="M182.063,399.882s1.668-.271,3.273,2.278,5.381,4.154,5.381,4.154,9.157.566,10.479,5.475,4.626,11.612,6.231,23.979,4.815,32.1,5.287,33.7-.661,6.514.661,8.024-9.346,1.51-9.346,1.51-.944-7.741-1.6-7.741-.472,5.192.189,8.968-4.815,0-4.815,0-4.248-17.276-8.308-32.853-6.419-24.168-5.664-27.661,2.832-13.5,1.322-14.444S182.063,399.882,182.063,399.882Z" transform="translate(91.97 -191.25)"/><path class="j" d="M116.584,399.874a102.831,102.831,0,0,0-8.7,5.779c-6.231,4.437-10.479,7.836-10.479,7.836s-2.455,1.888-3.965,13.122-4.909,40.311-3.588,43.993,1.794,5.853,1.322,8.024,9.912,2.077,10.1,1.6-.283-9.063.189-9.252,3.021,5.1,3.493,9.535,5.947,7.93,7.175,7.93,7.552-25.584,7.647-43.049-2.077-32.192-3.682-34.269S116.584,399.874,116.584,399.874Z" transform="translate(143.836 -191.25)"/><path class="d" d="M178.149,737.49a2.661,2.661,0,0,1,3.4-1.416c2.643.661,4.437-1.7,4.437-1.7s1.416-.189.472,1.6-1.7,3.021-1.7,3.021,5.664,12.933,1.983,16.049a7.894,7.894,0,0,1-7.93,1.227s-4.154-2.927-3.965-10.668a17.247,17.247,0,0,0-2.455-6.42c-2.266-3.965-3.965-10.007-1.227-11.14a14.829,14.829,0,0,1,3.442-1.175s-1.281,5.859,2.028,7.907Z" transform="translate(98.874 -374.588)"/><path class="d" d="M145.388,777.883s-2.266-4.248,1.51-4.72,7.836-.755,7.647,1.227-.661,5-.661,5l.661,2.171s.189,5.381.85,6.042,4.248,6.325-3.4,6.325-9.912-.85-9.252-2.643.85-10.668.85-10.668Z" transform="translate(114.076 -400.347)"/><path class="j" d="M142.423,340.878s5.287,1.416,8.024,1.982,2.455-1.038,2.455-1.038,3.587.472,3.4.094,1.51-2.36-.472-4.626-1.416-3.965-1.416-3.965h-1.7l-.472-.661H149.6s-1.983-.755-7.175,0-12.273.944-12.839,4.059-3.493,6.986-2.455,8.78,6.986,9.157,7.552,12.273,3.211,3.808,3.116,1.857-2.738-8.748-.473-9.031S143.461,344.56,142.423,340.878Z" transform="translate(122.894 -153.381)"/><ellipse class="a" cx="6.89" cy="5.377" rx="6.89" ry="5.377" transform="translate(517.616 -0.978)"/><g transform="translate(62.104 241.264)"><ellipse class="c" cx="33.272" cy="4.009" rx="33.272" ry="4.009" transform="translate(123 186.265)"/><path class="d" d="M1001.894,649.265a7.394,7.394,0,1,1,7.394-7.394A7.394,7.394,0,0,1,1001.894,649.265Zm0-14.115a6.722,6.722,0,1,0,6.722,6.722,6.722,6.722,0,0,0-6.722-6.722Z" transform="translate(-714.545 -449.337)"/><path class="d" d="M413.894,422.265a7.394,7.394,0,1,1,7.394-7.394A7.394,7.394,0,0,1,413.894,422.265Zm0-14.115a6.722,6.722,0,1,0,6.722,6.722A6.722,6.722,0,0,0,413.894,408.149Z" transform="translate(-324.16 -298.627)"/><circle class="a" cx="24.198" cy="24.198" r="24.198" transform="translate(-24.826 180.871)"/><path class="d" d="M264.4,549.439c4.825,6.365,13.237,8.112,13.237,8.112s.591-8.572-4.234-14.937-13.237-8.112-13.237-8.112S259.573,543.074,264.4,549.439Z" transform="translate(-287.99 -372.961)"/><path class="a" d="M248.745,568.18c7.394,3.018,11.254,10.7,11.254,10.7s-8.129,2.783-15.524-.235-11.254-10.695-11.254-10.695S241.35,565.162,248.745,568.18Z" transform="translate(-270.117 -394.388)"/><path class="b" d="M303.531,530.584c-.938,7.931,3.912,15.024,3.912,15.024s6.37-5.766,7.308-13.7-3.912-15.024-3.912-15.024S304.469,522.653,303.531,530.584Z" transform="translate(-316.717 -361.266)"/><path class="a" d="M290.418,534.867c3.235,7.3.692,15.51.692,15.51s-7.787-3.632-11.022-10.934-.692-15.51-.692-15.51S287.184,527.565,290.418,534.867Z" transform="translate(-300.143 -365.944)"/><circle class="c" cx="12.435" cy="12.435" r="12.435" transform="translate(-22.4 193.881)"/><circle class="d" cx="4.033" cy="4.033" r="4.033" transform="translate(-18.715 206.229)"/><circle class="a" cx="24.198" cy="24.198" r="24.198" transform="translate(131.408 143.598)"/><path class="b" d="M591.82,495.5c2.086,7.71,9.229,12.484,9.229,12.484s3.762-7.725,1.677-15.435-9.229-12.484-9.229-12.484S589.734,487.788,591.82,495.5Z" transform="translate(-446.779 -362.818)"/><path class="a" d="M573.928,509.127c5.723,5.571,6.422,14.135,6.422,14.135s-8.58-.468-14.3-6.039-6.422-14.135-6.422-14.135S568.2,503.556,573.928,509.127Z" transform="translate(-425.823 -378.105)"/><path class="b" d="M624.922,498.181c-3.844,7-2.008,15.395-2.008,15.395s8.068-2.957,11.911-9.958,2.008-15.395,2.008-15.395S628.766,491.18,624.922,498.181Z" transform="translate(-467.551 -368.236)"/><path class="a" d="M617.418,492.435c.26,7.982-5.175,14.637-5.175,14.637s-5.857-6.287-6.117-14.27,5.175-14.637,5.175-14.637S617.159,484.452,617.418,492.435Z" transform="translate(-456.69 -361.558)"/><circle class="c" cx="12.435" cy="12.435" r="12.435" transform="translate(142.162 152.672)"/><circle class="d" cx="4.033" cy="4.033" r="4.033" transform="translate(150.564 154.017)"/><path class="d" d="M408.639,589.076l11.019-8.825" transform="translate(-386.58 -403.335)"/><path class="d" d="M410.737,611.71q5-4.037,10.343-7.61" transform="translate(-387.973 -419.169)"/><path class="d" d="M432.607,610.029a38.2,38.2,0,0,0,10.5-7.382" transform="translate(-402.493 -418.204)"/><circle class="b" cx="6.049" cy="6.049" r="6.049" transform="translate(-3.53 215.977)"/><ellipse class="c" cx="33.272" cy="4.009" rx="33.272" ry="4.009" transform="translate(-37 248.265)"/><path class="d" d="M778.894,672.265a7.394,7.394,0,1,1,7.394-7.394A7.394,7.394,0,0,1,778.894,672.265Zm0-14.115a6.722,6.722,0,1,0,6.722,6.722A6.722,6.722,0,0,0,778.894,658.149Z" transform="translate(-566.491 -464.607)"/></g><rect class="n" width="560" height="556" transform="translate(-17.025 -58)"/></g></svg>