<svg xmlns="http://www.w3.org/2000/svg" xmlns:xlink="http://www.w3.org/1999/xlink" width="64" height="64" viewBox="0 0 64 64"><defs><clipPath id="a"><rect width="64" height="64" fill="none"/></clipPath></defs><g clip-path="url(#a)"><path d="M-453.748,34.7-472,25.575-490.252,34.7-472,43.82Z" transform="translate(504)" fill="#ff7d2f" opacity="0.5"/><path d="M-472,25.575-490.252,34.7l-7.99-12.633,18.252-9.122Z" transform="translate(504)" fill="#fff" stroke="#ff7d2f" stroke-linecap="round" stroke-linejoin="round" stroke-width="2"/><path d="M-472,25.575l18.252,9.122,7.99-12.633-18.252-9.122L-472,25.575" transform="translate(504)" fill="#fff" stroke="#ff7d2f" stroke-linecap="round" stroke-linejoin="round" stroke-width="2"/><rect width="26.241" height="39.192" transform="translate(18.879 9.65)" stroke-width="2" stroke="#ff7d2f" stroke-linecap="round" stroke-linejoin="round" fill="#fff"/><rect width="26.241" height="39.192" transform="translate(18.879 9.65)" fill="#ff7d2f" opacity="0.5"/><g transform="translate(504)"><path d="M-453.748,50.879-472,60l-18.252-9.122V34.7L-472,43.82l18.252-9.122Z" fill="#fff" stroke="#ff7d2f" stroke-linecap="round" stroke-linejoin="round" stroke-width="2"/><line y2="16.181" transform="translate(-472 43.82)" stroke-width="2" stroke="#ff7d2f" stroke-linecap="round" stroke-linejoin="round" fill="#fff"/></g><text transform="translate(31.992 32.734)" fill="#fff" font-size="8.96" font-family="BasicGothicPro, Basic Gothic Pro"><tspan x="-8.127" y="0">SDK</tspan></text><g transform="translate(504)"><circle cx="2.098" cy="2.098" r="2.098" transform="translate(-473.311 14.657)" fill="none" stroke="#fff" stroke-miterlimit="10" stroke-width="2"/><line x1="2.53" y2="2.53" transform="translate(-475.165 18.291)" fill="none" stroke="#fff" stroke-linecap="round" stroke-miterlimit="10" stroke-width="2"/></g><path d="M-460.44,45.126l16.742-9.4-10.05-1.026L-472,43.82Z" transform="translate(504)" fill="#fff" stroke="#ff7d2f" stroke-linecap="round" stroke-linejoin="round" stroke-width="2"/><path d="M-483.569,45.126l-16.742-9.4,10.05-1.026,18.252,9.122Z" transform="translate(504)" fill="#fff" stroke="#ff7d2f" stroke-linecap="round" stroke-linejoin="round" stroke-width="2"/><rect width="64" height="64" fill="none"/></g></svg>