<svg xmlns="http://www.w3.org/2000/svg" width="36" height="36" viewBox="0 0 36 36"><defs><style>.a{fill:#fff;}.b{fill:#4c4948;}</style></defs><g transform="translate(-64.704 -64.443)"><path class="a" d="M82.7,100.442a18,18,0,1,0-18-18,18,18,0,0,0,18,18"/><path class="b" d="M306.512,353.356a7.4,7.4,0,0,1-2.124.582,3.7,3.7,0,0,0,1.626-2.046,7.39,7.39,0,0,1-2.35.9,3.7,3.7,0,0,0-6.3,3.373,10.5,10.5,0,0,1-7.625-3.865,3.7,3.7,0,0,0,1.145,4.94,3.7,3.7,0,0,1-1.676-.462v.046a3.7,3.7,0,0,0,2.968,3.627,3.61,3.61,0,0,1-.975.13,3.669,3.669,0,0,1-.7-.066,3.7,3.7,0,0,0,3.455,2.568,7.483,7.483,0,0,1-5.477,1.533,10.521,10.521,0,0,0,16.2-8.863c0-.161,0-.321-.01-.479a7.5,7.5,0,0,0,1.845-1.915" transform="translate(-214.777 -275.628)"/></g></svg>