<svg xmlns="http://www.w3.org/2000/svg" width="36" height="36" viewBox="0 0 36 36"><defs><style>.a{fill:#fff;}</style></defs><g transform="translate(-61.948 0.002)"><path class="a" d="M-3130.052-3828a17.882,17.882,0,0,1-12.728-5.272,17.882,17.882,0,0,1-5.272-12.728,17.882,17.882,0,0,1,5.272-12.728,17.882,17.882,0,0,1,12.728-5.272,17.882,17.882,0,0,1,12.728,5.272,17.882,17.882,0,0,1,5.272,12.728,17.882,17.882,0,0,1-5.272,12.728A17.882,17.882,0,0,1-3130.052-3828Zm5.674-10.132s.061,0,.163,0a7.139,7.139,0,0,0,5.563-2.764,26.253,26.253,0,0,0-2.657-11.005,10.467,10.467,0,0,0-5.3-1.971l-.274.274.012,0a14.217,14.217,0,0,1,4.627,2.375,15.666,15.666,0,0,0-7.467-1.879,15.885,15.885,0,0,0-7.492,1.885,14.7,14.7,0,0,1,4.646-2.383l-.274-.274a10.5,10.5,0,0,0-5.3,1.971,26.011,26.011,0,0,0-2.64,11.006,7.114,7.114,0,0,0,5.562,2.764c.091,0,.148,0,.163,0l1.167-1.474a6.314,6.314,0,0,1-3.36-2.263,14.561,14.561,0,0,0,7.526,2.109,14.566,14.566,0,0,0,7.521-2.106h0a6.239,6.239,0,0,1-3.357,2.259l1.166,1.474Zm-1.868-4.56a2.031,2.031,0,0,1-1.9-2.092,1.982,1.982,0,0,1,1.9-2.091,2.013,2.013,0,0,1,1.919,2.091A2.013,2.013,0,0,1-3126.246-3842.693Zm-6.858,0a2.031,2.031,0,0,1-1.9-2.092,1.982,1.982,0,0,1,1.9-2.091,1.845,1.845,0,0,1,1.319.566,2.135,2.135,0,0,1,.6,1.525A2.014,2.014,0,0,1-3133.1-3842.693Z" transform="translate(3210 3864)"/></g></svg>