<svg xmlns="http://www.w3.org/2000/svg" width="160" height="160" viewBox="0 0 160 160"><defs><style>.a{fill:#ffc600;}.b{fill:none;}</style></defs><g transform="translate(-500 -2347)"><path class="a" d="M276.943,183.128a3.428,3.428,0,0,0,3.428-3.428V142.833a3.38,3.38,0,0,0-2.791-3.291,3.187,3.187,0,0,0-.761-.343L226.253,128.07a3.475,3.475,0,0,0-.96-.021h-.007c-.144.014-.295-.021-.432.007a3.324,3.324,0,0,0-.939.014L174.2,139.205a3.189,3.189,0,0,0-.761.343,3.38,3.38,0,0,0-2.777,3.291V195.12a3.288,3.288,0,0,0,.13.638c1.337,31.835,27.872,52.213,54.167,55.97a3.874,3.874,0,0,0,.487.034l.069-.014.069.014a3.871,3.871,0,0,0,.487-.034c23.223-3.325,49.964-20.707,53.831-51.033a3.432,3.432,0,0,0-6.809-.864c-3.38,26.59-26.946,41.928-47.571,45.034-23.922-3.586-48-22.38-48-51.6V145.493L225.1,134.824l48.414,10.669V179.7a3.428,3.428,0,0,0,3.428,3.428" transform="translate(354.333 2239.094)"/><rect class="b" width="160" height="160" transform="translate(500 2347)"/></g></svg>