<svg xmlns="http://www.w3.org/2000/svg" width="160" height="160" viewBox="0 0 160 160"><defs><style>.a{fill:#ffc600;}.b{fill:none;}</style></defs><g transform="translate(-500 -2347)"><g transform="translate(509 2356)"><path class="a" d="M71,142a71,71,0,1,1,71-71A71.08,71.08,0,0,1,71,142ZM71,4.437A66.562,66.562,0,1,0,137.562,71,66.638,66.638,0,0,0,71,4.437Z"/><path class="a" d="M243.969,731.643a2.219,2.219,0,0,1-2.219-2.219V701.313a8.884,8.884,0,0,0-8.875-8.875h-6.656a2.219,2.219,0,1,1,0-4.437h6.656a13.326,13.326,0,0,1,13.312,13.312v28.111A2.219,2.219,0,0,1,243.969,731.643Z" transform="translate(-192.938 -592.594)"/><path class="a" d="M136.875,602.625a8.875,8.875,0,1,1,8.875-8.875A8.884,8.884,0,0,1,136.875,602.625Zm0-13.312a4.438,4.438,0,1,0,4.437,4.438A4.442,4.442,0,0,0,136.875,589.312Zm64.344,45.861A2.219,2.219,0,0,1,199,632.955V589.312A13.326,13.326,0,0,1,212.312,576h6.656a2.219,2.219,0,0,1,0,4.438h-6.656a8.884,8.884,0,0,0-8.875,8.875v43.643A2.219,2.219,0,0,1,201.219,635.174Z" transform="translate(-110.25 -496.125)"/><path class="a" d="M118.958,463.062a8.875,8.875,0,1,1,8.875-8.875A8.884,8.884,0,0,1,118.958,463.062Zm0-13.312a4.437,4.437,0,1,0,4.437,4.438A4.442,4.442,0,0,0,118.958,449.75ZM67.927,513.783a2.219,2.219,0,0,1-2.219-2.219V445.312a8.884,8.884,0,0,0-8.875-8.875H6.379a2.219,2.219,0,0,1,0-4.437H56.833a13.326,13.326,0,0,1,13.312,13.312v66.252A2.219,2.219,0,0,1,67.927,513.783Z" transform="translate(-3.583 -372.094)"/><path class="a" d="M435.969,331.127a2.219,2.219,0,0,1-2.219-2.219v-59.6a8.884,8.884,0,0,0-8.875-8.875h-6.656a2.219,2.219,0,0,1,0-4.437h6.656a13.326,13.326,0,0,1,13.312,13.312v59.6A2.219,2.219,0,0,1,435.969,331.127Z" transform="translate(-358.313 -220.5)"/><path class="a" d="M328.875,74.294a8.875,8.875,0,1,1,8.875-8.875A8.884,8.884,0,0,1,328.875,74.294Zm0-13.312a4.437,4.437,0,1,0,4.437,4.437A4.442,4.442,0,0,0,328.875,60.981ZM388.781,80.95h-6.656a13.326,13.326,0,0,1-13.312-13.312V34.379a2.219,2.219,0,0,1,4.438,0V67.638a8.884,8.884,0,0,0,8.875,8.875h6.656a2.219,2.219,0,1,1,0,4.437Z" transform="translate(-275.625 -27.7)"/><path class="a" d="M588.375,321.75a8.875,8.875,0,1,1,8.875-8.875A8.884,8.884,0,0,1,588.375,321.75Zm0-13.312a4.437,4.437,0,1,0,4.438,4.438A4.442,4.442,0,0,0,588.375,308.438Zm-42.156,73.219a2.228,2.228,0,1,1,2.219-2.219,2.291,2.291,0,0,1-.643,1.575A2.333,2.333,0,0,1,546.219,381.656Zm0,8.875a2.2,2.2,0,1,1,1.575-.643A2.333,2.333,0,0,1,546.219,390.531Zm0,13A2.219,2.219,0,0,1,544,401.314v-4.393a2.219,2.219,0,0,1,4.438,0v4.393A2.219,2.219,0,0,1,546.219,403.533Z" transform="translate(-468.563 -261.844)"/></g><rect class="b" width="160" height="160" transform="translate(500 2347)"/></g></svg>