<svg xmlns="http://www.w3.org/2000/svg" width="160" height="160" viewBox="0 0 160 160"><defs><style>.a{fill:#ffc600;}.b{fill:#ff7d2f;}.c{fill:none;}</style></defs><g transform="translate(-500 -2347)"><g transform="translate(373.322 2246.735)"><path class="a" d="M214.73,166.88v-.662a4.777,4.777,0,0,1,2.642-4.273l19.108-9.554a4.777,4.777,0,0,1,4.271,0l19.108,9.554a4.777,4.777,0,0,1,2.642,4.273v21.5a4.777,4.777,0,0,1-2.642,4.273l-19.108,9.554a4.777,4.777,0,0,1-4.271,0l-19.108-9.554a4.777,4.777,0,0,1-2.642-4.273V172.38l-6.342-3.623-17.544,8.773v6.038L209.7,193a4.777,4.777,0,0,1,2.642,4.273v21.5a4.777,4.777,0,0,1-2.642,4.273l-19.108,9.554a4.777,4.777,0,0,1-4.271,0l-19.108-9.554a4.777,4.777,0,0,1-2.642-4.273v-21.5A4.777,4.777,0,0,1,167.213,193l18.855-9.428V177.53L167.213,168.1a4.777,4.777,0,0,1-2.642-4.273v-21.5a4.777,4.777,0,0,1,2.642-4.273l19.108-9.554a4.777,4.777,0,0,1,4.271,0L209.7,138.06a4.777,4.777,0,0,1,2.642,4.273v21.5a4.734,4.734,0,0,1-.256,1.538l2.644,1.512Zm4.777,20.835,16.72,8.36V178.443l-16.72-8.36Zm-20.293-24.2a2.389,2.389,0,1,1,2.369-4.146l5.981,3.416V146.2l-16.72,8.36v17.632l12.559-6.282-4.189-2.393Zm-8.369,25.395v8.36a2.389,2.389,0,0,1-4.777,0v-8.36l-15.243,7.622,17.632,8.816,17.632-8.816ZM241,196.075l16.72-8.36V170.083L241,178.443v17.632Zm-2.388-39.411-17.632,8.816,17.632,8.816,17.632-8.816Zm-52.547-2.107-16.72-8.36V163.83l16.72,8.36Zm20.021-12.962-17.632-8.816-17.632,8.816,17.632,8.816Zm1.476,77.171V201.133l-16.72,8.36v17.632Zm-21.5-9.272-16.72-8.36v17.632l16.72,8.36V209.493Z"/><path class="b" d="M251.3,219.507l16.72,8.36V210.235l-16.72-8.36Zm-20.293-24.2a2.389,2.389,0,1,1,2.369-4.146l5.981,3.416V177.99l-16.72,8.36v17.632L235.2,197.7l-4.189-2.393ZM222.64,220.7v8.36a2.389,2.389,0,0,1-4.777,0V220.7l-15.243,7.622,17.632,8.816,17.632-8.816Zm50.159,7.166,16.72-8.36V201.875l-16.72,8.36v17.632Zm-2.388-39.411-17.632,8.816,17.632,8.816,17.632-8.816Zm-52.547-2.107-16.72-8.36v17.632l16.72,8.36Zm20.021-12.962-17.632-8.816-17.632,8.816,17.632,8.816Zm1.476,77.171V232.926l-16.72,8.36v17.632Zm-21.5-9.272-16.72-8.36v17.632l16.72,8.36Z" transform="translate(-31.795 -31.792)"/></g><rect class="c" width="160" height="160" transform="translate(500 2347)"/></g></svg>