<svg xmlns="http://www.w3.org/2000/svg" xmlns:xlink="http://www.w3.org/1999/xlink" width="100" height="100" viewBox="0 0 100 100"><defs><clipPath id="a"><rect width="100" height="100" fill="none"/></clipPath></defs><g clip-path="url(#a)"><path d="M172.148,92.28s5.985-4.222,5.985-11.456c0-6.485-5.985-10.544-5.985-10.544s-5.985,4.059-5.985,10.544C166.163,88.058,172.148,92.28,172.148,92.28Z" transform="translate(-120)" fill="#fff" stroke="#ff7d2f" stroke-linecap="round" stroke-linejoin="round" stroke-width="2"/><g transform="translate(-120)"><path d="M172.148,13.318s-11.97,11.075-11.97,20.688V65.671h11.97" fill="#fff" stroke="#ff7d2f" stroke-linecap="round" stroke-linejoin="round" stroke-width="2"/><path d="M160.178,48.5s-5.068,4.1-7.244,13.074-.805,13.15,1.02,9.83c2.755-5.012,6.224-5.736,6.224-5.736Z" fill="#fff" stroke="#ff7d2f" stroke-linecap="round" stroke-linejoin="round" stroke-width="2"/><path d="M172.148,13.318s11.97,11.075,11.97,20.688V65.671h-11.97" fill="#fff" stroke="#ff7d2f" stroke-linecap="round" stroke-linejoin="round" stroke-width="2"/><path d="M184.118,48.5s5.068,4.1,7.245,13.074.8,13.15-1.021,9.83c-2.755-5.012-6.224-5.736-6.224-5.736Z" fill="#fff" stroke="#ff7d2f" stroke-linecap="round" stroke-linejoin="round" stroke-width="2"/><line x2="14.51" transform="translate(164.815 21.937)" stroke-width="2" stroke="#ff7d2f" stroke-linecap="round" stroke-linejoin="round" fill="#fff"/></g><path d="M172.148,75.1s-2.713,1.433-2.713,3.888c0,2.2,1.591,3.578,2.713,3.578s2.713-1.377,2.713-3.578C174.861,76.528,172.148,75.1,172.148,75.1Z" transform="translate(-120)" fill="#ff7d2f" opacity="0.5"/><text transform="translate(49.436 43.432) rotate(90)" fill="#ff7d2f" font-size="8" font-family="Arial-BoldMT, Arial" font-weight="700" letter-spacing="0.05em"><tspan x="-19.423" y="0">TESTNET</tspan></text><path d="M172.14,13.541,165.774,21.5l13,.222Z" transform="translate(-120)" fill="#ff7d2f" opacity="0.5"/><rect width="100" height="100" fill="none"/></g></svg>