<svg xmlns="http://www.w3.org/2000/svg" xmlns:xlink="http://www.w3.org/1999/xlink" width="64" height="64" viewBox="0 0 64 64"><defs><clipPath id="a"><rect width="64" height="64" fill="none"/></clipPath></defs><g clip-path="url(#a)"><g transform="translate(252)"><path d="M-230,13.26v-.276h6.146v2.279h-2.061a.32.32,0,0,0-.32.32v3.562a5.33,5.33,0,0,1,4.322-3.406q-.042-.314-.087-.628a12.3,12.3,0,0,1-.16-1.472c0-3.443-1.6-5.188-4.767-5.188-2.921,0-4.494,1.507-4.72,4.446A6.941,6.941,0,0,1-230,13.26Z" fill="#ff7d2f"/><path d="M-214.469,20.221a6.52,6.52,0,0,0,.066-.687c0-.3.014-.586.036-.866V15.583a.32.32,0,0,0-.32-.32h-2.061V12.984h6.145v.247a7.026,7.026,0,0,1,1.647-.345c-.229-2.932-1.8-4.435-4.719-4.435-3.163,0-4.767,1.745-4.767,5.188a12.3,12.3,0,0,1-.16,1.472c-.034.24-.068.48-.1.718A5.4,5.4,0,0,1-214.469,20.221Z" fill="#ff7d2f"/><path d="M-205.5,44.519a12.217,12.217,0,0,1-1.994,3.6l.56,6.168A2.549,2.549,0,0,0-204.4,56.6c.078,0,.156,0,.234-.011a2.548,2.548,0,0,0,2.308-2.769l-.6-6.62A7.1,7.1,0,0,1-205.5,44.519Z" fill="#ff7d2f"/><path d="M-208.917,49.428a5.985,5.985,0,0,1-3.464,1.05,6.52,6.52,0,0,1-.91-.069l.548,6.036a2.539,2.539,0,0,0,.638.15c.076.006.151.01.227.01a2.55,2.55,0,0,0,2.536-2.327Z" fill="#ff7d2f"/><path d="M-212.5,26.394a6.8,6.8,0,0,0-1.621,1.223c-.062.063-.115.136-.174.2-.012.022-.019.045-.031.066-.071.121-.153.231-.23.345a8,8,0,0,1,.848.615,2.494,2.494,0,0,1,2.818.1l2.92,2.173a2.544,2.544,0,0,1,.49-.5l4.9-3.645a6.381,6.381,0,0,0-1.1-.655,6.3,6.3,0,0,1-3.289,1.309,1.361,1.361,0,0,1-.156.01,1.277,1.277,0,0,1-.848-.322,1.347,1.347,0,0,1-.164-.174,1.214,1.214,0,0,1-.163.174,1.285,1.285,0,0,1-1,.312A6.353,6.353,0,0,1-212.5,26.394Z" fill="#ff7d2f"/><path d="M-208.137,14.346c-3.162,0-4.766,1.746-4.766,5.188a12.283,12.283,0,0,1-.16,1.472c-.187,1.3-.38,2.638.029,3.339a4.863,4.863,0,0,0,3.847,2.332.311.311,0,0,0,.251-.078.319.319,0,0,0,.108-.239V21.478a.32.32,0,0,0-.32-.32h-2.061V18.88h6.146v2.278h-2.062a.32.32,0,0,0-.32.32V26.36a.322.322,0,0,0,.108.239.317.317,0,0,0,.212.081.256.256,0,0,0,.039,0,4.86,4.86,0,0,0,3.847-2.333c.41-.7.217-2.041.029-3.338a12.283,12.283,0,0,1-.16-1.472C-203.37,16.092-204.974,14.346-208.137,14.346Z" fill="#ff7d2f"/><path d="M-192.992,32.138-200,26.925l-6.8,5.063,1.856,1.381c0-.084-.012-.173-.017-.256l4.965-3.7,4.966,3.7c-.232,4.35-1.5,11.083-4.966,11.083-2.12,0-3.415-2.52-4.156-5.47a29.622,29.622,0,0,1-.741,3.894c1.038,2.054,2.585,3.576,4.9,3.576,6.034,0,6.874-10.359,6.987-13.533Z" fill="#ff7d2f"/><path d="M-202.919,35.475a1,1,0,0,0,1,1h.92v4.916a1,1,0,0,0,1,1,1,1,0,0,0,1-1V36.475h.92a1,1,0,0,0,1-1,1,1,0,0,0-1-1H-199V33.058a1,1,0,0,0-1-1,1,1,0,0,0-1,1v1.417h-.92A1,1,0,0,0-202.919,35.475Z" fill="#ff7d2f"/><path d="M-227.3,45.081a2.763,2.763,0,0,1-1.658.575,2.789,2.789,0,0,1-2.8-2.746c-.01-.9.024-8.584,3.65-12.951-.005-.089-.006-.178-.016-.265.041.047.076.1.115.152.145-.169.284-.344.441-.5a8.428,8.428,0,0,1,1.18-.977c-.113-.157-.224-.314-.323-.483a2.9,2.9,0,0,1-.258-.615,6.727,6.727,0,0,0-1.223-.875,6.353,6.353,0,0,1-3.2,1.236,1.287,1.287,0,0,1-1-.312,1.214,1.214,0,0,1-.163-.174,1.283,1.283,0,0,1-.164.174,1.275,1.275,0,0,1-.848.322,1.33,1.33,0,0,1-.155-.01,6.308,6.308,0,0,1-3.29-1.309,6.418,6.418,0,0,0-1.1.655l4.9,3.645a2.5,2.5,0,0,1,1.006,2.1c-.111,3.079-.884,12.259-6.03,14.486l-.6,6.621a2.549,2.549,0,0,0,2.308,2.769c.078.007.156.011.234.011a2.549,2.549,0,0,0,2.536-2.319l.85-9.361c.118.01.236.018.356.018s.258-.008.385-.019l.821,9.354a2.549,2.549,0,0,0,2.536,2.327c.075,0,.15,0,.226-.01a2.536,2.536,0,0,0,.291-.056c0-.019,0-.037,0-.056Z" fill="#ff7d2f"/><path d="M-233.6,26.677a.234.234,0,0,0,.038,0,.316.316,0,0,0,.212-.081.319.319,0,0,0,.108-.239V21.478a.32.32,0,0,0-.32-.32h-2.061V18.88h6.146v2.278h-2.062a.32.32,0,0,0-.32.32V26.36a.322.322,0,0,0,.108.239.311.311,0,0,0,.251.078,4.864,4.864,0,0,0,3.848-2.332c.409-.7.216-2.042.028-3.339a12.283,12.283,0,0,1-.16-1.472c0-3.442-1.6-5.188-4.766-5.188s-4.767,1.746-4.767,5.188a12.283,12.283,0,0,1-.16,1.472c-.187,1.3-.381,2.638.029,3.338A4.862,4.862,0,0,0-233.6,26.677Z" fill="#ff7d2f"/><path d="M-240.692,46.2c6.027,0,6.871-10.358,6.986-13.533l.019-.524-7.005-5.214-7.006,5.213.018.524C-247.568,35.837-246.733,46.2-240.692,46.2Zm0-16.779,4.964,3.7c-.233,4.35-1.5,11.083-4.964,11.083s-4.738-6.733-4.966-11.083Z" fill="#ff7d2f"/><path d="M-242.612,36.475h.92v4.916a1,1,0,0,0,1,1,1,1,0,0,0,1-1V36.475h.919a1,1,0,0,0,1-1,1,1,0,0,0-1-1h-.919V33.058a1,1,0,0,0-1-1,1,1,0,0,0-1,1v1.417h-.92a1,1,0,0,0-1,1A1,1,0,0,0-242.612,36.475Z" fill="#ff7d2f"/><path d="M-214.836,49.987c-5.152-2.226-5.921-11.409-6.03-14.488a2.5,2.5,0,0,1,1.005-2.094l4.9-3.648a6.47,6.47,0,0,0-1.1-.654,6.309,6.309,0,0,1-3.29,1.309,1.359,1.359,0,0,1-.155.01,1.278,1.278,0,0,1-.848-.322,1.283,1.283,0,0,1-.164-.174,1.273,1.273,0,0,1-.163.174,1.289,1.289,0,0,1-1,.312,6.353,6.353,0,0,1-3.2-1.236A6.838,6.838,0,0,0-226.5,30.4c-3.805,3.846-3.76,12.144-3.756,12.5a1.273,1.273,0,0,0,1.274,1.26h.013a1.276,1.276,0,0,0,1.262-1.287c0-.074-.034-7.152,2.759-10.392a4.563,4.563,0,0,0-.029.5v2.868L-226.8,56.614a2.55,2.55,0,0,0,2.317,2.763c.076.006.151.01.226.01a2.549,2.549,0,0,0,2.536-2.327l.821-9.354c.127.011.255.019.385.019s.238-.008.356-.018l.85,9.361a2.549,2.549,0,0,0,2.536,2.319c.077,0,.155,0,.233-.011a2.549,2.549,0,0,0,2.308-2.769Z" fill="#ff7d2f"/><path d="M-215.62,27.126c.409-.7.216-2.041.029-3.338a12.283,12.283,0,0,1-.16-1.472c0-3.443-1.6-5.188-4.767-5.188s-4.767,1.745-4.767,5.188a12.283,12.283,0,0,1-.16,1.472c-.187,1.3-.38,2.638.029,3.339a4.864,4.864,0,0,0,3.848,2.332.307.307,0,0,0,.25-.078.32.32,0,0,0,.109-.239V24.26a.321.321,0,0,0-.321-.32h-2.061V21.662h6.146V23.94h-2.061a.32.32,0,0,0-.32.32v4.882a.319.319,0,0,0,.108.239.319.319,0,0,0,.212.081.243.243,0,0,0,.038,0A4.862,4.862,0,0,0-215.62,27.126Z" fill="#ff7d2f"/><path d="M-205.394,35.445l.019-.525-7.006-5.215-7.006,5.216.02.525c.113,3.174.952,13.532,6.986,13.532S-205.505,38.62-205.394,35.445Zm-6.987,11.533c-3.468,0-4.734-6.733-4.965-11.083l4.965-3.695,4.966,3.695C-207.644,40.245-208.907,46.978-212.381,46.978Z" fill="#ff7d2f"/><path d="M-209.461,38.257a1,1,0,0,0-1-1h-.92V35.84a1,1,0,0,0-1-1,1,1,0,0,0-1,1v1.417h-.919a1,1,0,0,0-1,1,1,1,0,0,0,1,1h.919v4.916a1,1,0,0,0,1,1,1,1,0,0,0,1-1V39.257h.92A1,1,0,0,0-209.461,38.257Z" fill="#ff7d2f"/></g><rect width="64" height="64" fill="none"/><path d="M-194.011,32.627-200,28.171l-5.966,4.44a6.251,6.251,0,0,1,1.945,1.863c.5.928-.254,5.115-.5,6.5.88,2.333,2.283,4.224,4.517,4.224C-194.71,45.2-194.082,34.621-194.011,32.627Z" transform="translate(252)" fill="#ff7d2f" opacity="0.5"/><path d="M-246.681,32.627l5.989-4.456,5.987,4.456c-.072,1.994-.7,12.569-5.987,12.569S-246.61,34.621-246.681,32.627Z" transform="translate(252)" fill="#ff7d2f" opacity="0.5"/><path d="M-206.393,35.409l-5.988-4.456-5.987,4.456c.072,1.994.7,12.569,5.987,12.569S-206.463,37.4-206.393,35.409Z" transform="translate(252)" fill="#ff7d2f" opacity="0.5"/></g></svg>