<svg xmlns="http://www.w3.org/2000/svg" xmlns:xlink="http://www.w3.org/1999/xlink" width="64" height="64" viewBox="0 0 64 64"><defs><clipPath id="a"><rect width="64" height="64" fill="none"/></clipPath></defs><g clip-path="url(#a)"><path d="M-369.275,28.783V20.061h-33.7c-3.591,0-6.5,1.953-6.5,4.361" transform="translate(420)" fill="none" stroke="#ff7d2f" stroke-linecap="round" stroke-linejoin="round" stroke-width="2"/><path d="M-369.275,28.783V20.061h-33.7c-3.591,0-6.5,1.953-6.5,4.361l3.342,8.312h33.28Z" transform="translate(420)" fill="#ff7d2f" opacity="0.5"/><g transform="translate(420)"><rect width="36.407" height="18.152" transform="translate(-404.411 37.658) rotate(-60)" stroke-width="2" stroke="#ff7d2f" stroke-linecap="round" stroke-linejoin="round" fill="#fff"/><text transform="translate(-383.976 28.8) rotate(-60)" fill="#ff7d2f" font-size="11.934" font-family="BasicGothicPro, Basic Gothic Pro"><tspan x="-9.774" y="0">$$$</tspan></text><path d="M-376.994,14.25a3.546,3.546,0,0,1,1.227,4.861l1.8-3.115Z" fill="#ff7d2f" stroke="#ff7d2f" stroke-linecap="round" stroke-linejoin="round" stroke-width="1"/><path d="M-382.128,11.285a3.547,3.547,0,0,0-4.823,1.369l1.8-3.115Z" fill="#ff7d2f" stroke="#ff7d2f" stroke-linecap="round" stroke-linejoin="round" stroke-width="1"/></g><path d="M-402.973,28.783c-3.591,0-6.5-1.953-6.5-4.361V52.1c0,2.5,3.025,4.531,6.757,4.531H-366.7V28.783Z" transform="translate(420)" fill="#fff" stroke="#ff7d2f" stroke-linecap="round" stroke-linejoin="round" stroke-width="2"/><path d="M-369.745,49.237a5.958,5.958,0,0,1-5.958-5.959,5.957,5.957,0,0,1,5.958-5.958h5.023V49.237Z" transform="translate(420)" fill="#fff" stroke="#ff7d2f" stroke-linecap="round" stroke-linejoin="round" stroke-width="2"/><circle cx="1.502" cy="1.502" r="1.502" transform="translate(48.286 41.777)" fill="#fff" stroke="#ff7d2f" stroke-linecap="round" stroke-linejoin="round" stroke-width="2"/><rect width="64" height="64" fill="none"/></g></svg>