<svg xmlns="http://www.w3.org/2000/svg" xmlns:xlink="http://www.w3.org/1999/xlink" width="100" height="100" viewBox="0 0 100 100"><defs><clipPath id="a"><rect width="100" height="100" fill="none"/></clipPath></defs><g clip-path="url(#a)"><path d="M74.293,154.935v-11.2H31.026c-4.61,0-8.347,2.507-8.347,5.6" transform="translate(0 -109.238)" fill="none" stroke="#ff7d2f" stroke-linecap="round" stroke-linejoin="round" stroke-width="2"/><path d="M74.293,154.935v-11.2H31.026c-4.61,0-8.347,2.507-8.347,5.6l4.29,10.672H69.7Z" transform="translate(0 -109.238)" fill="#ff7d2f" opacity="0.5"/><g transform="translate(0 -109.238)"><rect width="46.745" height="23.307" transform="translate(29.18 166.33) rotate(-60)" stroke-width="2" stroke="#ff7d2f" stroke-linecap="round" stroke-linejoin="round" fill="#fff"/><text transform="translate(55.376 154.913) rotate(-60)" fill="#ff7d2f" font-size="15.323" font-family="BasicGothicPro, Basic Gothic Pro"><tspan x="-12.549" y="0">$$$</tspan></text><path d="M64.383,136.275a4.553,4.553,0,0,1,1.575,6.242l2.309-4Z" fill="#ff7d2f" stroke="#ff7d2f" stroke-linecap="round" stroke-linejoin="round" stroke-width="2"/><path d="M57.791,132.469a4.553,4.553,0,0,0-6.193,1.757l2.309-4Z" fill="#ff7d2f" stroke="#ff7d2f" stroke-linecap="round" stroke-linejoin="round" stroke-width="2"/></g><path d="M31.026,154.935c-4.61,0-8.347-2.507-8.347-5.6v35.542c0,3.213,3.884,5.818,8.675,5.818h46.24V154.935Z" transform="translate(0 -109.238)" fill="#fff" stroke="#ff7d2f" stroke-linecap="round" stroke-linejoin="round" stroke-width="2"/><path d="M73.69,181.2a7.651,7.651,0,1,1,0-15.3h6.449v15.3Z" transform="translate(0 -109.238)" fill="#fff" stroke="#ff7d2f" stroke-linecap="round" stroke-linejoin="round" stroke-width="2"/><circle cx="1.928" cy="1.928" r="1.928" transform="translate(71.161 62.381)" fill="#fff" stroke="#ff7d2f" stroke-linecap="round" stroke-linejoin="round" stroke-width="2"/><rect width="100" height="100" fill="none"/></g></svg>