<svg xmlns="http://www.w3.org/2000/svg" xmlns:xlink="http://www.w3.org/1999/xlink" width="100" height="100" viewBox="0 0 100 100"><defs><clipPath id="a"><rect width="100" height="100" fill="none"/></clipPath></defs><g clip-path="url(#a)"><path d="M434.293,45.7V34.5H391.026c-4.61,0-8.347,2.507-8.347,5.6v5.6Z" transform="translate(-360)" fill="#fff" stroke="#ff7d2f" stroke-linecap="round" stroke-linejoin="round" stroke-width="2"/><path d="M434.293,45.7V34.5H391.026c-4.61,0-8.347,2.507-8.347,5.6l4.29,10.672H429.7Z" transform="translate(-360)" fill="#ff7d2f" opacity="0.5"/><g transform="translate(-360)"><rect width="46.745" height="23.307" transform="translate(389.18 57.092) rotate(-60)" stroke-width="2" stroke="#ff7d2f" stroke-linecap="round" stroke-linejoin="round" fill="#fff"/><path d="M408.642,54.37,405.927,52.8a4.129,4.129,0,0,1-2.173,1.229,3.176,3.176,0,0,1-2.128-.438,2.916,2.916,0,0,1-1.4-1.7,3.127,3.127,0,0,1,.2-2.264l-.642-.371.542-.94.642.37a3.215,3.215,0,0,1,1.649-1.233,3.129,3.129,0,0,1,2,.119l-.732,1.763a1.527,1.527,0,0,0-1.487.178l2.535,1.463a4.819,4.819,0,0,1,2.315-1.488,2.978,2.978,0,0,1,2.046.43,3.325,3.325,0,0,1,1.566,1.849,3.6,3.6,0,0,1-.154,2.542l1.212.7-.542.94-1.181-.682a3.452,3.452,0,0,1-1.886,1.339,3.986,3.986,0,0,1-2.493-.247l.8-1.8a2.479,2.479,0,0,0,1.117.127A2.048,2.048,0,0,0,408.642,54.37Zm-6.8-3.928a1.394,1.394,0,0,0,.09.863,1.307,1.307,0,0,0,.555.623,1.258,1.258,0,0,0,.758.162,1.66,1.66,0,0,0,.839-.354Zm7.436,3.041a1.52,1.52,0,0,0,.007-1.051,1.463,1.463,0,0,0-.67-.793,1.324,1.324,0,0,0-.9-.175,1.873,1.873,0,0,0-.967.56Z" fill="#ff7d2f"/><path d="M413.668,45.663,410.953,44.1a4.118,4.118,0,0,1-2.173,1.229,3.175,3.175,0,0,1-2.127-.438,2.92,2.92,0,0,1-1.4-1.7,3.126,3.126,0,0,1,.2-2.264l-.641-.371.543-.94.641.37a3.217,3.217,0,0,1,1.65-1.233,3.129,3.129,0,0,1,2,.119l-.733,1.763a1.525,1.525,0,0,0-1.486.178l2.534,1.463a4.822,4.822,0,0,1,2.314-1.488,2.98,2.98,0,0,1,2.047.43,3.321,3.321,0,0,1,1.566,1.849,3.6,3.6,0,0,1-.154,2.542l1.212.7-.543.941-1.18-.682a3.452,3.452,0,0,1-1.886,1.339,3.987,3.987,0,0,1-2.493-.247l.8-1.8a2.481,2.481,0,0,0,1.118.127A2.044,2.044,0,0,0,413.668,45.663Zm-6.8-3.928a1.416,1.416,0,0,0,.09.863,1.314,1.314,0,0,0,.556.623,1.256,1.256,0,0,0,.759.162,1.658,1.658,0,0,0,.837-.354Zm7.438,3.041a1.526,1.526,0,0,0,.006-1.051,1.467,1.467,0,0,0-.67-.793,1.323,1.323,0,0,0-.9-.175,1.883,1.883,0,0,0-.967.56Z" fill="#ff7d2f"/><path d="M418.7,36.956l-2.715-1.569a4.125,4.125,0,0,1-2.172,1.23,3.176,3.176,0,0,1-2.128-.438,2.92,2.92,0,0,1-1.4-1.7,3.134,3.134,0,0,1,.2-2.265l-.641-.37.543-.94.641.37a3.215,3.215,0,0,1,1.65-1.233,3.132,3.132,0,0,1,2,.118l-.733,1.764a1.524,1.524,0,0,0-1.485.178l2.534,1.463a4.819,4.819,0,0,1,2.315-1.488,2.981,2.981,0,0,1,2.047.429,3.325,3.325,0,0,1,1.565,1.85,3.6,3.6,0,0,1-.153,2.542l1.212.7-.543.94-1.181-.681a3.452,3.452,0,0,1-1.886,1.339,3.987,3.987,0,0,1-2.493-.247l.8-1.8a2.483,2.483,0,0,0,1.118.127A2.044,2.044,0,0,0,418.7,36.956Zm-6.8-3.928a1.394,1.394,0,0,0,.089.863,1.319,1.319,0,0,0,.556.623,1.267,1.267,0,0,0,.759.162,1.664,1.664,0,0,0,.838-.354Zm7.437,3.041a1.529,1.529,0,0,0,.006-1.052,1.465,1.465,0,0,0-.67-.792,1.317,1.317,0,0,0-.9-.175,1.869,1.869,0,0,0-.967.56Z" fill="#ff7d2f"/><path d="M424.383,27.037a4.554,4.554,0,0,1,1.575,6.242l2.309-4Z" fill="#ff7d2f" stroke="#ff7d2f" stroke-linecap="round" stroke-linejoin="round" stroke-width="2"/><path d="M417.791,23.231a4.554,4.554,0,0,0-6.193,1.757l2.309-4Z" fill="#ff7d2f" stroke="#ff7d2f" stroke-linecap="round" stroke-linejoin="round" stroke-width="2"/></g><path d="M391.026,45.7c-4.61,0-8.347-2.507-8.347-5.6V75.64c0,3.213,3.884,5.818,8.675,5.818h46.24V45.7Z" transform="translate(-360)" fill="#fff" stroke="#ff7d2f" stroke-linecap="round" stroke-linejoin="round" stroke-width="2"/><path d="M433.69,71.959a7.65,7.65,0,1,1,0-15.3h6.449v15.3Z" transform="translate(-360)" fill="#fff" stroke="#ff7d2f" stroke-linecap="round" stroke-linejoin="round" stroke-width="2"/><circle cx="1.928" cy="1.928" r="1.928" transform="translate(71.161 62.381)" fill="#fff" stroke="#ff7d2f" stroke-linecap="round" stroke-linejoin="round" stroke-width="2"/><rect width="100" height="100" fill="none"/></g></svg>