<svg xmlns="http://www.w3.org/2000/svg" xmlns:xlink="http://www.w3.org/1999/xlink" width="64" height="64" viewBox="0 0 64 64"><defs><clipPath id="a"><rect width="64" height="64" fill="none"/></clipPath></defs><g clip-path="url(#a)"><g transform="translate(336)"><path d="M-325.228,32.741l4.889-10.222,4.224.944,5.41-3.168,2,.281L-304,19.235l11.947,4.262,3.71-1.564,6.39,10.382-5.526,3.56-.482,4.13-2.478.956-1.223,3.259-2.771.419-1.925,2.72-3.54-.635-2.308,2.913-6.5-3.808-3.721.834-.919-2.024-2.572-.779-.521-1.887-2.3-1.011-.444-2.1-2.593-2.034-.067-1.76Z" fill="#fff"/><rect width="6.072" height="16.906" transform="translate(-323.631 16.456) rotate(30)" fill="#ff7d2f" opacity="0.5"/><path d="M-319.642,21.813s2.335,1.662,3.527,1.65,4.349-4.9,8.592-2.72" fill="none" stroke="#ff7d2f" stroke-linecap="round" stroke-linejoin="round" stroke-width="2"/><path d="M-295.759,37.1s1.563,1.055,4.509,3.241,5.024-1.994,2.907-4.016-5.94-5.31-5.94-5.31l-11.983-5.5s-1.457,2.475-3.021,5.106-4.824-.177-3.9-2.081,3.629-6.935,3.629-6.935l5.946-2.545,11.554,4.43,3.972-1.674" fill="none" stroke="#ff7d2f" stroke-linecap="round" stroke-linejoin="round" stroke-width="2"/><path d="M-290.555,40.752c1.091,1.542-.967,5.014-3.58,3.313-2.766-1.8-4.93-3.368-4.93-3.368" fill="none" stroke="#ff7d2f" stroke-linecap="round" stroke-linejoin="round" stroke-width="2"/><path d="M-294.731,43.672c1.091,1.542-.968,5.014-3.58,3.313-2.766-1.8-4.93-3.367-4.93-3.367" fill="none" stroke="#ff7d2f" stroke-linecap="round" stroke-linejoin="round" stroke-width="2"/><path d="M-300.2,45.883c1.091,1.542-.968,5.014-3.58,3.314-2.766-1.8-4.93-3.368-4.93-3.368" fill="none" stroke="#ff7d2f" stroke-linecap="round" stroke-linejoin="round" stroke-width="2"/><line x1="6.684" y2="3.504" transform="translate(-288.343 32.824)" stroke-width="2" stroke="#ff7d2f" stroke-linecap="round" stroke-linejoin="round" fill="none"/><rect width="5.313" height="3.86" rx="1.87" transform="matrix(0.665, -0.747, 0.747, 0.665, -313.913, 45.34)" stroke-width="2" stroke="#ff7d2f" stroke-linecap="round" stroke-linejoin="round" fill="none"/><rect width="5.313" height="3.86" rx="1.87" transform="matrix(0.665, -0.747, 0.747, 0.665, -320.036, 40.395)" stroke-width="2" stroke="#ff7d2f" stroke-linecap="round" stroke-linejoin="round" fill="none"/><rect width="3.45" height="3.86" rx="1.672" transform="translate(-322.23 36.836) rotate(-48.321)" stroke-width="2" stroke="#ff7d2f" stroke-linecap="round" stroke-linejoin="round" fill="none"/><rect width="7.231" height="3.86" rx="1.87" transform="matrix(0.665, -0.747, 0.747, 0.665, -316.996, 42.998)" stroke-width="2" stroke="#ff7d2f" stroke-linecap="round" stroke-linejoin="round" fill="none"/><line x1="3.996" y1="2.847" transform="translate(-325.115 32.741)" stroke-width="2" stroke="#ff7d2f" stroke-linecap="round" stroke-linejoin="round" fill="none"/><rect width="6.072" height="16.906" transform="translate(-323.631 16.456) rotate(30)" stroke-width="2" stroke="#ff7d2f" stroke-linecap="round" stroke-linejoin="round" fill="none"/><rect width="6.072" height="16.906" transform="translate(-275.645 31.096) rotate(150)" fill="#ff7d2f" opacity="0.5"/><rect width="6.072" height="16.906" transform="translate(-275.645 31.096) rotate(150)" stroke-width="2" stroke="#ff7d2f" stroke-linecap="round" stroke-linejoin="round" fill="none"/></g><rect width="64" height="64" fill="none"/></g></svg>