<svg xmlns="http://www.w3.org/2000/svg" xmlns:xlink="http://www.w3.org/1999/xlink" width="100" height="100" viewBox="0 0 100 100"><defs><clipPath id="a"><rect width="100" height="100" fill="none"/></clipPath></defs><g clip-path="url(#a)"><path d="M22.713,55.223l-.28,2.326,3.127,3.178,1.029,3.854,3.368,2,2.6,3.152,2.473.306,1.128,2.271,3.368,1.822,3.124-2.522,10.242,5.978,2.717-1.8.338-4.1,3.945,2.438,3.761-1.188,1.3-4.394,2.606,1.019,3.214-1.946L71.2,64l2.755-.412,1.857-3.772-1.346-3.055,10.369-5.606L74.874,34.1l-6.207,2.616L50.615,29.791,43.44,32.862,41.915,31.6l-4.083.655L30.515,36.6l-5.27-2.5L16,50.454Z" fill="#fff"/><rect width="9.488" height="26.415" transform="translate(19.327 25.712) rotate(30)" fill="#ff7d2f" opacity="0.5"/><path d="M25.56,34.083s3.647,2.6,5.51,2.577,6.8-7.657,13.425-4.249" fill="none" stroke="#ff7d2f" stroke-linecap="round" stroke-linejoin="round" stroke-width="2"/><path d="M62.876,57.975s2.442,1.648,7.046,5.065,7.85-3.117,4.542-6.277-9.281-8.3-9.281-8.3L46.46,39.879s-2.278,3.867-4.72,7.977S34.2,47.579,35.653,44.6s5.67-10.835,5.67-10.835l9.292-3.978,18.052,6.923L74.874,34.1" fill="none" stroke="#ff7d2f" stroke-linecap="round" stroke-linejoin="round" stroke-width="2"/><path d="M71.008,63.674c1.7,2.41-1.512,7.835-5.594,5.178-4.322-2.813-7.7-5.262-7.7-5.262" fill="none" stroke="#ff7d2f" stroke-linecap="round" stroke-linejoin="round" stroke-width="2"/><path d="M64.483,68.237c1.705,2.409-1.512,7.835-5.594,5.178-4.322-2.813-7.7-5.262-7.7-5.262" fill="none" stroke="#ff7d2f" stroke-linecap="round" stroke-linejoin="round" stroke-width="2"/><path d="M55.944,71.693c1.7,2.409-1.512,7.834-5.6,5.177-4.322-2.813-7.7-5.262-7.7-5.262" fill="none" stroke="#ff7d2f" stroke-linecap="round" stroke-linejoin="round" stroke-width="2"/><line x1="10.444" y2="5.476" transform="translate(74.464 51.288)" stroke-width="2" stroke="#ff7d2f" stroke-linecap="round" stroke-linejoin="round" fill="none"/><rect width="8.302" height="6.031" rx="2.202" transform="matrix(0.665, -0.747, 0.747, 0.665, 34.511, 70.844)" stroke-width="2" stroke="#ff7d2f" stroke-linecap="round" stroke-linejoin="round" fill="none"/><rect width="8.302" height="6.031" rx="2.202" transform="matrix(0.665, -0.747, 0.747, 0.665, 24.945, 63.118)" stroke-width="2" stroke="#ff7d2f" stroke-linecap="round" stroke-linejoin="round" fill="none"/><rect width="5.39" height="6.031" rx="2.202" transform="matrix(0.665, -0.747, 0.747, 0.665, 21.515, 57.557)" stroke-width="2" stroke="#ff7d2f" stroke-linecap="round" stroke-linejoin="round" fill="none"/><rect width="11.299" height="6.031" rx="2.202" transform="matrix(0.665, -0.747, 0.747, 0.665, 29.694, 67.185)" stroke-width="2" stroke="#ff7d2f" stroke-linecap="round" stroke-linejoin="round" fill="none"/><line x1="6.245" y1="4.449" transform="translate(17.007 51.158)" stroke-width="2" stroke="#ff7d2f" stroke-linecap="round" stroke-linejoin="round" fill="none"/><rect width="9.488" height="26.415" transform="translate(19.327 25.712) rotate(30)" stroke-width="2" stroke="#ff7d2f" stroke-linecap="round" stroke-linejoin="round" fill="none"/><rect width="9.488" height="26.415" transform="translate(94.305 48.588) rotate(150)" fill="#ff7d2f" opacity="0.5"/><rect width="9.488" height="26.415" transform="translate(94.305 48.588) rotate(150)" stroke-width="2" stroke="#ff7d2f" stroke-linecap="round" stroke-linejoin="round" fill="none"/><rect width="100" height="100" fill="none"/></g></svg>