<svg xmlns="http://www.w3.org/2000/svg" xmlns:xlink="http://www.w3.org/1999/xlink" width="64" height="64" viewBox="0 0 64 64"><defs><clipPath id="a"><rect width="64" height="64" fill="none"/></clipPath></defs><g clip-path="url(#a)"><path d="M8.044,34.053a7.791,7.791,0,0,0,1.274-2.6c.9-2.426,2.21-5.92,6.256-7.668a5.392,5.392,0,0,0,4.037,1.924A5.484,5.484,0,0,0,23.963,23.4a9.509,9.509,0,0,1,4.732,2.838c1.337,1.309,2.14,2.1,6.058,1.342a2,2,0,0,1,.757,3.928c-5.523,1.065-7.623-.461-9.614-2.413a6.344,6.344,0,0,0-2.268-1.619,2.456,2.456,0,0,1,.187.714L26.281,55.34a2.5,2.5,0,0,1-2.264,2.716c-.077.007-.153.01-.229.01A2.5,2.5,0,0,1,21.3,55.793L20.206,43.742a3.5,3.5,0,0,1-.626.063,3.542,3.542,0,0,1-.664-.066L17.859,55.785a2.5,2.5,0,0,1-2.487,2.281c-.073,0-.148,0-.222-.01a2.5,2.5,0,0,1-2.271-2.709l2.328-26.528a11.428,11.428,0,0,0-2.139,4.033,10.151,10.151,0,0,1-2.333,4.16,2,2,0,1,1-2.691-2.959Z" fill="#ff7d2f"/><path d="M19.611,24.714c-2.67,0-4.842-2.645-4.842-5.9,0-.237.015-.469.038-.7h9.608c.022.23.037.462.037.7C24.452,22.069,22.28,24.714,19.611,24.714Z" fill="#ff7d2f"/><path d="M13.908,14.55a4.518,4.518,0,0,1,1.062-3.243A6.876,6.876,0,0,1,17.4,9.8l.2,2.071a.5.5,0,0,0,.5.45l.051,0a.5.5,0,0,0,.448-.548L18.329,9.01c.022.033.161-.062.388-.062H20.5a.506.506,0,0,1,.391.136l-.276,2.683a.5.5,0,0,0,1,.1l.2-2.07a6.873,6.873,0,0,1,2.431,1.509,4.518,4.518,0,0,1,1.062,3.244Z" fill="#ff7d2f"/><rect width="13.688" height="1.569" rx="0.5" transform="translate(12.766 15.55)" fill="#ff7d2f"/><circle cx="1" cy="1" r="1" transform="translate(33.133 43.779)" fill="#ff7d2f" stroke="#ff7d2f" stroke-linecap="round" stroke-linejoin="round" stroke-width="2"/><circle cx="1.488" cy="1.488" r="1.488" transform="translate(48.504 33.121)" fill="#ff7d2f"/><circle cx="1.799" cy="1.799" r="1.799" transform="translate(52.494 38.541)" fill="#ff7d2f" stroke="#ff7d2f" stroke-linecap="round" stroke-linejoin="round" stroke-width="2"/><path d="M43.973,15.425a4.987,4.987,0,0,0-2.615-5.388L40.527,14.3l-2.732-.532.831-4.267a4.984,4.984,0,0,0-2.6,8.909L32.6,35.995l4.4.857L40.424,19.27A4.981,4.981,0,0,0,43.973,15.425Z" fill="#fff" stroke="#ff7d2f" stroke-linecap="round" stroke-linejoin="round" stroke-width="1"/><path d="M41.391,48.623H36.547l-2.422,4.195,2.422,4.195h4.844l2.422-4.195Zm-2.422,5.795a1.6,1.6,0,1,1,1.6-1.6A1.6,1.6,0,0,1,38.969,54.418Z" fill="#fff" stroke="#ff7d2f" stroke-linecap="round" stroke-linejoin="round" stroke-width="1"/><path d="M43.813,38.935l-4.195,2.422V46.2l4.195,2.422L48.008,46.2V41.357Zm0,6.444a1.6,1.6,0,1,1,1.6-1.6A1.6,1.6,0,0,1,43.813,45.379Z" fill="#fff" stroke="#ff7d2f" stroke-linecap="round" stroke-linejoin="round" stroke-width="1"/><path d="M54.086,51.727a4.215,4.215,0,0,0-.046-.588l1.287-.744-1.514-2.622-1.286.743a4.082,4.082,0,0,0-1.021-.59V46.441H48.479v1.485a4.082,4.082,0,0,0-1.021.59l-1.286-.743L44.658,50.4l1.288.744a3.708,3.708,0,0,0,0,1.177l-1.288.743,1.514,2.622,1.286-.743a4.086,4.086,0,0,0,1.021.591v1.484h3.027V55.529a4.086,4.086,0,0,0,1.021-.591l1.286.743,1.514-2.622-1.287-.743A4.229,4.229,0,0,0,54.086,51.727Zm-4.093,1.425a1.425,1.425,0,1,1,1.425-1.425A1.426,1.426,0,0,1,49.993,53.152Z" fill="#fff" stroke="#ff7d2f" stroke-linecap="round" stroke-linejoin="round" stroke-width="1"/><rect width="64" height="64" fill="none"/></g></svg>