<svg xmlns="http://www.w3.org/2000/svg" xmlns:xlink="http://www.w3.org/1999/xlink" width="64" height="64" viewBox="0 0 64 64"><defs><clipPath id="a"><rect width="64" height="64" fill="none"/></clipPath></defs><g clip-path="url(#a)"><g transform="translate(504)"><rect width="5.784" height="18.015" transform="translate(-484.146 38.662) rotate(45)" fill="#ff7d2f" opacity="0.5"/><rect width="5.784" height="18.015" transform="translate(-484.146 38.662) rotate(45)" stroke-width="2" stroke="#ff7d2f" stroke-linecap="round" stroke-linejoin="round" fill="none"/><path d="M-453.56,12.166l-7.351,1.317L-485.118,37.69l6.034,6.034,24.207-24.207Z" fill="#fff" stroke="#ff7d2f" stroke-linecap="round" stroke-linejoin="round" stroke-width="2"/><rect width="19.84" height="3.982" transform="translate(-489.116 33.693) rotate(45)" stroke-width="2" stroke="#ff7d2f" stroke-linecap="round" stroke-linejoin="round" fill="#fff"/></g><g transform="translate(504)"><rect width="5.784" height="18.015" transform="translate(-447.677 51.401) rotate(135)" fill="#ff7d2f" opacity="0.5"/><rect width="5.784" height="18.015" transform="translate(-447.677 51.401) rotate(135)" stroke-width="2" stroke="#ff7d2f" stroke-linecap="round" stroke-linejoin="round" fill="none"/><path d="M-491,12.166l7.351,1.317,24.207,24.207-6.034,6.034-24.207-24.207Z" fill="#fff" stroke="#ff7d2f" stroke-linecap="round" stroke-linejoin="round" stroke-width="2"/><rect width="19.84" height="3.982" transform="translate(-452.63 36.509) rotate(135)" stroke-width="2" stroke="#ff7d2f" stroke-linecap="round" stroke-linejoin="round" fill="#fff"/></g><path d="M-489.116,27.945s-3.177,1.374-3.388,4.121c0,0-.979-3.694-3.572-4.121a6.888,6.888,0,0,0,3.572-4.121S-491.01,27.487-489.116,27.945Z" transform="translate(504)" fill="#fff" stroke="#ff7d2f" stroke-linecap="round" stroke-linejoin="round" stroke-width="2"/><path d="M-468.52,11.084s-3.176,1.374-3.388,4.121c0,0-.979-3.693-3.572-4.121a6.888,6.888,0,0,0,3.572-4.121S-470.414,10.626-468.52,11.084Z" transform="translate(504)" fill="#fff" stroke="#ff7d2f" stroke-linecap="round" stroke-linejoin="round" stroke-width="2"/><circle cx="1" cy="1" r="1" transform="translate(37.815 6.519)" fill="#ff7d2f" stroke="#ff7d2f" stroke-linecap="round" stroke-linejoin="round" stroke-width="2"/><rect width="64" height="64" fill="none"/></g></svg>