<svg xmlns="http://www.w3.org/2000/svg" xmlns:xlink="http://www.w3.org/1999/xlink" width="64" height="64" viewBox="0 0 64 64"><defs><clipPath id="a"><rect width="64" height="64" fill="none"/></clipPath></defs><g clip-path="url(#a)"><path d="M-144.712,20.785s-3.083,1.333-3.288,4c0,0-.95-3.585-3.467-4a6.686,6.686,0,0,0,3.467-4S-146.55,20.34-144.712,20.785Z" transform="translate(168)" fill="#fff" stroke="#ff7d2f" stroke-linecap="round" stroke-linejoin="round" stroke-width="2"/><path d="M-154.42,32s-3.084,1.333-3.289,4c0,0-.95-3.585-3.467-4a6.686,6.686,0,0,0,3.467-4S-156.259,31.556-154.42,32Z" transform="translate(168)" fill="#fff" stroke="#ff7d2f" stroke-linecap="round" stroke-linejoin="round" stroke-width="2"/><g transform="translate(168)"><rect width="11.654" height="11.654" transform="translate(-157.798 45.399)" fill="#fff"/><rect width="11.654" height="11.654" transform="translate(-157.798 45.399)" fill="#ff7d2f" opacity="0.5"/><rect width="11.654" height="11.654" transform="translate(-157.798 45.399)" stroke-width="2" stroke="#ff7d2f" stroke-linecap="round" stroke-linejoin="round" fill="none"/></g><g transform="translate(168)"><rect width="11.654" height="11.654" transform="translate(-146.144 45.399)" fill="#fff"/><rect width="11.654" height="11.654" transform="translate(-146.144 45.399)" fill="#ff7d2f" opacity="0.5"/><rect width="11.654" height="11.654" transform="translate(-146.144 45.399)" stroke-width="2" stroke="#ff7d2f" stroke-linecap="round" stroke-linejoin="round" fill="none"/></g><g transform="translate(168)"><rect width="11.654" height="11.654" transform="translate(-151.971 33.699)" fill="#fff"/><rect width="11.654" height="11.654" transform="translate(-151.971 33.699)" fill="#ff7d2f" opacity="0.5"/><rect width="11.654" height="11.654" transform="translate(-151.971 33.699)" stroke-width="2" stroke="#ff7d2f" stroke-linecap="round" stroke-linejoin="round" fill="none"/></g><g transform="translate(168)"><path d="M-117.1,34.088a7.8,7.8,0,0,1-1.274-2.6c-.9-2.427-2.209-5.92-6.256-7.668a5.391,5.391,0,0,1-4.037,1.923,5.483,5.483,0,0,1-4.352-2.312,9.514,9.514,0,0,0-4.732,2.838c-1.337,1.308-2.14,2.1-6.058,1.342a2,2,0,0,0-2.342,1.585,2,2,0,0,0,1.585,2.342c5.523,1.066,7.623-.461,9.614-2.412a6.353,6.353,0,0,1,2.268-1.619,2.455,2.455,0,0,0-.187.714l-2.466,27.148a2.5,2.5,0,0,0,2.264,2.717c.077.007.153.01.229.01a2.5,2.5,0,0,0,2.488-2.273l1.094-12.051a3.5,3.5,0,0,0,.626.063,3.453,3.453,0,0,0,.664-.067l1.057,12.047a2.5,2.5,0,0,0,2.487,2.281c.074,0,.148,0,.222-.01a2.5,2.5,0,0,0,2.271-2.709l-2.328-26.529a11.441,11.441,0,0,1,2.139,4.034,10.173,10.173,0,0,0,2.333,4.16,1.993,1.993,0,0,0,1.345.521,1.993,1.993,0,0,0,1.48-.655A2,2,0,0,0-117.1,34.088Z" fill="#ff7d2f"/><path d="M-128.67,24.748c2.67,0,4.842-2.644,4.842-5.895,0-.237-.015-.47-.037-.7h-9.608a6.986,6.986,0,0,0-.038.7C-133.511,22.1-131.339,24.748-128.67,24.748Z" fill="#ff7d2f"/><path d="M-122.967,14.584a4.512,4.512,0,0,0-1.062-3.242,6.853,6.853,0,0,0-2.434-1.511l-.2,2.071a.5.5,0,0,1-.5.45l-.051,0a.5.5,0,0,1-.448-.548l.274-2.757c-.022.033-.161-.062-.388-.062h-1.787a.506.506,0,0,0-.391.136l.276,2.683a.5.5,0,0,1-.448.548.5.5,0,0,1-.548-.448l-.205-2.07a6.882,6.882,0,0,0-2.431,1.509,4.52,4.52,0,0,0-1.062,3.243Z" fill="#ff7d2f"/><rect width="13.688" height="1.569" rx="0.5" transform="translate(-135.514 15.584)" fill="#ff7d2f"/></g><g transform="translate(168)"><rect width="17.654" height="3.582" transform="translate(-121.022 36.124) rotate(-65.267)" fill="#fff"/><rect width="17.654" height="3.582" transform="translate(-121.022 36.124) rotate(-65.267)" fill="#ff7d2f" opacity="0.5"/><rect width="17.654" height="3.582" transform="translate(-121.022 36.124) rotate(-65.267)" stroke-width="1" stroke="#ff7d2f" stroke-linecap="round" stroke-linejoin="round" fill="none"/><path d="M-108.111,25.577l-8.8-4.052,1.515-3.288,5.407,2.491,2.766,2.916Z" fill="#fff" stroke="#ff7d2f" stroke-linecap="round" stroke-linejoin="round" stroke-width="1"/></g><g transform="translate(168)"><path d="M-137.344,53.453a.257.257,0,0,0,0-.372l-1.207-1.207.835-.836a.256.256,0,0,0,0-.371.256.256,0,0,0-.371,0l-.372.371-2.785-2.786a.24.24,0,0,0-.239-.066l-1.393.279a.286.286,0,0,0-.212.212l-.279,1.38a.3.3,0,0,0,.066.238l2.786,2.786-.371.372a.256.256,0,0,0,0,.371.262.262,0,0,0,.186.08.261.261,0,0,0,.185-.08l.836-.836,1.22,1.208a.264.264,0,0,0,.186.079.261.261,0,0,0,.186-.079l.743-.743Zm-1.579-1.208,1.022,1.022-.372.371-1.021-1.021Zm-2.6-3.515,2.693,2.68-1.3,1.3-2.68-2.68.213-1.074Z" fill="#ff7d2f"/><path d="M-142.08,49.679a.257.257,0,0,1,0-.372.256.256,0,0,1,.371,0l1.95,1.95a.256.256,0,0,1,0,.372.26.26,0,0,1-.185.079.261.261,0,0,1-.186-.079Z" fill="#ff7d2f"/></g><path d="M-149.191,36.126a.335.335,0,0,0-.266.074.264.264,0,0,0-.074.266l.473,2.367a.29.29,0,0,0,.207.222c.015.029.044.029.074.029A.291.291,0,0,0-148.57,39l.74-.74,1.656,1.656-.4,1.184a.276.276,0,0,0,.074.3l1.449,1.449a.292.292,0,0,0,.207.089.13.13,0,0,0,.074-.015.3.3,0,0,0,.207-.192l.3-.9.133.134a.291.291,0,0,0,.207.088.291.291,0,0,0,.207-.088.286.286,0,0,0,0-.415l-.133-.133.9-.3a.271.271,0,0,0,.193-.207.283.283,0,0,0-.074-.281l-1.45-1.449a.307.307,0,0,0-.3-.074l-1.183.4-1.656-1.656.739-.74a.306.306,0,0,0,.074-.3.31.31,0,0,0-.222-.207Zm.592,2.056-.281-1.39,1.39.281Zm3.623,3.905-.976-.977.237-.724.917.917.059.059Zm.666-1.139-.976-.976.724-.237.976.976Z" transform="translate(168)" fill="#ff7d2f"/><path d="M-150.419,49.38a2.633,2.633,0,0,1-1.552-.776,2.636,2.636,0,0,1-1.552.776,1.5,1.5,0,0,1-1.165-.582v3.686c0,1.766,1.553,1.165,2.717,2.329,1.164-1.164,2.716-.563,2.716-2.329V48.8A1.5,1.5,0,0,1-150.419,49.38Zm-.369,3.881a4.722,4.722,0,0,0-1.164.543l-.019-.02V51.708h-1.94V50.117a2.316,2.316,0,0,0,.388.039,2.974,2.974,0,0,0,1.552-.543v2.1h1.94v.776C-150.031,53.008-150.109,53.028-150.788,53.261Z" transform="translate(168)" fill="#ff7d2f"/><rect width="64" height="64" fill="none"/></g></svg>