<svg xmlns="http://www.w3.org/2000/svg" xmlns:xlink="http://www.w3.org/1999/xlink" width="100" height="100" viewBox="0 0 100 100"><defs><clipPath id="a"><rect width="100" height="100" fill="none"/></clipPath></defs><g clip-path="url(#a)"><g transform="translate(-120)"><path d="M135.741,70.365s-.214-19.884,10.844-19.884h3.559c11.058,0,7.812,12.7,18.49,12.7" fill="none" stroke="#ff7d2f" stroke-linecap="round" stroke-linejoin="round" stroke-width="3.844"/><line y2="15.516" transform="translate(148.507 55.426)" stroke-width="13.455" stroke="#ff7d2f" stroke-linecap="round" stroke-linejoin="round" fill="#ff7d2f"/><line x1="4.088" y2="36.41" transform="translate(141.968 54.999)" stroke-width="7.688" stroke="#ff7d2f" stroke-linecap="round" stroke-linejoin="round" fill="none"/><line x2="2.415" y2="36.41" transform="translate(150.847 54.999)" stroke-width="7.688" stroke="#ff7d2f" stroke-linecap="round" stroke-linejoin="round" fill="none"/><circle cx="5.468" cy="5.468" r="5.468" transform="translate(143.039 35.831)" fill="#ff7d2f"/></g><g transform="translate(-120)"><path d="M206.222,70.365s.213-19.884-10.844-19.884h-3.559c-11.058,0-7.812,12.7-18.491,12.7" fill="none" stroke="#ff7d2f" stroke-linecap="round" stroke-linejoin="round" stroke-width="3.844"/><line y2="15.516" transform="translate(193.456 55.426)" stroke-width="13.455" stroke="#ff7d2f" stroke-linecap="round" stroke-linejoin="round" fill="#ff7d2f"/><line x2="4.088" y2="36.41" transform="translate(195.907 54.999)" stroke-width="7.688" stroke="#ff7d2f" stroke-linecap="round" stroke-linejoin="round" fill="none"/><line x1="2.415" y2="36.41" transform="translate(188.701 54.999)" stroke-width="7.688" stroke="#ff7d2f" stroke-linecap="round" stroke-linejoin="round" fill="none"/><circle cx="5.468" cy="5.468" r="5.468" transform="translate(187.988 35.831)" fill="#ff7d2f"/></g><path d="M151.957,32.456V12.844a3.231,3.231,0,0,1,3.232-3.231H177.2a3.231,3.231,0,0,1,3.232,3.231v10.4a3.232,3.232,0,0,1-3.232,3.232H156.617Z" transform="translate(-120)" fill="#fff" stroke="#ff7d2f" stroke-linecap="round" stroke-linejoin="round" stroke-width="1"/><path d="M185.37,46.792l-4.657-3.212V32.456a2.241,2.241,0,0,0-2.241-2.241H163.2a2.241,2.241,0,0,0-2.241,2.241V44.551a2.241,2.241,0,0,0,2.241,2.241H185.37Z" transform="translate(-120)" fill="#fff" stroke="#ff7d2f" stroke-linecap="round" stroke-linejoin="round" stroke-width="1"/><line x2="17.185" transform="translate(37.963 14.058)" stroke-width="2" stroke="#ff7d2f" stroke-linecap="round" stroke-linejoin="round" fill="#fff"/><line x2="17.185" transform="translate(37.963 17.965)" stroke-width="2" stroke="#ff7d2f" stroke-linecap="round" stroke-linejoin="round" fill="#fff"/><line x2="17.185" transform="translate(37.963 21.873)" stroke-width="2" stroke="#ff7d2f" stroke-linecap="round" stroke-linejoin="round" fill="#fff"/><line x2="11.279" transform="translate(45.203 34.597)" stroke-width="2" stroke="#ff7d2f" stroke-linecap="round" stroke-linejoin="round" fill="#fff"/><line x2="11.279" transform="translate(45.203 38.504)" stroke-width="2" stroke="#ff7d2f" stroke-linecap="round" stroke-linejoin="round" fill="#fff"/><line x2="11.279" transform="translate(45.203 42.411)" stroke-width="2" stroke="#ff7d2f" stroke-linecap="round" stroke-linejoin="round" fill="#fff"/><rect width="100" height="100" fill="none"/></g></svg>