<svg xmlns="http://www.w3.org/2000/svg" xmlns:xlink="http://www.w3.org/1999/xlink" width="100" height="100" viewBox="0 0 100 100"><defs><clipPath id="a"><rect width="100" height="100" fill="none"/></clipPath></defs><g clip-path="url(#a)"><circle cx="2.374" cy="2.374" r="2.374" transform="translate(19.01 36.833)" fill="#ff7d2f"/><circle cx="2.374" cy="2.374" r="2.374" transform="translate(80.657 36.833)" fill="#ff7d2f"/><circle cx="2.374" cy="2.374" r="2.374" transform="translate(50.115 16.278)" fill="#ff7d2f"/><g opacity="0.7"><circle cx="6.851" cy="6.851" r="6.851" transform="translate(45.638 52.214)" fill="#ff7d2f"/><line x1="8.934" y1="5.823" transform="translate(43.556 53.243)" stroke-width="2" stroke="#ff7d2f" stroke-linecap="round" stroke-linejoin="round" fill="#ff7d2f"/><line y1="5.823" x2="8.934" transform="translate(52.489 53.243)" stroke-width="2" stroke="#ff7d2f" stroke-linecap="round" stroke-linejoin="round" fill="#ff7d2f"/></g><circle cx="15.064" cy="15.064" r="15.064" transform="translate(37.557 44.05)" fill="#ff7d2f" opacity="0.3"/><circle cx="15.064" cy="15.064" r="15.064" transform="translate(37.557 44.05)" fill="none" stroke="#ff7d2f" stroke-linecap="round" stroke-linejoin="round" stroke-width="2"/><path d="M51.165,69.126a10.133,10.133,0,0,0,1.456.1" fill="none" stroke="#fff" stroke-linecap="round" stroke-linejoin="round" stroke-width="2"/><path d="M42.506,59.115a10.111,10.111,0,0,0,4.811,8.615" fill="none" stroke="#fff" stroke-linecap="round" stroke-linejoin="round" stroke-width="2"/><rect width="4.98" height="11.864" transform="translate(61.512 71.527) rotate(-45)" stroke-width="2" stroke="#ff7d2f" stroke-linecap="round" stroke-linejoin="round" fill="none"/><rect width="4.98" height="13.037" transform="translate(69.901 79.916) rotate(-45)" stroke-width="2" stroke="#ff7d2f" stroke-linecap="round" stroke-linejoin="round" fill="#ff7d2f"/><rect width="100" height="100" fill="none"/><path d="M83.31,38.792,52.769,18.237a.5.5,0,0,0-.555,0L21.108,38.79a.5.5,0,0,0,.006.839l15.113,9.648c.172-.286.335-.578.522-.854L22.3,39.2,52.486,19.253,82.124,39.2,68.135,48.3c.189.274.359.561.533.845L83.3,39.626a.5.5,0,0,0,.007-.834Z" fill="#ff7d2f"/></g></svg>