<svg xmlns="http://www.w3.org/2000/svg" xmlns:xlink="http://www.w3.org/1999/xlink" width="100" height="100" viewBox="0 0 100 100"><defs><clipPath id="a"><rect width="100" height="100" fill="none"/></clipPath></defs><g clip-path="url(#a)"><path d="M50.055,49.459,45.961,31.484,21.539,19s-4.87,4.869,1.056,7.748c0,0-1.876,5.488,3.211,7.626-1.331,4.491-.529,6.231,2.674,7.175-.572,2.04.979,5.426,4.122,5.443,1.326,3.866,2.918,4.758,5.965,4.193,1.033,2.805.432,4.427,4,5.77S50.055,49.459,50.055,49.459Z" fill="#fff" stroke="#ff7d2f" stroke-linecap="round" stroke-linejoin="round" stroke-width="2"/><path d="M54.255,53.659l17.976,4.094L84.719,82.175s-4.869,4.87-7.747-1.056c0,0-5.488,1.876-7.626-3.21-4.492,1.33-6.231.528-7.176-2.674-2.04.571-5.426-.979-5.443-4.123-3.866-1.326-4.758-2.917-4.193-5.965-2.805-1.033-4.427-.432-5.769-4S54.255,53.659,54.255,53.659Z" fill="#fff" stroke="#ff7d2f" stroke-linecap="round" stroke-linejoin="round" stroke-width="2"/><path d="M35.148,38.565s11.68,2.288,18.585,9.193l2.223,2.223c6.9,6.905,9.193,18.585,9.193,18.585" fill="none" stroke="#ff7d2f" stroke-linecap="round" stroke-linejoin="round" stroke-width="6"/><line x1="11.858" y2="11.858" transform="translate(40.339 51.769)" stroke-width="12" stroke="#ff7d2f" stroke-linecap="round" stroke-linejoin="round" fill="#ff7d2f"/><circle cx="8" cy="8" r="8" transform="translate(57.149 31.158)" fill="#ff7d2f"/><line x1="27.553" y2="22.311" transform="translate(13.782 59.712)" stroke-width="7" stroke="#ff7d2f" stroke-linecap="round" stroke-linejoin="round" fill="none"/><line x1="22.091" y2="27.773" transform="translate(22.065 62.532)" stroke-width="7" stroke="#ff7d2f" stroke-linecap="round" stroke-linejoin="round" fill="none"/><path d="M88.942,48s-3.854,1.667-4.112,5c0,0-1.187-4.481-4.333-5a8.356,8.356,0,0,0,4.333-5S86.643,47.444,88.942,48Z" fill="#fff" stroke="#ff7d2f" stroke-linecap="round" stroke-linejoin="round" stroke-width="2"/><rect width="3.651" height="16.515" transform="translate(37.304 45.929) rotate(-152.119)" fill="#fff"/><rect width="3.651" height="16.515" transform="translate(37.304 45.929) rotate(-152.119)" fill="#ff7d2f" opacity="0.5"/><rect width="4.548" height="16.515" transform="translate(37.701 46.138) rotate(-152.119)" stroke-width="2" stroke="#ff7d2f" stroke-linecap="round" stroke-linejoin="round" fill="none"/><path d="M55.514,7.606l.156,4.528-10.263,19.4L41.42,29.422l10.263-19.4Z" fill="#fff" stroke="#ff7d2f" stroke-linecap="round" stroke-linejoin="round" stroke-width="2"/><rect width="13.246" height="3.739" transform="matrix(-0.884, -0.468, 0.468, -0.884, 47.902, 36.157)" stroke-width="2" stroke="#ff7d2f" stroke-linecap="round" stroke-linejoin="round" fill="#fff"/><rect width="100" height="100" fill="none"/></g></svg>