<svg xmlns="http://www.w3.org/2000/svg" xmlns:xlink="http://www.w3.org/1999/xlink" width="100" height="100" viewBox="0 0 100 100"><defs><clipPath id="a"><rect width="100" height="100" fill="none"/></clipPath></defs><g clip-path="url(#a)"><path d="M170,35.586l-6.986-3.626-23.9,10.675,1.444,23.41,6.986,3.626-.01-22.86Z" transform="translate(-120)" fill="#ff7d2f"/><path d="M170,35.586l6.986-3.626,23.9,10.675-1.444,23.41-6.986,3.626.01-22.86Z" transform="translate(-120)" fill="#ff7d2f"/><path d="M192.459,46.811,170,35.586,147.541,46.811,170,58.036Z" transform="translate(-120)" fill="#ff7d2f" opacity="0.5"/><path d="M170,35.586" transform="translate(-120)" fill="none" stroke="#ff7d2f" stroke-linecap="round" stroke-linejoin="round" stroke-width="2"/><path d="M192.459,45.83,170,34.605,147.541,45.83" transform="translate(-120)" fill="none" stroke="#ff7d2f" stroke-linecap="round" stroke-linejoin="round" stroke-width="2"/><rect width="32.29" height="48.226" transform="translate(33.855 15.989)" stroke-width="2" stroke="#ff7d2f" stroke-linecap="round" stroke-linejoin="round" fill="#fff"/><rect width="32.29" height="48.226" transform="translate(33.855 15.989)" fill="#ff7d2f" opacity="0.5"/><g transform="translate(-120)"><path d="M158.749,41.827l1.551-.151a1.89,1.89,0,0,0,.567,1.147,1.718,1.718,0,0,0,1.155.366,1.78,1.78,0,0,0,1.161-.325.974.974,0,0,0,.389-.762.716.716,0,0,0-.164-.476,1.314,1.314,0,0,0-.573-.342q-.281-.1-1.275-.345a4.324,4.324,0,0,1-1.8-.78,2.054,2.054,0,0,1-.727-1.589,2.033,2.033,0,0,1,.342-1.128,2.149,2.149,0,0,1,.985-.8,3.951,3.951,0,0,1,1.553-.274,3.333,3.333,0,0,1,2.237.651,2.3,2.3,0,0,1,.789,1.739l-1.593.07a1.357,1.357,0,0,0-.44-.875,1.6,1.6,0,0,0-1.009-.267,1.83,1.83,0,0,0-1.087.285.579.579,0,0,0-.253.491.607.607,0,0,0,.237.479,4.2,4.2,0,0,0,1.464.527,7.771,7.771,0,0,1,1.72.568,2.222,2.222,0,0,1,.873.8,2.486,2.486,0,0,1-.063,2.527,2.261,2.261,0,0,1-1.065.88,4.478,4.478,0,0,1-1.718.288,3.421,3.421,0,0,1-2.3-.692A3.007,3.007,0,0,1,158.749,41.827Z" fill="#fff"/><path d="M166.5,36.5h2.912a5.665,5.665,0,0,1,1.5.151,2.642,2.642,0,0,1,1.19.727,3.41,3.41,0,0,1,.753,1.278,5.8,5.8,0,0,1,.259,1.865,5.2,5.2,0,0,1-.242,1.68,3.465,3.465,0,0,1-.846,1.394,2.778,2.778,0,0,1-1.119.63,4.794,4.794,0,0,1-1.411.167h-3Zm1.594,1.336v5.226h1.189a4.3,4.3,0,0,0,.964-.075,1.466,1.466,0,0,0,.643-.328,1.675,1.675,0,0,0,.418-.762,5.171,5.171,0,0,0,.161-1.445,4.733,4.733,0,0,0-.161-1.405,1.818,1.818,0,0,0-.453-.765,1.513,1.513,0,0,0-.738-.371,7.149,7.149,0,0,0-1.307-.075Z" fill="#fff"/><path d="M174.49,44.4V36.5h1.594v3.505L179.3,36.5h2.142l-2.971,3.074,3.132,4.818h-2.061l-2.17-3.7-1.292,1.319V44.4Z" fill="#fff"/></g><g transform="translate(-120)"><circle cx="2.582" cy="2.582" r="2.582" transform="translate(168.386 22.152)" fill="none" stroke="#fff" stroke-miterlimit="10" stroke-width="2"/><line x1="3.113" y2="3.113" transform="translate(166.105 26.622)" fill="none" stroke="#fff" stroke-linecap="round" stroke-miterlimit="10" stroke-width="2"/></g><rect width="100" height="100" fill="none"/><path d="M192.449,69.672l-22.46,14.775L147.541,69.672l-1-21.8,23.454,9.547,23.454-9.547Z" transform="translate(-120)" fill="#fff"/><g transform="translate(-120)"><path d="M170,80.9" fill="none" stroke="#ff7d2f" stroke-linecap="round" stroke-linejoin="round" stroke-width="4"/><path d="M147.541,46.811,170,58.036l22.459-11.225" fill="none" stroke="#ff7d2f" stroke-linecap="round" stroke-linejoin="round" stroke-width="4"/><line y2="22.86" transform="translate(170 58.036)" stroke-width="4" stroke="#ff7d2f" stroke-linecap="round" stroke-linejoin="round" fill="none"/></g><path d="M192.449,69.672,169.995,80.894,147.541,69.672v7.107L169.99,90.947l22.459-14.169Z" transform="translate(-120)" fill="#ff7d2f"/></g></svg>