<svg xmlns="http://www.w3.org/2000/svg" width="160" height="160" viewBox="0 0 160 160"><defs><style>.a{fill:#ffc600;}.b,.c{fill:none;}.b{stroke:#ffc600;stroke-linecap:round;stroke-linejoin:round;stroke-width:4px;}</style></defs><circle class="a" cx="3.324" cy="3.324" r="3.324" transform="translate(62.31 37.613)"/><circle class="a" cx="3.324" cy="3.324" r="3.324" transform="translate(62.31 54.201)"/><circle class="a" cx="3.324" cy="3.324" r="3.324" transform="translate(91.041 54.201)"/><circle class="a" cx="3.324" cy="3.324" r="3.324" transform="translate(91.041 37.613)"/><circle class="a" cx="3.324" cy="3.324" r="3.324" transform="translate(76.676 62.495)"/><circle class="a" cx="3.324" cy="3.324" r="3.324" transform="translate(76.676 29.319)"/><path class="a" d="M80,67.819a2,2,0,0,1-1-.268L64.635,59.258a2,2,0,0,1-1-1.733V40.937a2,2,0,0,1,1-1.732L79,30.911a2,2,0,0,1,2,0l14.365,8.294a2,2,0,0,1,1,1.732V57.525a2,2,0,0,1-1,1.733L81,67.551A2,2,0,0,1,80,67.819ZM67.635,56.371,80,63.509l12.365-7.138V42.092L80,34.953,67.635,42.092Z"/><path class="b" d="M94.366,57.525"/><path class="b" d="M65.634,40.937"/><path class="a" d="M80,51.231A2,2,0,0,1,79,47.5l14.365-8.294a2,2,0,1,1,2,3.465L81,50.964A2,2,0,0,1,80,51.231Z"/><path class="a" d="M80,51.231a2,2,0,0,1-1-.267L64.635,42.67a2,2,0,1,1,2-3.465L81,47.5a2,2,0,0,1-1,3.732Z"/><path class="a" d="M80,95.7a2,2,0,0,1-2-2V49.231a2,2,0,0,1,4,0V93.7A2,2,0,0,1,80,95.7Z"/><circle class="a" cx="3.324" cy="3.324" r="3.324" transform="translate(62.31 82.078)"/><circle class="a" cx="3.324" cy="3.324" r="3.324" transform="translate(62.31 98.666)"/><circle class="a" cx="3.324" cy="3.324" r="3.324" transform="translate(91.041 98.666)"/><circle class="a" cx="3.324" cy="3.324" r="3.324" transform="translate(91.041 82.078)"/><circle class="a" cx="3.324" cy="3.324" r="3.324" transform="translate(76.676 106.96)"/><circle class="a" cx="3.324" cy="3.324" r="3.324" transform="translate(76.676 73.784)"/><path class="a" d="M80,112.285a2,2,0,0,1-1-.268l-14.365-8.294a2,2,0,0,1-1-1.732V85.4a2,2,0,0,1,1-1.732L79,75.376a2,2,0,0,1,2,0L95.365,83.67a2,2,0,0,1,1,1.732v16.589a2,2,0,0,1-1,1.732L81,112.017A2,2,0,0,1,80,112.285ZM67.635,100.837,80,107.975l12.365-7.138V86.556L80,79.418,67.635,86.556Z"/><path class="b" d="M94.366,101.991"/><path class="b" d="M65.634,85.4"/><circle class="a" cx="3.324" cy="3.324" r="3.324" transform="translate(23.605 104.424)"/><circle class="a" cx="3.324" cy="3.324" r="3.324" transform="translate(23.605 121.012)"/><circle class="a" cx="3.324" cy="3.324" r="3.324" transform="translate(52.337 121.012)"/><circle class="a" cx="3.324" cy="3.324" r="3.324" transform="translate(52.337 104.424)"/><circle class="a" cx="3.324" cy="3.324" r="3.324" transform="translate(37.971 129.306)"/><circle class="a" cx="3.324" cy="3.324" r="3.324" transform="translate(37.971 96.13)"/><path class="a" d="M41.295,134.631a1.992,1.992,0,0,1-1-.268L25.93,126.069a2,2,0,0,1-1-1.732V107.749a2,2,0,0,1,1-1.733l14.365-8.294a2,2,0,0,1,2,0l14.366,8.294a2,2,0,0,1,1,1.733v16.588a2,2,0,0,1-1,1.732l-14.366,8.294A2,2,0,0,1,41.295,134.631ZM28.93,123.182l12.365,7.139,12.366-7.139V108.9l-12.366-7.139L28.93,108.9Z"/><path class="b" d="M55.661,124.337"/><path class="b" d="M26.93,107.749"/><path class="a" d="M41.3,118.043a2,2,0,0,1-1-3.733L79,91.965a2,2,0,1,1,2,3.464L42.295,117.775A1.992,1.992,0,0,1,41.3,118.043Z"/><path class="a" d="M41.293,118.043a1.989,1.989,0,0,1-1-.268L25.93,109.481a2,2,0,1,1,2-3.465l14.365,8.294a2,2,0,0,1-1,3.733Z"/><path class="a" d="M41.295,134.02a2,2,0,0,1-2-2V116.043a2,2,0,0,1,4,0V132.02A2,2,0,0,1,41.295,134.02Z"/><circle class="a" cx="3.324" cy="3.324" r="3.324" transform="translate(129.746 104.424)"/><circle class="a" cx="3.324" cy="3.324" r="3.324" transform="translate(129.746 121.012)"/><circle class="a" cx="3.324" cy="3.324" r="3.324" transform="translate(101.015 121.012)"/><circle class="a" cx="3.324" cy="3.324" r="3.324" transform="translate(101.015 104.424)"/><circle class="a" cx="3.324" cy="3.324" r="3.324" transform="translate(115.38 129.306)"/><circle class="a" cx="3.324" cy="3.324" r="3.324" transform="translate(115.38 96.13)"/><path class="a" d="M118.705,134.631a2,2,0,0,1-1-.268l-14.366-8.294a2,2,0,0,1-1-1.732V107.749a2,2,0,0,1,1-1.733l14.366-8.294a2,2,0,0,1,2,0l14.365,8.294a2,2,0,0,1,1,1.733v16.588a2,2,0,0,1-1,1.732l-14.365,8.294A1.992,1.992,0,0,1,118.705,134.631Zm-12.366-11.449,12.366,7.139,12.365-7.139V108.9l-12.365-7.139L106.339,108.9Zm26.731,1.155h0Z"/><path class="b" d="M104.339,124.337"/><path class="b" d="M133.07,107.749"/><path class="a" d="M118.7,118.043a1.992,1.992,0,0,1-1-.268L79,95.429a2,2,0,0,1,2-3.464l38.705,22.345a2,2,0,0,1-1,3.733Z"/><path class="a" d="M118.707,118.043a2,2,0,0,1-1-3.733l14.365-8.294a2,2,0,1,1,2,3.465l-14.365,8.294A1.987,1.987,0,0,1,118.707,118.043Z"/><path class="a" d="M118.705,134.02a2,2,0,0,1-2-2V116.043a2,2,0,0,1,4,0V132.02A2,2,0,0,1,118.705,134.02Z"/><rect class="c" width="160" height="160"/></svg>