<svg xmlns="http://www.w3.org/2000/svg" width="160" height="160" viewBox="0 0 160 160"><defs><style>.a{opacity:0.5;}.b{fill:#ffc600;}.c{fill:none;}</style></defs><g class="a"><rect class="b" width="15.123" height="42.104" transform="translate(30.602 42.742) rotate(30)"/></g><path class="b" d="M49.293,62.193c-3.447,0-8.861-3.729-9.916-4.48A2,2,0,0,1,41.7,54.454c2.093,1.487,5.877,3.668,7.51,3.737a17.624,17.624,0,0,0,2.65-1.941c4.165-3.385,11.133-9.051,19.777-4.609A2,2,0,0,1,69.805,55.2c-6.32-3.245-11.583,1.03-15.425,4.155-2.017,1.64-3.474,2.824-5.04,2.84Z"/><path class="b" d="M115.257,105.776a8.724,8.724,0,0,1-5.2-1.931c-7.207-5.348-11.118-8-11.158-8.022a2,2,0,1,1,2.239-3.314c.16.108,4.013,2.714,11.3,8.124,2.049,1.52,3.8,1.532,5.065.031a5.247,5.247,0,0,0-.4-6.983c-4.741-4.528-13.067-11.732-14.5-12.97L74.657,67.892c-1.322,2.241-3.9,6.611-6.61,11.167-2.115,3.56-5.751,4.636-9.265,2.739-3.329-1.8-5.788-6.065-3.953-9.822,2.305-4.721,8.8-16.826,9.071-17.339a2,2,0,0,1,.976-.893L79.686,47.4a1.992,1.992,0,0,1,1.5-.028l28.024,10.746,9.151-3.858a2,2,0,0,1,1.553,3.686l-9.893,4.17a1.99,1.99,0,0,1-1.492.024L80.514,51.4,67.1,57.145c-1.379,2.578-6.693,12.532-8.672,16.586-.735,1.507.587,3.644,2.261,4.547,1.594.863,2.916.437,3.923-1.262,3.892-6.548,7.52-12.708,7.52-12.709a2,2,0,0,1,2.558-.8l29.842,13.688a2,2,0,0,1,.47.3c.1.083,9.621,8.281,14.871,13.295a9.244,9.244,0,0,1,.693,12.453A6.965,6.965,0,0,1,115.257,105.776Z"/><path class="b" d="M107.578,114.639a8.445,8.445,0,0,1-4.607-1.459c-6.852-4.46-12.305-8.4-12.36-8.445a2,2,0,0,1,2.348-3.238c.054.038,5.431,3.929,12.193,8.331,2.358,1.531,4.039.619,5.036-.418,1.416-1.473,1.968-3.859,1.158-5a2,2,0,1,1,3.265-2.311c2.165,3.061.917,7.533-1.541,10.088A7.553,7.553,0,0,1,107.578,114.639Z"/><path class="b" d="M97.178,121.912a8.454,8.454,0,0,1-4.608-1.459c-6.852-4.46-12.305-8.405-12.36-8.445a2,2,0,0,1,2.348-3.239c.053.038,5.43,3.929,12.194,8.33,2.357,1.534,4.039.62,5.035-.417,1.417-1.472,1.969-3.858,1.157-5a2,2,0,0,1,3.266-2.31c2.166,3.059.918,7.532-1.54,10.087A7.55,7.55,0,0,1,97.178,121.912Z"/><path class="b" d="M83.566,127.42a8.453,8.453,0,0,1-4.607-1.459c-6.852-4.46-12.305-8.406-12.359-8.446a2,2,0,1,1,2.347-3.238c.054.038,5.431,3.929,12.194,8.331,2.356,1.531,4.04.619,5.036-.418,1.416-1.473,1.969-3.858,1.157-5a2,2,0,0,1,3.266-2.31c2.165,3.059.918,7.531-1.54,10.087A7.554,7.554,0,0,1,83.566,127.42Z"/><path class="b" d="M118.488,94.235a2,2,0,0,1-.93-3.771L134.2,81.736a2,2,0,0,1,1.858,3.543l-16.647,8.728A2,2,0,0,1,118.488,94.235Z"/><path class="b" d="M61.8,122.162a4.189,4.189,0,0,1-2.792-1.062l-3.891-3.466a4.2,4.2,0,0,1-.344-5.931l5.87-6.594a4.209,4.209,0,0,1,5.933-.345l3.891,3.464a4.2,4.2,0,0,1,.344,5.933l-5.871,6.595A4.2,4.2,0,0,1,61.8,122.162Zm1.986-14.452a.206.206,0,0,0-.154.059l-5.871,6.6a.2.2,0,0,0,.015.283l3.892,3.466a.226.226,0,0,0,.284-.018l5.871-6.594h0a.225.225,0,0,0-.016-.284l-3.891-3.464A.189.189,0,0,0,63.789,107.71Z"/><path class="b" d="M46.554,109.846a4.185,4.185,0,0,1-2.792-1.061l-3.891-3.464a4.205,4.205,0,0,1-.345-5.933L45.4,92.795a4.209,4.209,0,0,1,5.933-.345l3.891,3.464a4.2,4.2,0,0,1,.344,5.932l-5.871,6.6A4.191,4.191,0,0,1,46.554,109.846ZM48.54,95.395a.207.207,0,0,0-.154.06l-5.871,6.594a.225.225,0,0,0,.016.284l3.891,3.464a.2.2,0,0,0,.284-.016l5.871-6.6h0a.225.225,0,0,0-.016-.284L48.67,95.438A.194.194,0,0,0,48.54,95.395Z"/><path class="b" d="M41.084,100.985A4.174,4.174,0,0,1,38.3,99.922L34.4,96.458a4.2,4.2,0,0,1-.343-5.933L36.846,87.4a4.2,4.2,0,0,1,5.932-.345l3.891,3.464a4.205,4.205,0,0,1,.345,5.933h0l-2.785,3.128a4.175,4.175,0,0,1-2.9,1.4C41.25,100.982,41.167,100.985,41.084,100.985ZM39.988,90a.208.208,0,0,0-.154.059L37.05,93.185a.2.2,0,0,0,.015.284l3.891,3.464a.225.225,0,0,0,.284-.016l2.785-3.128a.225.225,0,0,0-.016-.284l-3.891-3.464A.189.189,0,0,0,39.988,90Zm5.532,5.121h0Z"/><path class="b" d="M54.124,116.33a4.189,4.189,0,0,1-2.792-1.062L47.441,111.8a4.2,4.2,0,0,1-.342-5.931l9.046-10.162a4.206,4.206,0,0,1,5.932-.344l3.891,3.464a4.2,4.2,0,0,1,.345,5.932h0l-9.048,10.163A4.2,4.2,0,0,1,54.124,116.33Zm5.162-18.02a.207.207,0,0,0-.153.059l-9.047,10.163a.193.193,0,0,0-.052.145.2.2,0,0,0,.067.138l3.891,3.466a.2.2,0,0,0,.284-.018L63.324,102.1a.2.2,0,0,0-.016-.284l-3.891-3.464A.2.2,0,0,0,59.286,98.31Zm5.532,5.121h0Z"/><path class="b" d="M36.856,92.391A1.987,1.987,0,0,1,35.7,92.02l-9.953-7.091a2,2,0,1,1,2.32-3.257l9.954,7.09a2,2,0,0,1-1.163,3.629Z"/><path class="b" d="M22.646,88.765a2,2,0,0,1-1-.267l-13.1-7.561a2,2,0,0,1-.733-2.732L28.87,41.742a2,2,0,0,1,2.733-.733l13.1,7.562a2,2,0,0,1,.733,2.732L24.38,87.765A2,2,0,0,1,22.646,88.765ZM12.283,78.472l9.632,5.561,19.052-33-9.632-5.562Z"/><g class="a"><rect class="b" width="15.123" height="42.104" transform="translate(150.111 79.204) rotate(150)"/></g><path class="b" d="M137.017,88.765a2,2,0,0,1-1.735-1L114.23,51.3a2,2,0,0,1,.733-2.732l13.1-7.562a2,2,0,0,1,2.732.733l21.052,36.463a2,2,0,0,1-.733,2.732l-13.1,7.561A2,2,0,0,1,137.017,88.765ZM118.695,51.036l19.052,33,9.632-5.561-19.052-33Z"/><rect class="c" width="160" height="160"/></svg>