<svg xmlns="http://www.w3.org/2000/svg" width="160" height="160" viewBox="0 0 160 160"><defs><style>.a{fill:#ff7d2f;}.b{fill:#ffc600;}.c{fill:#fff;}.d{fill:none;}</style></defs><path class="a" d="M124.208,58.171s-3.854,1.667-4.111,5c0,0-1.187-4.481-4.334-5a8.356,8.356,0,0,0,4.334-5S121.91,57.616,124.208,58.171Z"/><path class="b" d="M120.1,64.171a1,1,0,0,1-.965-.742c-.011-.038-1.068-3.865-3.53-4.271a1,1,0,0,1-.245-1.9,7.413,7.413,0,0,0,3.773-4.34,1,1,0,0,1,.9-.744.979.979,0,0,1,.992.619c.531,1.3,2.066,4.078,3.421,4.406a1,1,0,0,1,.163,1.889c-.075.033-3.307,1.5-3.512,4.16a1,1,0,0,1-.9.918C120.158,64.17,120.127,64.171,120.1,64.171ZM117.9,58.006a7.5,7.5,0,0,1,2.109,2.425,8.409,8.409,0,0,1,2.217-2.256,10.791,10.791,0,0,1-2.07-2.642A9.4,9.4,0,0,1,117.9,58.006Z"/><path class="a" d="M142.029,78.978s-3.854,1.666-4.111,5c0,0-1.187-4.482-4.333-5a8.356,8.356,0,0,0,4.333-5S139.731,78.422,142.029,78.978Z"/><path class="b" d="M137.917,84.976a1,1,0,0,1-.965-.741c-.011-.038-1.067-3.865-3.53-4.271a1,1,0,0,1-.244-1.9,7.4,7.4,0,0,0,3.772-4.34,1,1,0,0,1,.9-.744.979.979,0,0,1,.992.619c.53,1.3,2.065,4.078,3.421,4.407a1,1,0,0,1,.164,1.888h0c-.033.015-3.308,1.481-3.514,4.16a1,1,0,0,1-.9.918C137.979,84.975,137.948,84.976,137.917,84.976Zm-2.192-6.165a7.515,7.515,0,0,1,2.108,2.427,8.407,8.407,0,0,1,2.218-2.258,10.762,10.762,0,0,1-2.071-2.64A9.367,9.367,0,0,1,135.725,78.811Z"/><path class="b" d="M104.363,67.51a4,4,0,0,0-4.686-3.168c-11.031,2.131-13.62-.4-17.195-3.9-2.872-2.814-6.31-6.158-13.286-7.486a14.5,14.5,0,0,1-23.014.33c-5.977,1.5-9.12,4.552-11.777,7.156-3.574,3.5-6.161,6.034-17.194,3.9A4,4,0,1,0,15.693,72.2c14.037,2.712,19.124-.96,24.312-6.043a19.8,19.8,0,0,1,5.3-4.1,12.961,12.961,0,0,0-.661,4.076V69.1l-6.119,67.366a8,8,0,0,0,7.243,8.69q.369.034.732.034a8,8,0,0,0,7.958-7.277l2.559-28.173c.209.01.415.031.627.031.24,0,.474-.023.71-.036l2.471,28.154a8,8,0,0,0,7.961,7.3c.234,0,.471-.009.708-.03a8,8,0,0,0,7.271-8.669L70.64,66.741v-.615a12.953,12.953,0,0,0-.934-4.82c3.29,1.05,5.148,2.86,7.177,4.848,3.974,3.9,7.888,6.962,15.819,6.962a45.051,45.051,0,0,0,8.492-.919A4,4,0,0,0,104.363,67.51Z"/><path class="b" d="M57.558,54.8c6.7,0,12.147-6.7,12.147-14.938S64.256,24.923,57.558,24.923s-12.147,6.7-12.147,14.937S50.86,54.8,57.558,54.8Z"/><path class="a" d="M11.881,11.833l6.417,6.72,6.544,42.089L14.351,62.274,7.807,20.185Z"/><path class="b" d="M14.352,64.274a2,2,0,0,1-1.977-1.692L5.83,20.492a2.01,2.01,0,0,1,.179-1.185l4.074-8.35a2,2,0,0,1,3.244-.5l6.417,6.72a2,2,0,0,1,.53,1.073l6.545,42.089a2,2,0,0,1-1.669,2.284L14.659,64.251A2.115,2.115,0,0,1,14.352,64.274ZM9.879,20.5l6.142,39.494,6.539-1.018L16.418,19.481l-4-4.188Z"/><rect class="a" width="7.196" height="22.414" transform="translate(26.596 83.054) rotate(171.162)"/><path class="b" d="M19.482,86.159a2,2,0,0,1-1.973-1.692L14.065,62.319a2,2,0,0,1,1.669-2.284l7.111-1.107A2,2,0,0,1,25.129,60.6l3.443,22.149A2,2,0,0,1,26.9,85.03l-7.11,1.105A2.056,2.056,0,0,1,19.482,86.159ZM18.325,63.68l2.829,18.2,3.159-.492-2.83-18.2Z"/><rect class="a" width="24.685" height="7.623" transform="translate(32.554 64.458) rotate(171.162)"/><path class="b" d="M8.162,70.251a2,2,0,0,1-1.976-1.693L5.015,61.026a2,2,0,0,1,1.669-2.284l24.391-3.793a2,2,0,0,1,2.284,1.669L34.53,64.15a2,2,0,0,1-1.669,2.284L8.47,70.227A2,2,0,0,1,8.162,70.251Zm1.112-7.864.557,3.581,20.44-3.179-.557-3.58Z"/><rect class="c" width="29.291" height="29.291" transform="translate(83.769 110.913)"/><rect class="a" width="29.291" height="29.291" transform="translate(83.769 110.913)"/><path class="b" d="M113.061,142.2H83.77a2,2,0,0,1-2-2V110.913a2,2,0,0,1,2-2h29.291a2,2,0,0,1,2,2V140.2A2,2,0,0,1,113.061,142.2Zm-27.291-4h25.291V112.913H85.77Z"/><rect class="c" width="29.291" height="29.291" transform="translate(113.06 110.913)"/><rect class="a" width="29.291" height="29.291" transform="translate(113.06 110.913)"/><path class="b" d="M142.352,142.2H113.061a2,2,0,0,1-2-2V110.913a2,2,0,0,1,2-2h29.291a2,2,0,0,1,2,2V140.2A2,2,0,0,1,142.352,142.2Zm-27.291-4h25.291V112.913H115.061Z"/><rect class="c" width="29.291" height="29.291" transform="translate(98.415 81.507)"/><rect class="a" width="29.291" height="29.291" transform="translate(98.415 81.507)"/><path class="b" d="M127.706,112.8H98.415a2,2,0,0,1-2-2V81.508a2,2,0,0,1,2-2h29.291a2,2,0,0,1,2,2V110.8A2,2,0,0,1,127.706,112.8Zm-27.291-4h25.291V83.508H100.415Z"/><path class="b" d="M135.179,131.156a.644.644,0,0,0,0-.933l-3.034-3.035,2.1-2.1a.66.66,0,1,0-.933-.934l-.934.934-7-7a.6.6,0,0,0-.6-.167l-3.5.7a.722.722,0,0,0-.533.534l-.7,3.467a.762.762,0,0,0,.167.6l7,7-.934.933a.646.646,0,0,0,0,.934.645.645,0,0,0,.934,0l2.1-2.1,3.067,3.034a.645.645,0,0,0,.934,0l1.867-1.867Zm-3.968-3.034,2.567,2.567-.933.934-2.568-2.567Zm-6.535-8.836,6.768,6.735-3.267,3.268-6.735-6.735.533-2.7Z"/><path class="b" d="M123.276,121.67a.66.66,0,0,1,.933-.933l4.9,4.9a.645.645,0,0,1,0,.934.644.644,0,0,1-.933,0Z"/><path class="b" d="M105.4,87.608a.845.845,0,0,0-.67.185.666.666,0,0,0-.185.67l1.189,5.947a.721.721,0,0,0,.521.558c.037.074.111.074.185.074a.734.734,0,0,0,.521-.223l1.859-1.858,4.163,4.163-1,2.974a.7.7,0,0,0,.186.743l3.643,3.643a.734.734,0,0,0,.521.223.339.339,0,0,0,.186-.037.756.756,0,0,0,.52-.483l.743-2.268.335.335a.719.719,0,0,0,1.041,0,.719.719,0,0,0,0-1.041l-.335-.334,2.268-.744a.683.683,0,0,0,.483-.52.707.707,0,0,0-.186-.707l-3.643-3.643a.774.774,0,0,0-.743-.186l-2.974,1-4.164-4.163,1.859-1.859a.774.774,0,0,0,.186-.743.785.785,0,0,0-.558-.521Zm1.487,5.167-.707-3.5,3.5.707ZM116,102.589l-2.453-2.454.594-1.821,2.305,2.3.149.149Zm1.673-2.863-2.454-2.453,1.822-.6,2.453,2.453Z"/><path class="b" d="M102.316,120.92c-2,0-3.9-1.951-3.9-1.951s-1.9,1.951-3.9,1.951a3.773,3.773,0,0,1-2.927-1.463v9.266c0,4.437,3.9,2.926,6.828,5.852,2.926-2.926,6.827-1.415,6.827-5.852v-9.266A3.77,3.77,0,0,1,102.316,120.92Zm-.926,9.753a11.917,11.917,0,0,0-2.926,1.366l-.049-.049v-5.218H93.538v-4a5.986,5.986,0,0,0,.976.1,7.467,7.467,0,0,0,3.9-1.365v5.267h4.877v1.951C103.292,130.039,103.1,130.088,101.39,130.673Z"/><rect class="d" width="160" height="160"/></svg>