<svg xmlns="http://www.w3.org/2000/svg" xmlns:xlink="http://www.w3.org/1999/xlink" width="64" height="64" viewBox="0 0 64 64"><defs><clipPath id="a"><rect width="64" height="64" fill="none"/></clipPath></defs><g clip-path="url(#a)"><g transform="translate(420)"><path d="M-399.456,36.306a5.436,5.436,0,0,0-1.649-1.147,5.159,5.159,0,0,1-3.069,1.023,5.151,5.151,0,0,1-3.13-1.074,5.409,5.409,0,0,0-1.743,1.2c-3.106,3.141-3.069,9.924-3.066,10.211a1,1,0,0,0,1,.99h.01a1,1,0,0,0,.99-1.011c-.019-1.725.392-6.664,2.488-8.782a3.7,3.7,0,0,1,.451-.382v6.423l-1.006,14.13a1.5,1.5,0,0,0,1.39,1.6c.036,0,.072,0,.108,0a1.5,1.5,0,0,0,1.494-1.394l.663-9.312a3.136,3.136,0,0,0,.351.035,3.1,3.1,0,0,0,.35-.035l.74,9.325a1.5,1.5,0,0,0,1.493,1.381c.04,0,.08,0,.121-.005a1.5,1.5,0,0,0,1.376-1.614l-1.08-13.6V37.463a3.763,3.763,0,0,1,.294.249c2.521,2.544,2.492,8.722,2.491,8.785a1,1,0,0,0,.991,1.01h.009a1,1,0,0,0,1-.99C-396.386,46.23-396.35,39.446-399.456,36.306Z" fill="#ff7d2f"/><path d="M-404.174,34.182a3.206,3.206,0,0,0,3.2-3.2,3.206,3.206,0,0,0-3.2-3.2,3.207,3.207,0,0,0-3.2,3.2A3.207,3.207,0,0,0-404.174,34.182Z" fill="#ff7d2f"/></g><g transform="translate(420)"><path d="M-387,45.486s-.071-6.621,3.611-6.621h1.185c3.682,0,1.6,4.23,5.157,4.23" fill="none" stroke="#ff7d2f" stroke-linecap="round" stroke-linejoin="round" stroke-width="1"/><line y2="5.166" transform="translate(-382.745 40.512)" stroke-width="4" stroke="#ff7d2f" stroke-linecap="round" stroke-linejoin="round" fill="#ff7d2f"/><line x1="1.361" y2="12.123" transform="translate(-384.922 40.37)" stroke-width="2" stroke="#ff7d2f" stroke-linecap="round" stroke-linejoin="round" fill="none"/><line x2="0.804" y2="12.123" transform="translate(-381.966 40.37)" stroke-width="2" stroke="#ff7d2f" stroke-linecap="round" stroke-linejoin="round" fill="none"/><circle cx="1.821" cy="1.821" r="1.821" transform="translate(-383.973 33.856)" fill="#ff7d2f"/></g><g transform="translate(420)"><path d="M-363.528,45.486s.071-6.621-3.611-6.621h-1.185c-3.682,0-1.6,4.23-5.156,4.23" fill="none" stroke="#ff7d2f" stroke-linecap="round" stroke-linejoin="round" stroke-width="1"/><line y2="5.166" transform="translate(-367.779 40.512)" stroke-width="4" stroke="#ff7d2f" stroke-linecap="round" stroke-linejoin="round" fill="#ff7d2f"/><line x2="1.361" y2="12.123" transform="translate(-366.962 40.37)" stroke-width="2" stroke="#ff7d2f" stroke-linecap="round" stroke-linejoin="round" fill="none"/><line x1="0.804" y2="12.123" transform="translate(-369.362 40.37)" stroke-width="2" stroke="#ff7d2f" stroke-linecap="round" stroke-linejoin="round" fill="none"/><circle cx="1.821" cy="1.821" r="1.821" transform="translate(-370.192 33.856)" fill="#ff7d2f"/></g><ellipse cx="2.571" cy="1.997" rx="2.571" ry="1.997" transform="translate(20.4 25.678)" stroke-width="2" stroke="#ff7d2f" stroke-linecap="round" stroke-linejoin="round" fill="#fff"/><path d="M-389.862,6.139c-9.291,0-16.822,3.223-16.822,7.2,0,3.04,4.406,5.638,10.633,6.693A2.258,2.258,0,0,0-396.315,22a2.813,2.813,0,0,0,3.721,1.271,3.007,3.007,0,0,0,2.14-2.747c.2,0,.393.007.592.007,9.29,0,16.821-3.223,16.821-7.2S-380.572,6.139-389.862,6.139Z" transform="translate(420)" fill="#fff" stroke="#ff7d2f" stroke-linecap="round" stroke-linejoin="round" stroke-width="2"/><circle cx="1.318" cy="1.318" r="1.318" transform="translate(22.466 12.166)" fill="#ff7d2f"/><circle cx="1.318" cy="1.318" r="1.318" transform="translate(28.819 12.166)" fill="#ff7d2f"/><circle cx="1.318" cy="1.318" r="1.318" transform="translate(35.173 12.166)" fill="#ff7d2f"/><rect width="64" height="64" fill="none"/></g></svg>