<svg xmlns="http://www.w3.org/2000/svg" xmlns:xlink="http://www.w3.org/1999/xlink" width="1920" height="1080" viewBox="0 0 1920 1080"><defs><style>.a{fill:#fff;stroke:#707070;}.b{clip-path:url(#a);}.c{fill:#fff8f4;}.d,.f{fill:#ff7d2f;}.d{opacity:0.04;}.e{opacity:0.24;}</style><clipPath id="a"><rect class="a" width="1920" height="1080"/></clipPath></defs><g class="b"><rect class="c" width="1920" height="1080"/><path class="d" d="M1057.437,0a4,4,0,0,1,3.467,2.005l350.949,610a4,4,0,0,1,0,3.989l-350.949,610a4,4,0,0,1-3.467,2.005H355.563a4,4,0,0,1-3.467-2.005l-350.949-610a4,4,0,0,1,0-3.989L352.1,2.005A4,4,0,0,1,355.564,0Z" transform="translate(544.653 386.51) rotate(-30)"/><path class="d" d="M701.934,0A4,4,0,0,1,705.4,2.009l232.454,405a4,4,0,0,1,0,3.982l-232.454,405A4,4,0,0,1,701.934,818H237.066a4,4,0,0,1-3.469-2.009l-232.454-405a4,4,0,0,1,0-3.982L233.6,2.009A4,4,0,0,1,237.066,0Z" transform="translate(852.401 445.546) rotate(-30)"/><path class="d" d="M527.937,0A4,4,0,0,1,531.4,2L705.851,305a4,4,0,0,1,0,3.992L531.4,612a4,4,0,0,1-3.466,2H179.063a4,4,0,0,1-3.467-2L1.149,309a4,4,0,0,1,0-3.992L175.6,2a4,4,0,0,1,3.467-2Z" transform="translate(41.86 653.88) rotate(-30)"/><path class="d" d="M416.186,0a4,4,0,0,1,3.467,2.005l137.2,238.5a4,4,0,0,1,0,3.989l-137.2,238.5A4,4,0,0,1,416.186,485H141.814a4,4,0,0,1-3.467-2.005l-137.2-238.5a4,4,0,0,1,0-3.989l137.2-238.5A4,4,0,0,1,141.814,0Z" transform="translate(-189.64 177.597) rotate(-30)"/><g class="e" transform="translate(1737.819 822.149) rotate(180)"><g transform="translate(248.746 60.665)"><g transform="translate(52.943 91.772)"><g transform="translate(2.048)"><path class="f" d="M255.46,131.56l-12.651,7.3,12.651,7.3v19.907a1.158,1.158,0,0,1-1.737,1l-47.128-27.208a1.158,1.158,0,0,1,0-2.006l47.128-27.21a1.157,1.157,0,0,1,1.737,1Z" transform="translate(-206.016 -110.494)"/></g><g transform="translate(52.989)"><path class="f" d="M282.54,139.863l-47.128,27.21a1.157,1.157,0,0,1-1.737-1V146.163l12.651-7.3-12.651-7.3V111.653a1.157,1.157,0,0,1,1.737-1l47.128,27.206A1.157,1.157,0,0,1,282.54,139.863Z" transform="translate(-233.675 -110.494)"/></g><g transform="translate(1.908 61.05)"><path class="f" d="M223.759,161.054l12.651,7.3,0-14.607,17.241-9.953a1.158,1.158,0,0,1,1.737,1l0,54.418a1.158,1.158,0,0,1-1.737,1l-47.128-27.21a1.157,1.157,0,0,1,0-2.006Z" transform="translate(-205.94 -143.642)"/></g><g transform="translate(0 30.538)"><path class="f" d="M206.641,127.232l47.128,27.21a1.157,1.157,0,0,1,0,2.006L236.53,166.4,223.879,159.1l0,14.607-17.241,9.955a1.158,1.158,0,0,1-1.737-1l0-54.418A1.158,1.158,0,0,1,206.641,127.232Z" transform="translate(-204.904 -127.075)"/></g><g transform="translate(54.85 30.644)"><path class="f" d="M265.152,173.763V159.154L252.5,166.46l-17.239-9.955a1.158,1.158,0,0,1,0-2.006l47.127-27.21a1.157,1.157,0,0,1,1.737,1v54.42a1.158,1.158,0,0,1-1.737,1Z" transform="translate(-234.686 -127.132)"/></g><g transform="translate(52.945 61.157)"><path class="f" d="M233.651,199.28V144.86a1.158,1.158,0,0,1,1.737-1l17.239,9.953v14.609l12.649-7.306,17.239,9.953a1.16,1.16,0,0,1,0,2.007l-47.126,27.21A1.157,1.157,0,0,1,233.651,199.28Z" transform="translate(-233.651 -143.7)"/></g></g><g transform="translate(2.048)"><path class="f" d="M226.715,81.731l-12.653,7.3,12.653,7.3v19.907a1.157,1.157,0,0,1-1.737,1l-47.13-27.206a1.158,1.158,0,0,1,0-2.006l47.13-27.212a1.158,1.158,0,0,1,1.737,1Z" transform="translate(-177.27 -60.665)"/></g><g transform="translate(52.989)"><path class="f" d="M253.8,90.035l-47.128,27.21a1.159,1.159,0,0,1-1.739-1V96.336l12.653-7.3-12.653-7.3V61.825a1.159,1.159,0,0,1,1.739-1L253.8,88.03A1.158,1.158,0,0,1,253.8,90.035Z" transform="translate(-204.929 -60.665)"/></g><g transform="translate(1.909 61.052)"><path class="f" d="M195.012,111.226l12.653,7.3,0-14.607L224.9,93.971a1.157,1.157,0,0,1,1.737,1l0,54.418a1.158,1.158,0,0,1-1.737,1l-47.13-27.21a1.158,1.158,0,0,1,0-2.006Z" transform="translate(-177.195 -93.814)"/></g><g transform="translate(0 30.54)"><path class="f" d="M177.895,77.4l47.13,27.21a1.158,1.158,0,0,1,0,2.006l-17.239,9.953-12.653-7.3,0,14.607L177.9,133.827a1.159,1.159,0,0,1-1.739-1l0-54.418A1.158,1.158,0,0,1,177.895,77.4Z" transform="translate(-176.158 -77.247)"/></g><g transform="translate(54.85 30.645)"><path class="f" d="M236.406,123.933V109.325l-12.647,7.306-17.241-9.953a1.158,1.158,0,0,1,0-2.006l47.126-27.212a1.159,1.159,0,0,1,1.739,1v54.42a1.157,1.157,0,0,1-1.737,1Z" transform="translate(-205.94 -77.304)"/></g><g transform="translate(52.945 61.158)"><path class="f" d="M204.905,149.451V95.031a1.157,1.157,0,0,1,1.737-1l17.241,9.953,0,14.609,12.649-7.306,17.239,9.953a1.157,1.157,0,0,1,0,2.006l-47.125,27.212A1.159,1.159,0,0,1,204.905,149.451Z" transform="translate(-204.905 -93.872)"/></g><g transform="translate(105.884)"><g transform="translate(2.048)"><path class="f" d="M284.206,81.731l-12.653,7.3,12.653,7.3v19.907a1.157,1.157,0,0,1-1.737,1L235.34,90.039a1.158,1.158,0,0,1,0-2.006l47.13-27.212a1.158,1.158,0,0,1,1.737,1Z" transform="translate(-234.761 -60.665)"/></g><g transform="translate(52.989)"><path class="f" d="M311.287,90.035l-47.128,27.21a1.159,1.159,0,0,1-1.739-1V96.336l12.653-7.3-12.653-7.3V61.825a1.159,1.159,0,0,1,1.739-1L311.287,88.03A1.158,1.158,0,0,1,311.287,90.035Z" transform="translate(-262.42 -60.665)"/></g><g transform="translate(1.909 61.052)"><path class="f" d="M252.5,111.226l12.653,7.3,0-14.607,17.239-9.953a1.157,1.157,0,0,1,1.737,1l0,54.418a1.158,1.158,0,0,1-1.737,1l-47.13-27.21a1.158,1.158,0,0,1,0-2.006Z" transform="translate(-234.686 -93.814)"/></g><g transform="translate(0 30.54)"><path class="f" d="M235.386,77.4l47.13,27.21a1.158,1.158,0,0,1,0,2.006l-17.239,9.953-12.653-7.3,0,14.607-17.239,9.953a1.159,1.159,0,0,1-1.739-1l0-54.418A1.158,1.158,0,0,1,235.386,77.4Z" transform="translate(-233.649 -77.247)"/></g><g transform="translate(54.85 30.645)"><path class="f" d="M293.9,123.933V109.325l-12.647,7.306-17.241-9.953a1.158,1.158,0,0,1,0-2.006l47.127-27.212a1.159,1.159,0,0,1,1.739,1v54.42a1.157,1.157,0,0,1-1.737,1Z" transform="translate(-263.431 -77.304)"/></g><g transform="translate(52.945 61.158)"><path class="f" d="M262.4,149.451V95.031a1.157,1.157,0,0,1,1.737-1l17.241,9.953,0,14.609,12.649-7.306,17.239,9.953a1.157,1.157,0,0,1,0,2.006l-47.125,27.212A1.159,1.159,0,0,1,262.4,149.451Z" transform="translate(-262.396 -93.872)"/></g></g></g><g transform="translate(89.923 152.437)"><g transform="translate(52.941 91.771)"><g transform="translate(2.048)"><path class="f" d="M169.225,181.388l-12.651,7.3,12.651,7.3V215.9a1.158,1.158,0,0,1-1.737,1L120.36,189.7a1.158,1.158,0,0,1,0-2.007l47.128-27.21a1.158,1.158,0,0,1,1.737,1Z" transform="translate(-119.78 -160.322)"/></g><g transform="translate(52.991)"><path class="f" d="M196.305,189.692,149.177,216.9a1.158,1.158,0,0,1-1.737-1V195.993l12.651-7.3-12.651-7.3V161.482a1.158,1.158,0,0,1,1.737-1l47.128,27.208A1.158,1.158,0,0,1,196.305,189.692Z" transform="translate(-147.44 -160.322)"/></g><g transform="translate(1.909 61.05)"><path class="f" d="M137.524,210.884l12.651,7.3,0-14.607,17.239-9.955a1.159,1.159,0,0,1,1.739,1l0,54.418a1.158,1.158,0,0,1-1.737,1l-47.13-27.21a1.158,1.158,0,0,1,0-2.006Z" transform="translate(-119.705 -193.47)"/></g><g transform="translate(0 30.539)"><path class="f" d="M120.407,177.061l47.128,27.21a1.158,1.158,0,0,1,0,2.006L150.3,216.229l-12.651-7.3,0,14.607-17.239,9.953a1.157,1.157,0,0,1-1.737-1l0-54.42A1.159,1.159,0,0,1,120.407,177.061Z" transform="translate(-118.668 -176.904)"/></g><g transform="translate(54.852 30.645)"><path class="f" d="M178.917,223.59V208.982l-12.649,7.306-17.239-9.953a1.158,1.158,0,0,1,0-2.006l47.126-27.212a1.158,1.158,0,0,1,1.737,1v54.42a1.157,1.157,0,0,1-1.737,1Z" transform="translate(-148.451 -176.961)"/></g><g transform="translate(52.945 61.158)"><path class="f" d="M147.417,249.107l0-54.42a1.159,1.159,0,0,1,1.739-1l17.239,9.953v14.609l12.647-7.306,17.241,9.953a1.158,1.158,0,0,1,0,2.006l-47.127,27.212A1.158,1.158,0,0,1,147.417,249.107Z" transform="translate(-147.415 -193.529)"/></g></g><g transform="translate(2.048)"><path class="f" d="M140.48,131.56l-12.653,7.3,12.653,7.3v19.907a1.159,1.159,0,0,1-1.739,1L91.614,139.866a1.158,1.158,0,0,1,0-2.006l47.128-27.21a1.159,1.159,0,0,1,1.739,1Z" transform="translate(-91.035 -110.494)"/></g><g transform="translate(52.989)"><path class="f" d="M167.561,139.863l-47.13,27.21a1.157,1.157,0,0,1-1.737-1V146.163l12.653-7.3-12.653-7.3V111.653a1.157,1.157,0,0,1,1.737-1l47.13,27.206A1.158,1.158,0,0,1,167.561,139.863Z" transform="translate(-118.694 -110.494)"/></g><g transform="translate(1.909 61.05)"><path class="f" d="M108.777,161.054l12.651,7.3,0-14.607,17.239-9.953a1.158,1.158,0,0,1,1.737,1l0,54.418a1.159,1.159,0,0,1-1.739,1l-47.128-27.21a1.158,1.158,0,0,1,0-2.006Z" transform="translate(-90.96 -143.642)"/></g><g transform="translate(0 30.538)"><path class="f" d="M91.66,127.232l47.13,27.21a1.158,1.158,0,0,1,0,2.006L121.549,166.4,108.9,159.1l0,14.607-17.239,9.955a1.159,1.159,0,0,1-1.739-1l0-54.418A1.158,1.158,0,0,1,91.66,127.232Z" transform="translate(-89.923 -127.075)"/></g><g transform="translate(54.85 30.644)"><path class="f" d="M150.171,173.763V159.154l-12.647,7.306-17.241-9.955a1.158,1.158,0,0,1,0-2.006l47.127-27.21a1.157,1.157,0,0,1,1.737,1l0,54.42a1.159,1.159,0,0,1-1.739,1Z" transform="translate(-119.705 -127.132)"/></g><g transform="translate(52.945 61.157)"><path class="f" d="M118.67,199.28V144.86a1.158,1.158,0,0,1,1.737-1l17.239,9.953v14.609l12.649-7.306,17.239,9.953a1.16,1.16,0,0,1,0,2.007l-47.126,27.21A1.157,1.157,0,0,1,118.67,199.28Z" transform="translate(-118.67 -143.7)"/></g><g transform="translate(105.884)"><g transform="translate(2.048)"><path class="f" d="M197.971,131.56l-12.653,7.3,12.653,7.3v19.907a1.159,1.159,0,0,1-1.739,1L149.1,139.866a1.158,1.158,0,0,1,0-2.006l47.128-27.21a1.159,1.159,0,0,1,1.739,1Z" transform="translate(-148.526 -110.494)"/></g><g transform="translate(52.989)"><path class="f" d="M225.052,139.863l-47.13,27.21a1.158,1.158,0,0,1-1.737-1V146.163l12.653-7.3-12.653-7.3V111.653a1.157,1.157,0,0,1,1.737-1l47.13,27.206A1.158,1.158,0,0,1,225.052,139.863Z" transform="translate(-176.185 -110.494)"/></g><g transform="translate(1.909 61.05)"><path class="f" d="M166.268,161.054l12.653,7.3,0-14.607,17.239-9.953a1.158,1.158,0,0,1,1.737,1l0,54.418a1.159,1.159,0,0,1-1.739,1l-47.128-27.21a1.158,1.158,0,0,1,0-2.006Z" transform="translate(-148.451 -143.642)"/></g><g transform="translate(0 30.538)"><path class="f" d="M149.151,127.232l47.13,27.21a1.158,1.158,0,0,1,0,2.006L179.04,166.4,166.389,159.1l0,14.607-17.239,9.955a1.159,1.159,0,0,1-1.739-1l0-54.418A1.158,1.158,0,0,1,149.151,127.232Z" transform="translate(-147.414 -127.075)"/></g><g transform="translate(54.85 30.644)"><path class="f" d="M207.662,173.763V159.154l-12.647,7.306-17.241-9.955a1.158,1.158,0,0,1,0-2.006L224.9,127.29a1.158,1.158,0,0,1,1.739,1v54.42a1.159,1.159,0,0,1-1.739,1Z" transform="translate(-177.196 -127.132)"/></g><g transform="translate(52.945 61.157)"><path class="f" d="M176.161,199.28V144.86a1.158,1.158,0,0,1,1.737-1l17.241,9.953,0,14.609,12.649-7.306,17.239,9.953a1.158,1.158,0,0,1,0,2.007L177.9,200.282A1.157,1.157,0,0,1,176.161,199.28Z" transform="translate(-176.161 -143.7)"/></g></g></g><g transform="translate(248.746 244.207)"><g transform="translate(52.943 91.771)"><g transform="translate(2.048 0.001)"><path class="f" d="M255.46,231.217l-12.651,7.3,12.651,7.3v19.907a1.157,1.157,0,0,1-1.737,1l-47.128-27.206a1.158,1.158,0,0,1,0-2.006l47.128-27.21a1.157,1.157,0,0,1,1.737,1Z" transform="translate(-206.016 -210.151)"/></g><g transform="translate(52.989)"><path class="f" d="M282.54,239.52l-47.128,27.21a1.157,1.157,0,0,1-1.737-1V245.821l12.651-7.3-12.651-7.3V211.31a1.157,1.157,0,0,1,1.737-1l47.128,27.206A1.157,1.157,0,0,1,282.54,239.52Z" transform="translate(-233.675 -210.15)"/></g><g transform="translate(1.908 61.051)"><path class="f" d="M223.759,260.711l12.651,7.3,0-14.607,17.241-9.953a1.157,1.157,0,0,1,1.737,1l0,54.42a1.158,1.158,0,0,1-1.737,1l-47.128-27.21a1.157,1.157,0,0,1,0-2.006Z" transform="translate(-205.94 -243.299)"/></g><g transform="translate(0 30.539)"><path class="f" d="M206.641,226.889l47.128,27.21a1.157,1.157,0,0,1,0,2.006l-17.239,9.953-12.651-7.3,0,14.607-17.241,9.955a1.158,1.158,0,0,1-1.737-1l0-54.418A1.158,1.158,0,0,1,206.641,226.889Z" transform="translate(-204.904 -226.732)"/></g><g transform="translate(54.85 30.644)"><path class="f" d="M265.152,273.418V258.81L252.5,266.118l-17.239-9.955a1.158,1.158,0,0,1,0-2.006l47.127-27.212a1.158,1.158,0,0,1,1.737,1v54.42a1.158,1.158,0,0,1-1.737,1Z" transform="translate(-234.686 -226.789)"/></g><g transform="translate(52.945 61.158)"><path class="f" d="M233.651,298.937v-54.42a1.158,1.158,0,0,1,1.737-1l17.239,9.953v14.609l12.649-7.306,17.239,9.953a1.158,1.158,0,0,1,0,2.006l-47.126,27.212A1.157,1.157,0,0,1,233.651,298.937Z" transform="translate(-233.651 -243.357)"/></g></g><g transform="translate(2.048)"><path class="f" d="M226.715,181.388l-12.653,7.3,12.653,7.3V215.9a1.158,1.158,0,0,1-1.737,1L177.849,189.7a1.16,1.16,0,0,1,0-2.007l47.13-27.21a1.158,1.158,0,0,1,1.737,1Z" transform="translate(-177.27 -160.322)"/></g><g transform="translate(52.989)"><path class="f" d="M253.8,189.692,206.668,216.9a1.159,1.159,0,0,1-1.739-1V195.993l12.653-7.3-12.653-7.3V161.482a1.159,1.159,0,0,1,1.739-1L253.8,187.687A1.158,1.158,0,0,1,253.8,189.692Z" transform="translate(-204.929 -160.322)"/></g><g transform="translate(1.909 61.05)"><path class="f" d="M195.012,210.884l12.653,7.3,0-14.607,17.239-9.955a1.158,1.158,0,0,1,1.737,1l0,54.418a1.158,1.158,0,0,1-1.737,1l-47.13-27.21a1.158,1.158,0,0,1,0-2.006Z" transform="translate(-177.195 -193.47)"/></g><g transform="translate(0 30.539)"><path class="f" d="M177.895,177.061l47.13,27.21a1.158,1.158,0,0,1,0,2.006l-17.239,9.953-12.653-7.3,0,14.607L177.9,233.484a1.159,1.159,0,0,1-1.739-1l0-54.42A1.157,1.157,0,0,1,177.895,177.061Z" transform="translate(-176.158 -176.904)"/></g><g transform="translate(54.85 30.645)"><path class="f" d="M236.406,223.59V208.982l-12.647,7.306-17.241-9.953a1.158,1.158,0,0,1,0-2.006l47.126-27.212a1.159,1.159,0,0,1,1.739,1v54.42a1.157,1.157,0,0,1-1.737,1Z" transform="translate(-205.94 -176.961)"/></g><g transform="translate(52.945 61.158)"><path class="f" d="M204.905,249.107v-54.42a1.157,1.157,0,0,1,1.737-1l17.241,9.953,0,14.609,12.649-7.306,17.239,9.953a1.157,1.157,0,0,1,0,2.006l-47.125,27.212A1.159,1.159,0,0,1,204.905,249.107Z" transform="translate(-204.905 -193.529)"/></g><g transform="translate(105.884)"><g transform="translate(2.048)"><path class="f" d="M284.206,181.388l-12.653,7.3,12.653,7.3V215.9a1.158,1.158,0,0,1-1.737,1L235.34,189.7a1.16,1.16,0,0,1,0-2.007l47.13-27.21a1.158,1.158,0,0,1,1.737,1Z" transform="translate(-234.761 -160.322)"/></g><g transform="translate(52.989)"><path class="f" d="M311.287,189.692,264.159,216.9a1.159,1.159,0,0,1-1.739-1V195.993l12.653-7.3-12.653-7.3V161.482a1.159,1.159,0,0,1,1.739-1l47.128,27.208A1.158,1.158,0,0,1,311.287,189.692Z" transform="translate(-262.42 -160.322)"/></g><g transform="translate(1.909 61.05)"><path class="f" d="M252.5,210.884l12.653,7.3,0-14.607,17.239-9.955a1.158,1.158,0,0,1,1.737,1l0,54.418a1.158,1.158,0,0,1-1.737,1l-47.13-27.21a1.158,1.158,0,0,1,0-2.006Z" transform="translate(-234.686 -193.47)"/></g><g transform="translate(0 30.539)"><path class="f" d="M235.386,177.061l47.13,27.21a1.158,1.158,0,0,1,0,2.006l-17.239,9.953-12.653-7.3,0,14.607-17.239,9.953a1.159,1.159,0,0,1-1.739-1l0-54.42A1.157,1.157,0,0,1,235.386,177.061Z" transform="translate(-233.649 -176.904)"/></g><g transform="translate(54.85 30.645)"><path class="f" d="M293.9,223.59V208.982l-12.647,7.306-17.241-9.953a1.158,1.158,0,0,1,0-2.006l47.127-27.212a1.159,1.159,0,0,1,1.739,1v54.42a1.157,1.157,0,0,1-1.737,1Z" transform="translate(-263.431 -176.961)"/></g><g transform="translate(52.945 61.158)"><path class="f" d="M262.4,249.107v-54.42a1.157,1.157,0,0,1,1.737-1l17.241,9.953,0,14.609,12.649-7.306,17.239,9.953a1.157,1.157,0,0,1,0,2.006l-47.125,27.212A1.159,1.159,0,0,1,262.4,249.107Z" transform="translate(-262.396 -193.529)"/></g></g></g></g></g></svg>