<svg xmlns="http://www.w3.org/2000/svg" xmlns:xlink="http://www.w3.org/1999/xlink" width="64" height="64" viewBox="0 0 64 64"><defs><clipPath id="a"><rect width="64" height="64" fill="none"/></clipPath></defs><g clip-path="url(#a)"><circle cx="6.15" cy="6.15" r="6.15" transform="translate(34.188 26.199)" fill="none" stroke="#ff7d2f" stroke-linecap="round" stroke-linejoin="round" stroke-width="2"/><circle cx="6.15" cy="6.15" r="6.15" transform="translate(23.874 27.288)" fill="none" stroke="#ff7d2f" stroke-linecap="round" stroke-linejoin="round" stroke-width="2"/><circle cx="6.15" cy="6.15" r="6.15" transform="translate(34.188 26.199)" fill="#ff7d2f" opacity="0.5"/><circle cx="6.15" cy="6.15" r="6.15" transform="translate(23.874 27.288)" fill="#ff7d2f" opacity="0.5"/><g transform="translate(252)"><path d="M-191.751,16.536a5.788,5.788,0,0,1-7.454,2.186,5.79,5.79,0,0,1-3.207-6.078,9.32,9.32,0,0,0-5.636,4.849,9.318,9.318,0,0,0-.3,7.429,5.793,5.793,0,0,1,6.755-1.264,5.79,5.79,0,0,1,2.919,7.2,9.336,9.336,0,0,0,7.465-5.225A9.336,9.336,0,0,0-191.751,16.536Z" fill="#fff" stroke="#ff7d2f" stroke-linecap="round" stroke-linejoin="round" stroke-width="2"/><rect width="33.492" height="4.846" transform="translate(-213.103 41.311) rotate(-64.208)" fill="#fff"/><rect width="33.492" height="4.846" transform="translate(-213.103 41.311) rotate(-64.208)" fill="#ff7d2f" opacity="0.5"/><rect width="33.492" height="4.846" transform="translate(-213.103 41.311) rotate(-64.208)" stroke-width="2" stroke="#ff7d2f" stroke-linecap="round" stroke-linejoin="round" fill="none"/></g><g transform="translate(252)"><rect width="6.155" height="17.717" transform="translate(-220.591 24.272) rotate(-7.063)" stroke-width="2" stroke="#ff7d2f" stroke-linecap="round" stroke-linejoin="round" fill="#fff"/><path d="M-215.9,19.546l-.81-6.536-4.282.53.81,6.536-3.939.488.506,4.082,3.939-.488,4.282-.53,3.939-.488-.506-4.082Z" fill="none" stroke="#ff7d2f" stroke-linecap="round" stroke-linejoin="round" stroke-width="2"/><path d="M-215.9,19.546l-.81-6.536-4.282.53.81,6.536-3.939.488.506,4.082,3.939-.488,4.282-.53,3.939-.488-.506-4.082Z" fill="#ff7d2f" opacity="0.5"/></g><path d="M-221.517,55.441h15.127l3.375-23.156L-228.3,31.85Z" transform="translate(252)" fill="#fff" stroke="#ff7d2f" stroke-linecap="round" stroke-linejoin="round" stroke-width="2"/><circle cx="8" cy="8" r="8" transform="translate(5.465 7.378)" fill="#ff7d2f"/><path d="M-230.477,31.85s5.6,11.754,25.218,14.66" transform="translate(252)" fill="none" stroke="#ff7d2f" stroke-linecap="round" stroke-linejoin="round" stroke-width="10"/><path d="M-238.252,58.955h18.188s-6.646-23.692-8.931-28.7c-2.232-4.895-9.936-3.317-11.515,3.9S-238.252,58.955-238.252,58.955Z" transform="translate(252)" fill="#ff7d2f" stroke="#ff7d2f" stroke-linecap="round" stroke-linejoin="round" stroke-width="4"/><rect width="64" height="64" fill="none"/></g></svg>