<svg xmlns="http://www.w3.org/2000/svg" xmlns:xlink="http://www.w3.org/1999/xlink" width="64" height="64" viewBox="0 0 64 64"><defs><clipPath id="a"><rect width="64" height="64" fill="none"/></clipPath></defs><g clip-path="url(#a)"><path d="M-537.748,29.274-556,20.151l-18.252,9.122L-556,38.4Z" transform="translate(588)" fill="#ff7d2f" opacity="0.5"/><path d="M-556,20.151l-18.252,9.122-7.99-12.633,18.252-9.122Z" transform="translate(588)" fill="#fff" stroke="#ff7d2f" stroke-linecap="round" stroke-linejoin="round" stroke-width="2"/><path d="M-556,20.151" transform="translate(588)" fill="none" stroke="#ff7d2f" stroke-linecap="round" stroke-linejoin="round" stroke-width="2"/><path d="M-556,20.151l18.252,9.122,7.99-12.633L-548.01,7.518-556,20.151" transform="translate(588)" fill="#fff" stroke="#ff7d2f" stroke-linecap="round" stroke-linejoin="round" stroke-width="2"/><path d="M-539.243,24.575a6.968,6.968,0,0,0-1.054-8.3l-3.007,5.276-3.377-1.925,3.006-5.276a6.97,6.97,0,0,0-7.678,3.324,6.965,6.965,0,0,0,.257,7.306L-563.483,46.72l5.437,3.1,12.387-21.739A6.962,6.962,0,0,0-539.243,24.575Z" transform="translate(588)" fill="#fff" stroke="#ff7d2f" stroke-linecap="round" stroke-linejoin="round" stroke-width="2"/><circle cx="3.003" cy="3.003" r="3.003" transform="translate(22.58 31.989)" fill="#ff7d2f" stroke="#ff7d2f" stroke-linecap="round" stroke-linejoin="round" stroke-width="2"/><circle cx="1.86" cy="1.86" r="1.86" transform="translate(27.421 25.07)" fill="#ff7d2f" stroke="#ff7d2f" stroke-linecap="round" stroke-linejoin="round" stroke-width="2"/><circle cx="1.315" cy="1.315" r="1.315" transform="translate(20.85 17.787)" fill="#ff7d2f" stroke="#ff7d2f" stroke-linecap="round" stroke-linejoin="round" stroke-width="2"/><g transform="translate(588)"><path d="M-537.748,50.2-556,59.323-574.252,50.2V29.274L-556,38.4l18.252-9.122Z" fill="#fff" stroke="#ff7d2f" stroke-linecap="round" stroke-linejoin="round" stroke-width="2"/><line y2="20.927" transform="translate(-556 38.396)" stroke-width="2" stroke="#ff7d2f" stroke-linecap="round" stroke-linejoin="round" fill="#fff"/></g><rect width="64" height="64" fill="none"/></g></svg>