<svg xmlns="http://www.w3.org/2000/svg" xmlns:xlink="http://www.w3.org/1999/xlink" width="64" height="64" viewBox="0 0 64 64"><defs><clipPath id="a"><rect width="64" height="64" fill="none"/></clipPath></defs><g clip-path="url(#a)"><path d="M-33.748,34.7-52,25.575-70.252,34.7-52,43.82Z" transform="translate(84)" fill="#ff7d2f" opacity="0.5"/><path d="M-52,25.575-70.252,34.7l-7.99-12.633,18.252-9.122Z" transform="translate(84)" fill="#fff" stroke="#ff7d2f" stroke-linecap="round" stroke-linejoin="round" stroke-width="2"/><path d="M-52,25.575-33.748,34.7l7.99-12.633L-44.01,12.942-52,25.575" transform="translate(84)" fill="#fff" stroke="#ff7d2f" stroke-linecap="round" stroke-linejoin="round" stroke-width="2"/><rect width="26.241" height="39.192" transform="translate(18.879 9.65)" stroke-width="2" stroke="#ff7d2f" stroke-linecap="round" stroke-linejoin="round" fill="#fff"/><rect width="26.241" height="39.192" transform="translate(18.879 9.65)" fill="#ff7d2f" opacity="0.5"/><g transform="translate(84)"><path d="M-33.748,50.879-52,60l-18.252-9.122V34.7L-52,43.82-33.748,34.7Z" fill="#fff" stroke="#ff7d2f" stroke-linecap="round" stroke-linejoin="round" stroke-width="2"/><line y2="16.181" transform="translate(-52 43.82)" stroke-width="2" stroke="#ff7d2f" stroke-linecap="round" stroke-linejoin="round" fill="#fff"/></g><g transform="translate(84)"><path d="M-61.143,30.647l1.26-.122a1.533,1.533,0,0,0,.461.931,1.4,1.4,0,0,0,.939.3,1.447,1.447,0,0,0,.943-.264.788.788,0,0,0,.317-.619.587.587,0,0,0-.133-.387,1.068,1.068,0,0,0-.466-.278q-.228-.078-1.037-.28a3.5,3.5,0,0,1-1.461-.635A1.667,1.667,0,0,1-60.911,28a1.66,1.66,0,0,1,.277-.917,1.738,1.738,0,0,1,.8-.649,3.209,3.209,0,0,1,1.263-.224,2.7,2.7,0,0,1,1.817.53,1.871,1.871,0,0,1,.642,1.413l-1.3.057a1.1,1.1,0,0,0-.357-.711,1.3,1.3,0,0,0-.82-.216,1.485,1.485,0,0,0-.884.231.47.47,0,0,0-.205.4.492.492,0,0,0,.193.39,3.42,3.42,0,0,0,1.189.429,6.263,6.263,0,0,1,1.4.461,1.8,1.8,0,0,1,.709.652,1.913,1.913,0,0,1,.256,1.022,1.887,1.887,0,0,1-.306,1.032,1.844,1.844,0,0,1-.867.716,3.63,3.63,0,0,1-1.395.233,2.775,2.775,0,0,1-1.868-.561A2.442,2.442,0,0,1-61.143,30.647Z" fill="#fff"/><path d="M-54.843,26.32h2.367a4.606,4.606,0,0,1,1.221.123,2.134,2.134,0,0,1,.967.591,2.788,2.788,0,0,1,.612,1.039,4.727,4.727,0,0,1,.21,1.515,4.2,4.2,0,0,1-.2,1.366,2.82,2.82,0,0,1-.687,1.132,2.264,2.264,0,0,1-.91.512,3.9,3.9,0,0,1-1.146.136h-2.437Zm1.295,1.085v4.248h.967a3.516,3.516,0,0,0,.783-.061,1.192,1.192,0,0,0,.523-.267,1.352,1.352,0,0,0,.339-.619,4.206,4.206,0,0,0,.131-1.174,3.86,3.86,0,0,0-.131-1.143,1.461,1.461,0,0,0-.368-.621,1.241,1.241,0,0,0-.6-.3,5.883,5.883,0,0,0-1.064-.061Z" fill="#fff"/><path d="M-48.351,32.734V26.32h1.3v2.848l2.617-2.848H-42.7l-2.415,2.5,2.546,3.916h-1.676l-1.763-3.01-1.05,1.071v1.939Z" fill="#fff"/></g><g transform="translate(84)"><circle cx="2.098" cy="2.098" r="2.098" transform="translate(-53.311 14.657)" fill="none" stroke="#fff" stroke-miterlimit="10" stroke-width="2"/><line x1="2.53" y2="2.53" transform="translate(-55.165 18.291)" fill="none" stroke="#fff" stroke-linecap="round" stroke-miterlimit="10" stroke-width="2"/></g><path d="M-40.44,45.126l16.742-9.4L-33.748,34.7-52,43.82Z" transform="translate(84)" fill="#fff" stroke="#ff7d2f" stroke-linecap="round" stroke-linejoin="round" stroke-width="2"/><path d="M-63.569,45.126l-16.742-9.4L-70.26,34.7l18.252,9.122Z" transform="translate(84)" fill="#fff" stroke="#ff7d2f" stroke-linecap="round" stroke-linejoin="round" stroke-width="2"/><rect width="64" height="64" fill="none"/></g></svg>