<svg xmlns="http://www.w3.org/2000/svg" width="36" height="36" viewBox="0 0 36 36"><defs><style>.a{fill:#fff;}.b{fill:#4c4948;}</style></defs><path class="a" d="M18,18,0,18A18,18,0,1,0,18,0,18,18,0,0,0,0,18Z"/><path class="b" d="M239.4,273.728a1.643,1.643,0,0,0,.24-.42v-2.46c-3.72.78-4.5-1.56-4.5-1.56a3.531,3.531,0,0,0-1.5-1.98c-1.2-.84.12-.84.12-.84a2.917,2.917,0,0,1,2.04,1.38,2.913,2.913,0,0,0,3.9,1.14,3.159,3.159,0,0,1,.84-1.8c-3-.36-6.12-1.5-6.12-6.6a5.357,5.357,0,0,1,1.38-3.6,4.929,4.929,0,0,1,.12-3.54s1.14-.36,3.66,1.38a12.582,12.582,0,0,1,3.36-.42,15.607,15.607,0,0,1,3.36.42c2.58-1.74,3.66-1.38,3.66-1.38a4.606,4.606,0,0,1,.12,3.54,5.244,5.244,0,0,1,1.38,3.6c0,5.1-3.12,6.24-6.12,6.6a3.142,3.142,0,0,1,.9,2.46v3.66c0,.12.06.24.24.42a.645.645,0,0,1-.12.84.853.853,0,0,1-.36.12h-6.12a.567.567,0,0,1-.6-.6.507.507,0,0,1,.12-.36Z" transform="translate(-224.938 -244.508)"/></svg>