<svg xmlns="http://www.w3.org/2000/svg" xmlns:xlink="http://www.w3.org/1999/xlink" width="100" height="100" viewBox="0 0 100 100"><defs><clipPath id="a"><rect width="100" height="100" fill="none"/></clipPath></defs><g clip-path="url(#a)"><path d="M52.148,92.28s5.985-4.222,5.985-11.456c0-6.485-5.985-10.544-5.985-10.544s-5.985,4.059-5.985,10.544C46.163,88.058,52.148,92.28,52.148,92.28Z" fill="#fff" stroke="#ff7d2f" stroke-linecap="round" stroke-linejoin="round" stroke-width="2"/><path d="M52.148,13.318s-11.97,11.075-11.97,20.688V65.671h11.97" fill="#fff" stroke="#ff7d2f" stroke-linecap="round" stroke-linejoin="round" stroke-width="2"/><path d="M40.178,48.5s-5.068,4.1-7.244,13.074-.8,13.15,1.02,9.83c2.755-5.012,6.224-5.736,6.224-5.736Z" fill="#fff" stroke="#ff7d2f" stroke-linecap="round" stroke-linejoin="round" stroke-width="2"/><path d="M52.148,13.318s11.97,11.075,11.97,20.688V65.671H52.148" fill="#fff" stroke="#ff7d2f" stroke-linecap="round" stroke-linejoin="round" stroke-width="2"/><path d="M64.118,48.5s5.068,4.1,7.245,13.074.8,13.15-1.021,9.83c-2.755-5.012-6.224-5.736-6.224-5.736Z" fill="#fff" stroke="#ff7d2f" stroke-linecap="round" stroke-linejoin="round" stroke-width="2"/><line x2="14.51" transform="translate(44.815 21.937)" stroke-width="2" stroke="#ff7d2f" stroke-linecap="round" stroke-linejoin="round" fill="#fff"/><path d="M52.148,75.1s-2.713,1.433-2.713,3.888c0,2.2,1.591,3.578,2.713,3.578s2.713-1.377,2.713-3.578C54.861,76.528,52.148,75.1,52.148,75.1Z" fill="#ff7d2f" opacity="0.5"/><path d="M48.88,26.943h5.947V25.2h1.211v4.663H54.827V28.125H48.88Z" fill="#ff7d2f"/><path d="M48.88,30.674h7.158v4.355H54.827V31.855H53.24V34.8H52.034V31.855H50.091v3.281H48.88Z" fill="#ff7d2f"/><path d="M51.214,35.826l.137,1.157q-1.373.195-1.372,1.279a1.206,1.206,0,0,0,.28.845.9.9,0,0,0,.7.308.757.757,0,0,0,.414-.108.781.781,0,0,0,.281-.327,9.028,9.028,0,0,0,.369-1.064,3.6,3.6,0,0,1,.5-1.109,1.87,1.87,0,0,1,.705-.558,2.15,2.15,0,0,1,.939-.208,2.1,2.1,0,0,1,1.054.266,1.739,1.739,0,0,1,.707.735A2.531,2.531,0,0,1,56.16,38.2a2.033,2.033,0,0,1-2.168,2.231l-.063-1.186a1.277,1.277,0,0,0,.805-.337,1.071,1.071,0,0,0,.23-.737,1.194,1.194,0,0,0-.2-.738.6.6,0,0,0-.5-.258.62.62,0,0,0-.492.235,3.355,3.355,0,0,0-.439,1.079,4.434,4.434,0,0,1-.544,1.291,1.849,1.849,0,0,1-.737.607,2.588,2.588,0,0,1-1.1.21,2.246,2.246,0,0,1-1.567-.574,2.3,2.3,0,0,1-.635-1.794Q48.758,36.071,51.214,35.826Z" fill="#ff7d2f"/><path d="M48.88,42.926h5.947V41.182h1.211v4.663H54.827V44.107H48.88Z" fill="#ff7d2f"/><path d="M48.88,46.661h7.158v1.152l-4.78,2.4h4.78v1.1H48.88V50.128l4.668-2.364H48.88Z" fill="#ff7d2f"/><path d="M48.88,52.655h7.158V57.01H54.827V53.837H53.24v2.949H52.034V53.837H50.091v3.281H48.88Z" fill="#ff7d2f"/><path d="M48.88,59.528h5.947V57.785h1.211v4.663H54.827V60.71H48.88Z" fill="#ff7d2f"/><path d="M52.14,13.541,45.774,21.5l13,.222Z" fill="#ff7d2f" opacity="0.5"/><rect width="100" height="100" fill="none"/></g></svg>