<svg xmlns="http://www.w3.org/2000/svg" xmlns:xlink="http://www.w3.org/1999/xlink" width="64" height="64" viewBox="0 0 64 64"><defs><clipPath id="a"><rect width="64" height="64" fill="none"/></clipPath></defs><g clip-path="url(#a)"><path d="M50.725,28.783V20.061h-33.7c-3.591,0-6.5,1.953-6.5,4.361v4.709Z" fill="#fff" stroke="#ff7d2f" stroke-linecap="round" stroke-linejoin="round" stroke-width="2"/><path d="M50.725,28.783V20.061h-33.7c-3.591,0-6.5,1.953-6.5,4.361l3.342,8.312h33.28Z" fill="#ff7d2f" opacity="0.5"/><rect width="36.407" height="18.152" transform="translate(15.589 37.658) rotate(-60)" stroke-width="2" stroke="#ff7d2f" stroke-linecap="round" stroke-linejoin="round" fill="#fff"/><path d="M31.381,34.606l-2.114-1.221a3.212,3.212,0,0,1-1.694.957A2.474,2.474,0,0,1,25.917,34a2.264,2.264,0,0,1-1.089-1.325,2.418,2.418,0,0,1,.154-1.764l-.5-.29.422-.731.5.289a2.5,2.5,0,0,1,1.284-.961,2.449,2.449,0,0,1,1.559.092l-.571,1.373a1.186,1.186,0,0,0-1.156.14l1.972,1.139a3.772,3.772,0,0,1,1.8-1.16,2.329,2.329,0,0,1,1.593.335,2.592,2.592,0,0,1,1.22,1.441,2.8,2.8,0,0,1-.121,1.98l.945.545-.422.731-.919-.53a2.691,2.691,0,0,1-1.471,1.042,3.087,3.087,0,0,1-1.939-.191l.618-1.4a1.925,1.925,0,0,0,.871.1A1.583,1.583,0,0,0,31.381,34.606Zm-5.3-3.06a1.1,1.1,0,0,0,.069.673,1.019,1.019,0,0,0,.433.485.968.968,0,0,0,.591.126,1.287,1.287,0,0,0,.653-.276Zm5.792,2.369a1.181,1.181,0,0,0,0-.818,1.135,1.135,0,0,0-.522-.618,1.035,1.035,0,0,0-.7-.137,1.475,1.475,0,0,0-.753.437Z" fill="#ff7d2f"/><path d="M35.3,27.825,33.182,26.6a3.218,3.218,0,0,1-1.694.957,2.474,2.474,0,0,1-1.656-.341A2.27,2.27,0,0,1,28.743,25.9,2.43,2.43,0,0,1,28.9,24.13l-.5-.289.422-.731.5.288a2.5,2.5,0,0,1,1.285-.96,2.433,2.433,0,0,1,1.558.092L31.591,23.9a1.184,1.184,0,0,0-1.156.139l1.972,1.139a3.769,3.769,0,0,1,1.8-1.159,2.325,2.325,0,0,1,1.594.335,2.585,2.585,0,0,1,1.219,1.44,2.8,2.8,0,0,1-.121,1.98l.945.545-.422.732-.919-.53a2.7,2.7,0,0,1-1.471,1.042,3.081,3.081,0,0,1-1.939-.192l.618-1.4a1.939,1.939,0,0,0,.871.1A1.615,1.615,0,0,0,35.3,27.825ZM30,24.765a1.1,1.1,0,0,0,.069.673,1.028,1.028,0,0,0,.433.485.976.976,0,0,0,.591.125,1.273,1.273,0,0,0,.653-.275Zm5.792,2.369a1.175,1.175,0,0,0,0-.818,1.133,1.133,0,0,0-.521-.618,1.032,1.032,0,0,0-.7-.137,1.465,1.465,0,0,0-.753.436Z" fill="#ff7d2f"/><path d="M39.211,21.042,37.1,19.822a3.228,3.228,0,0,1-1.694.958,2.48,2.48,0,0,1-1.656-.341,2.27,2.27,0,0,1-1.089-1.325,2.425,2.425,0,0,1,.155-1.765l-.5-.289.422-.731.5.288a2.491,2.491,0,0,1,1.285-.961,2.433,2.433,0,0,1,1.558.092l-.571,1.373a1.184,1.184,0,0,0-1.156.14L36.323,18.4a3.747,3.747,0,0,1,1.8-1.159,2.319,2.319,0,0,1,1.594.334,2.59,2.59,0,0,1,1.219,1.441A2.792,2.792,0,0,1,40.819,21l.945.545-.423.733-.919-.531a2.7,2.7,0,0,1-1.47,1.043,3.1,3.1,0,0,1-1.94-.193l.619-1.4a1.908,1.908,0,0,0,.871.1A1.575,1.575,0,0,0,39.211,21.042Zm-5.3-3.058a1.1,1.1,0,0,0,.07.673,1.026,1.026,0,0,0,.432.485.977.977,0,0,0,.592.125,1.3,1.3,0,0,0,.652-.275Zm5.793,2.368a1.186,1.186,0,0,0,0-.818,1.144,1.144,0,0,0-.521-.618,1.046,1.046,0,0,0-.7-.137,1.466,1.466,0,0,0-.752.437Z" fill="#ff7d2f"/><path d="M43.006,14.25a3.546,3.546,0,0,1,1.227,4.861L46.031,16Z" fill="#ff7d2f" stroke="#ff7d2f" stroke-linecap="round" stroke-linejoin="round" stroke-width="1"/><path d="M37.872,11.285a3.547,3.547,0,0,0-4.823,1.369l1.8-3.115Z" fill="#ff7d2f" stroke="#ff7d2f" stroke-linecap="round" stroke-linejoin="round" stroke-width="1"/><path d="M17.027,28.783c-3.591,0-6.5-1.953-6.5-4.361V52.1c0,2.5,3.025,4.531,6.757,4.531H53.3V28.783Z" fill="#fff" stroke="#ff7d2f" stroke-linecap="round" stroke-linejoin="round" stroke-width="2"/><path d="M50.255,49.237a5.958,5.958,0,0,1,0-11.917h5.023V49.237Z" fill="#fff" stroke="#ff7d2f" stroke-linecap="round" stroke-linejoin="round" stroke-width="2"/><circle cx="1.502" cy="1.502" r="1.502" transform="translate(48.286 41.777)" fill="#fff" stroke="#ff7d2f" stroke-linecap="round" stroke-linejoin="round" stroke-width="2"/><rect width="64" height="64" fill="none"/></g></svg>